M48
; DRILL file {KiCad 5.1.9+dfsg1-1} date Fri Jun 11 06:32:09 2021
; FORMAT={-:-/ absolute / inch / decimal}
; #@! TF.CreationDate,2021-06-11T06:32:09+02:00
; #@! TF.GenerationSoftware,Kicad,Pcbnew,5.1.9+dfsg1-1
; #@! TF.FileFunction,Plated,1,2,PTH
FMAT,2
INCH
T1C0.0157
T2C0.0280
T3C0.0315
T4C0.0394
T5C0.0433
T6C0.0472
T7C0.0520
%
G90
G05
T1
X3.75Y-3.2
X4.25Y-3.2
X4.45Y-3.3
X5.1Y-3.4
X5.55Y-3.3
X5.65Y-3.15
T2
X7.4Y-3.9
X7.6008Y-3.963
T3
X4.8Y-4.3
X4.8Y-4.7
X4.95Y-4.3
X4.95Y-4.7
X5.1Y-4.3
X5.1Y-4.7
X5.15Y-3.7516
X5.15Y-3.85
X5.25Y-4.3
X5.25Y-4.7
X5.487Y-3.8764
X5.55Y-3.7516
X5.55Y-3.85
X5.613Y-3.7252
X5.95Y-3.65
X5.95Y-3.95
X6.05Y-3.65
X6.05Y-3.95
X6.15Y-3.65
X6.15Y-3.95
X6.25Y-3.65
X6.25Y-3.95
X6.35Y-3.65
X6.35Y-3.95
X6.45Y-3.65
X6.45Y-3.95
X6.55Y-3.65
X6.55Y-3.95
X6.65Y-3.65
X6.65Y-3.95
X6.75Y-3.65
X6.75Y-3.95
X7.087Y-3.1764
X7.15Y-3.0516
X7.15Y-3.15
X7.213Y-3.0252
X7.437Y-3.6264
X7.5Y-3.0516
X7.5Y-3.15
X7.5Y-3.5016
X7.5Y-3.6
X7.563Y-3.4752
T4
X3.25Y-3.5
X3.25Y-4.1
X3.35Y-3.5
X3.35Y-4.1
X3.45Y-3.5
X3.45Y-4.1
X3.55Y-3.5
X3.55Y-4.1
X3.65Y-3.5
X3.65Y-4.1
X3.75Y-3.5
X3.75Y-4.1
X3.85Y-3.5
X3.85Y-4.1
X3.95Y-3.5
X3.95Y-4.1
X4.05Y-3.5
X4.05Y-4.1
X4.15Y-3.5
X4.15Y-4.1
X4.25Y-3.5
X4.25Y-4.1
X4.35Y-3.5
X4.35Y-4.1
X4.45Y-3.5
X4.45Y-4.1
X4.55Y-3.5
X4.55Y-4.1
X4.65Y-3.5
X4.65Y-4.1
X7.2Y-4.35
X7.2Y-4.45
X7.2Y-4.55
T5
X3.55Y-2.95
X3.6Y-4.6
X3.65Y-2.95
X3.7Y-4.6
X3.75Y-2.95
X3.8Y-4.6
X3.85Y-2.95
X3.9Y-4.6
X3.95Y-2.95
X4.0Y-4.6
X4.05Y-2.95
X4.1Y-4.6
X4.15Y-2.95
X4.2Y-4.6
X4.25Y-2.95
X4.9Y-2.95
X5.0Y-2.95
X5.1Y-2.95
X5.2Y-2.95
X5.55Y-2.95
X5.65Y-2.95
X5.75Y-2.95
T6
X7.1Y-3.6
X7.1Y-4.0
T7
X7.8Y-3.05
X7.9969Y-3.05
X8.05Y-3.75
X8.05Y-3.9469
X8.1937Y-3.05
T0
M30
