%TF.GenerationSoftware,KiCad,Pcbnew,5.1.9+dfsg1-1*%
%TF.CreationDate,2021-06-11T06:32:11+02:00*%
%TF.ProjectId,one-dim-pong,6f6e652d-6469-46d2-9d70-6f6e672e6b69,rev?*%
%TF.SameCoordinates,Original*%
%TF.FileFunction,Copper,L2,Bot*%
%TF.FilePolarity,Positive*%
%FSLAX46Y46*%
G04 Gerber Fmt 4.6, Leading zero omitted, Abs format (unit mm)*
G04 Created by KiCad (PCBNEW 5.1.9+dfsg1-1) date 2021-06-11 06:32:11*
%MOMM*%
%LPD*%
G01*
G04 APERTURE LIST*
%TA.AperFunction,ComponentPad*%
%ADD10C,1.270000*%
%TD*%
%TA.AperFunction,ComponentPad*%
%ADD11O,2.400000X2.400000*%
%TD*%
%TA.AperFunction,ComponentPad*%
%ADD12R,2.400000X2.400000*%
%TD*%
%TA.AperFunction,ComponentPad*%
%ADD13O,3.960000X1.980000*%
%TD*%
%TA.AperFunction,ComponentPad*%
%ADD14R,3.960000X1.980000*%
%TD*%
%TA.AperFunction,ComponentPad*%
%ADD15C,1.600000*%
%TD*%
%TA.AperFunction,ComponentPad*%
%ADD16R,1.600000X1.600000*%
%TD*%
%TA.AperFunction,ComponentPad*%
%ADD17C,2.100000*%
%TD*%
%TA.AperFunction,ComponentPad*%
%ADD18R,2.100000X2.100000*%
%TD*%
%TA.AperFunction,ComponentPad*%
%ADD19O,1.600000X1.600000*%
%TD*%
%TA.AperFunction,ComponentPad*%
%ADD20O,1.600000X2.400000*%
%TD*%
%TA.AperFunction,ComponentPad*%
%ADD21R,1.600000X2.400000*%
%TD*%
%TA.AperFunction,ComponentPad*%
%ADD22O,1.980000X3.960000*%
%TD*%
%TA.AperFunction,ComponentPad*%
%ADD23R,1.980000X3.960000*%
%TD*%
%TA.AperFunction,ComponentPad*%
%ADD24O,1.700000X1.700000*%
%TD*%
%TA.AperFunction,ComponentPad*%
%ADD25R,1.700000X1.700000*%
%TD*%
%TA.AperFunction,ViaPad*%
%ADD26C,0.800000*%
%TD*%
%TA.AperFunction,Conductor*%
%ADD27C,0.250000*%
%TD*%
%TA.AperFunction,Conductor*%
%ADD28C,1.000000*%
%TD*%
%TA.AperFunction,Conductor*%
%ADD29C,0.500000*%
%TD*%
G04 APERTURE END LIST*
D10*
%TO.P,F1,1*%
%TO.N,+5V*%
X187960000Y-99060000D03*
%TO.P,F1,2*%
%TO.N,Net-(F1-Pad2)*%
X193060000Y-100660000D03*
%TD*%
D11*
%TO.P,D1,2*%
%TO.N,GND*%
X180340000Y-91440000D03*
D12*
%TO.P,D1,1*%
%TO.N,+5V*%
X180340000Y-101600000D03*
%TD*%
D13*
%TO.P,J3,2*%
%TO.N,Net-(F1-Pad2)*%
X204470000Y-100250000D03*
D14*
%TO.P,J3,1*%
%TO.N,GND*%
X204470000Y-95250000D03*
%TD*%
D15*
%TO.P,C3,2*%
%TO.N,GND*%
X192100000Y-88269063D03*
D16*
%TO.P,C3,1*%
%TO.N,+5V*%
X188900000Y-92110937D03*
D15*
%TO.P,C3,2*%
%TO.N,GND*%
X190500000Y-88940000D03*
D16*
%TO.P,C3,1*%
%TO.N,+5V*%
X190500000Y-91440000D03*
%TD*%
D17*
%TO.P,J7,4*%
%TO.N,Net-(J7-Pad4)*%
X132080000Y-74930000D03*
%TO.P,J7,3*%
%TO.N,+5V*%
X129540000Y-74930000D03*
%TO.P,J7,2*%
%TO.N,Net-(J7-Pad2)*%
X127000000Y-74930000D03*
D18*
%TO.P,J7,1*%
%TO.N,+5V*%
X124460000Y-74930000D03*
%TD*%
D19*
%TO.P,A1,16*%
%TO.N,Net-(A1-Pad16)*%
X82550000Y-104140000D03*
%TO.P,A1,15*%
%TO.N,Net-(A1-Pad15)*%
X82550000Y-88900000D03*
%TO.P,A1,30*%
%TO.N,Net-(A1-Pad30)*%
X118110000Y-104140000D03*
%TO.P,A1,14*%
%TO.N,Net-(A1-Pad14)*%
X85090000Y-88900000D03*
%TO.P,A1,29*%
%TO.N,GND*%
X115570000Y-104140000D03*
%TO.P,A1,13*%
%TO.N,Net-(A1-Pad13)*%
X87630000Y-88900000D03*
%TO.P,A1,28*%
%TO.N,Net-(A1-Pad28)*%
X113030000Y-104140000D03*
%TO.P,A1,12*%
%TO.N,Net-(A1-Pad12)*%
X90170000Y-88900000D03*
%TO.P,A1,27*%
%TO.N,+5V*%
X110490000Y-104140000D03*
%TO.P,A1,11*%
%TO.N,Net-(A1-Pad11)*%
X92710000Y-88900000D03*
%TO.P,A1,26*%
%TO.N,Net-(A1-Pad26)*%
X107950000Y-104140000D03*
%TO.P,A1,10*%
%TO.N,Net-(A1-Pad10)*%
X95250000Y-88900000D03*
%TO.P,A1,25*%
%TO.N,Net-(A1-Pad25)*%
X105410000Y-104140000D03*
%TO.P,A1,9*%
%TO.N,Net-(A1-Pad9)*%
X97790000Y-88900000D03*
%TO.P,A1,24*%
%TO.N,Net-(A1-Pad24)*%
X102870000Y-104140000D03*
%TO.P,A1,8*%
%TO.N,Net-(A1-Pad8)*%
X100330000Y-88900000D03*
%TO.P,A1,23*%
%TO.N,Net-(A1-Pad23)*%
X100330000Y-104140000D03*
%TO.P,A1,7*%
%TO.N,Net-(A1-Pad7)*%
X102870000Y-88900000D03*
%TO.P,A1,22*%
%TO.N,Net-(A1-Pad22)*%
X97790000Y-104140000D03*
%TO.P,A1,6*%
%TO.N,Net-(A1-Pad6)*%
X105410000Y-88900000D03*
%TO.P,A1,21*%
%TO.N,Net-(A1-Pad21)*%
X95250000Y-104140000D03*
%TO.P,A1,5*%
%TO.N,Net-(A1-Pad5)*%
X107950000Y-88900000D03*
%TO.P,A1,20*%
%TO.N,Net-(A1-Pad20)*%
X92710000Y-104140000D03*
%TO.P,A1,4*%
%TO.N,GND*%
X110490000Y-88900000D03*
%TO.P,A1,19*%
%TO.N,Net-(A1-Pad19)*%
X90170000Y-104140000D03*
%TO.P,A1,3*%
%TO.N,Net-(A1-Pad3)*%
X113030000Y-88900000D03*
%TO.P,A1,18*%
%TO.N,Net-(A1-Pad18)*%
X87630000Y-104140000D03*
%TO.P,A1,2*%
%TO.N,Net-(A1-Pad2)*%
X115570000Y-88900000D03*
%TO.P,A1,17*%
%TO.N,Net-(A1-Pad17)*%
X85090000Y-104140000D03*
D16*
%TO.P,A1,1*%
%TO.N,Net-(A1-Pad1)*%
X118110000Y-88900000D03*
%TD*%
D20*
%TO.P,U1,18*%
%TO.N,Net-(J1-Pad6)*%
X171450000Y-100330000D03*
%TO.P,U1,9*%
%TO.N,GND*%
X151130000Y-92710000D03*
%TO.P,U1,17*%
%TO.N,Net-(J2-Pad6)*%
X168910000Y-100330000D03*
%TO.P,U1,8*%
%TO.N,GND*%
X153670000Y-92710000D03*
%TO.P,U1,16*%
%TO.N,Net-(J7-Pad4)*%
X166370000Y-100330000D03*
%TO.P,U1,7*%
%TO.N,GND*%
X156210000Y-92710000D03*
%TO.P,U1,15*%
%TO.N,Net-(J7-Pad2)*%
X163830000Y-100330000D03*
%TO.P,U1,6*%
%TO.N,GND*%
X158750000Y-92710000D03*
%TO.P,U1,14*%
%TO.N,Net-(U1-Pad14)*%
X161290000Y-100330000D03*
%TO.P,U1,5*%
%TO.N,GND*%
X161290000Y-92710000D03*
%TO.P,U1,13*%
%TO.N,Net-(U1-Pad13)*%
X158750000Y-100330000D03*
%TO.P,U1,4*%
%TO.N,Net-(A1-Pad15)*%
X163830000Y-92710000D03*
%TO.P,U1,12*%
%TO.N,Net-(U1-Pad12)*%
X156210000Y-100330000D03*
%TO.P,U1,3*%
%TO.N,Net-(A1-Pad12)*%
X166370000Y-92710000D03*
%TO.P,U1,11*%
%TO.N,Net-(U1-Pad11)*%
X153670000Y-100330000D03*
%TO.P,U1,2*%
%TO.N,Net-(A1-Pad12)*%
X168910000Y-92710000D03*
%TO.P,U1,10*%
%TO.N,+5V*%
X151130000Y-100330000D03*
D21*
%TO.P,U1,1*%
%TO.N,Net-(A1-Pad12)*%
X171450000Y-92710000D03*
%TD*%
D19*
%TO.P,R4,2*%
%TO.N,+5V*%
X125730000Y-119380000D03*
D15*
%TO.P,R4,1*%
%TO.N,Net-(J7-Pad4)*%
X125730000Y-109220000D03*
%TD*%
D19*
%TO.P,R3,2*%
%TO.N,+5V*%
X129540000Y-119380000D03*
D15*
%TO.P,R3,1*%
%TO.N,Net-(J2-Pad6)*%
X129540000Y-109220000D03*
%TD*%
D19*
%TO.P,R2,2*%
%TO.N,+5V*%
X133350000Y-119380000D03*
D15*
%TO.P,R2,1*%
%TO.N,Net-(J1-Pad6)*%
X133350000Y-109220000D03*
%TD*%
D19*
%TO.P,R1,2*%
%TO.N,GND*%
X121920000Y-109220000D03*
D15*
%TO.P,R1,1*%
%TO.N,Net-(A1-Pad19)*%
X121920000Y-119380000D03*
%TD*%
D22*
%TO.P,J6,3*%
%TO.N,+5V*%
X208120000Y-77470000D03*
%TO.P,J6,2*%
%TO.N,Net-(A1-Pad16)*%
X203120000Y-77470000D03*
D23*
%TO.P,J6,1*%
%TO.N,GND*%
X198120000Y-77470000D03*
%TD*%
D17*
%TO.P,J5,3*%
%TO.N,Net-(A1-Pad5)*%
X146050000Y-74930000D03*
%TO.P,J5,2*%
%TO.N,Net-(C4-Pad1)*%
X143510000Y-74930000D03*
D18*
%TO.P,J5,1*%
%TO.N,GND*%
X140970000Y-74930000D03*
%TD*%
D24*
%TO.P,J4,3*%
%TO.N,Net-(C4-Pad1)*%
X182880000Y-110490000D03*
%TO.P,J4,2*%
%TO.N,GND*%
X182880000Y-113030000D03*
D25*
%TO.P,J4,1*%
%TO.N,+5V*%
X182880000Y-115570000D03*
%TD*%
D17*
%TO.P,J2,7*%
%TO.N,+5V*%
X91440000Y-116840000D03*
%TO.P,J2,6*%
%TO.N,Net-(J2-Pad6)*%
X93980000Y-116840000D03*
%TO.P,J2,5*%
%TO.N,Net-(A1-Pad14)*%
X96520000Y-116840000D03*
%TO.P,J2,4*%
%TO.N,Net-(A1-Pad13)*%
X99060000Y-116840000D03*
%TO.P,J2,3*%
%TO.N,Net-(A1-Pad6)*%
X101600000Y-116840000D03*
%TO.P,J2,2*%
%TO.N,Net-(A1-Pad11)*%
X104140000Y-116840000D03*
D18*
%TO.P,J2,1*%
%TO.N,GND*%
X106680000Y-116840000D03*
%TD*%
D17*
%TO.P,J1,8*%
%TO.N,+5V*%
X107950000Y-74930000D03*
%TO.P,J1,7*%
%TO.N,Net-(A1-Pad19)*%
X105410000Y-74930000D03*
%TO.P,J1,6*%
%TO.N,Net-(J1-Pad6)*%
X102870000Y-74930000D03*
%TO.P,J1,5*%
%TO.N,Net-(A1-Pad10)*%
X100330000Y-74930000D03*
%TO.P,J1,4*%
%TO.N,Net-(A1-Pad9)*%
X97790000Y-74930000D03*
%TO.P,J1,3*%
%TO.N,Net-(A1-Pad8)*%
X95250000Y-74930000D03*
%TO.P,J1,2*%
%TO.N,Net-(A1-Pad7)*%
X92710000Y-74930000D03*
D18*
%TO.P,J1,1*%
%TO.N,GND*%
X90170000Y-74930000D03*
%TD*%
D15*
%TO.P,C5,2*%
%TO.N,GND*%
X190500000Y-77510000D03*
%TO.P,C5,1*%
%TO.N,Net-(C4-Pad1)*%
X190500000Y-80010000D03*
%TD*%
%TO.P,C4,2*%
%TO.N,GND*%
X183210000Y-76839063D03*
D16*
%TO.P,C4,1*%
%TO.N,Net-(C4-Pad1)*%
X180010000Y-80680937D03*
D15*
%TO.P,C4,2*%
%TO.N,GND*%
X181610000Y-77510000D03*
D16*
%TO.P,C4,1*%
%TO.N,Net-(C4-Pad1)*%
X181610000Y-80010000D03*
%TD*%
D15*
%TO.P,C2,2*%
%TO.N,GND*%
X142570000Y-94619063D03*
D16*
%TO.P,C2,1*%
%TO.N,+5V*%
X139370000Y-98460937D03*
D15*
%TO.P,C2,2*%
%TO.N,GND*%
X140970000Y-95290000D03*
D16*
%TO.P,C2,1*%
%TO.N,+5V*%
X140970000Y-97790000D03*
%TD*%
D15*
%TO.P,C1,2*%
%TO.N,GND*%
X130810000Y-95290000D03*
%TO.P,C1,1*%
%TO.N,+5V*%
X130810000Y-97790000D03*
%TD*%
D26*
%TO.N,Net-(A1-Pad15)*%
X95250000Y-81280000D03*
X107950000Y-81280000D03*
X143510000Y-80010000D03*
%TO.N,Net-(A1-Pad12)*%
X113030000Y-83820000D03*
%TO.N,Net-(J7-Pad4)*%
X140970000Y-83820000D03*
%TO.N,Net-(J7-Pad2)*%
X129540000Y-86360000D03*
%TD*%
D27*
%TO.N,Net-(A1-Pad16)*%
X203120000Y-75010000D02*
X203120000Y-77470000D01*
X204470000Y-73660000D02*
X203120000Y-75010000D01*
X209550000Y-73660000D02*
X204470000Y-73660000D01*
X90231992Y-121858008D02*
X208341992Y-121858008D01*
X223520000Y-87630000D02*
X209550000Y-73660000D01*
X90170000Y-121920000D02*
X90231992Y-121858008D01*
X87630000Y-119380000D02*
X90170000Y-121920000D01*
X223520000Y-106680000D02*
X223520000Y-87630000D01*
X208341992Y-121858008D02*
X223520000Y-106680000D01*
X87630000Y-113030000D02*
X87630000Y-119380000D01*
X82550000Y-107950000D02*
X87630000Y-113030000D01*
X82550000Y-104140000D02*
X82550000Y-107950000D01*
%TO.N,Net-(A1-Pad15)*%
X82550000Y-88900000D02*
X82550000Y-86360000D01*
X87630000Y-81280000D02*
X95250000Y-81280000D01*
X82550000Y-86360000D02*
X87630000Y-81280000D01*
X107950000Y-81280000D02*
X109220000Y-80010000D01*
X109220000Y-80010000D02*
X143510000Y-80010000D01*
%TO.N,Net-(A1-Pad14)*%
X96520000Y-100330000D02*
X96520000Y-116840000D01*
X85090000Y-88900000D02*
X96520000Y-100330000D01*
D28*
%TO.N,GND*%
X182539063Y-77510000D02*
X183210000Y-76839063D01*
X181610000Y-77510000D02*
X182539063Y-77510000D01*
X141899063Y-95290000D02*
X142570000Y-94619063D01*
X140970000Y-95290000D02*
X141899063Y-95290000D01*
X191429063Y-88940000D02*
X192100000Y-88269063D01*
X190500000Y-88940000D02*
X191429063Y-88940000D01*
D27*
%TO.N,Net-(A1-Pad13)*%
X98915001Y-116695001D02*
X99060000Y-116840000D01*
X98915001Y-100185001D02*
X98915001Y-116695001D01*
X87630000Y-88900000D02*
X98915001Y-100185001D01*
%TO.N,Net-(A1-Pad12)*%
X171450000Y-92710000D02*
X166370000Y-92710000D01*
X166370000Y-92710000D02*
X162560000Y-96520000D01*
X162560000Y-96520000D02*
X149860000Y-96520000D01*
X149860000Y-96520000D02*
X144780000Y-91440000D01*
X144780000Y-91440000D02*
X138430000Y-85090000D01*
X138430000Y-85090000D02*
X137160000Y-83820000D01*
X137160000Y-83820000D02*
X113030000Y-83820000D01*
D29*
%TO.N,+5V*%
X125730000Y-119380000D02*
X129540000Y-119380000D01*
X129540000Y-119380000D02*
X133350000Y-119380000D01*
X110490000Y-104140000D02*
X110490000Y-101600000D01*
X110490000Y-101600000D02*
X114300000Y-97790000D01*
X129540000Y-72390000D02*
X129540000Y-74930000D01*
X123190000Y-116840000D02*
X125730000Y-119380000D01*
X109220000Y-119380000D02*
X111760000Y-116840000D01*
X92710000Y-119380000D02*
X109220000Y-119380000D01*
X91440000Y-118110000D02*
X92710000Y-119380000D01*
X111760000Y-116840000D02*
X123190000Y-116840000D01*
X91440000Y-116840000D02*
X91440000Y-118110000D01*
X114300000Y-97790000D02*
X127000000Y-97790000D01*
X129540000Y-72390000D02*
X129540000Y-71120000D01*
X120650000Y-74930000D02*
X107950000Y-74930000D01*
D28*
X141239063Y-100330000D02*
X139370000Y-98460937D01*
X151130000Y-100330000D02*
X141239063Y-100330000D01*
X140040937Y-97790000D02*
X139370000Y-98460937D01*
X140970000Y-97790000D02*
X140040937Y-97790000D01*
D29*
X127000000Y-97790000D02*
X130810000Y-97790000D01*
X139370000Y-98460937D02*
X136560937Y-98460937D01*
X135890000Y-97790000D02*
X130810000Y-97790000D01*
X136560937Y-98460937D02*
X135890000Y-97790000D01*
X124460000Y-74930000D02*
X120650000Y-74930000D01*
X124460000Y-74930000D02*
X124460000Y-72390000D01*
X124460000Y-72390000D02*
X125730000Y-71120000D01*
X125730000Y-71120000D02*
X129540000Y-71120000D01*
X194310000Y-73660000D02*
X194310000Y-82550000D01*
X191770000Y-71120000D02*
X194310000Y-73660000D01*
X129540000Y-71120000D02*
X191770000Y-71120000D01*
X182880000Y-115570000D02*
X151130000Y-115570000D01*
X147320000Y-119380000D02*
X133350000Y-119380000D01*
X151130000Y-115570000D02*
X147320000Y-119380000D01*
D28*
X187960000Y-93050937D02*
X188900000Y-92110937D01*
X187960000Y-99060000D02*
X187960000Y-93050937D01*
X189829063Y-92110937D02*
X190500000Y-91440000D01*
X188900000Y-92110937D02*
X189829063Y-92110937D01*
X182880000Y-99060000D02*
X180340000Y-101600000D01*
X187960000Y-99060000D02*
X182880000Y-99060000D01*
X180340000Y-101600000D02*
X180340000Y-104140000D01*
X180340000Y-104140000D02*
X182880000Y-106680000D01*
X182880000Y-106680000D02*
X185420000Y-106680000D01*
X185420000Y-106680000D02*
X186690000Y-107950000D01*
X186690000Y-107950000D02*
X186690000Y-114300000D01*
X185420000Y-115570000D02*
X182880000Y-115570000D01*
X186690000Y-114300000D02*
X185420000Y-115570000D01*
X208120000Y-82710000D02*
X208120000Y-77470000D01*
X199390000Y-91440000D02*
X208120000Y-82710000D01*
D29*
X194310000Y-82550000D02*
X194310000Y-91440000D01*
D28*
X194310000Y-91440000D02*
X199390000Y-91440000D01*
X190500000Y-91440000D02*
X194310000Y-91440000D01*
D27*
%TO.N,Net-(A1-Pad11)*%
X92710000Y-91440000D02*
X92710000Y-88900000D01*
X97790000Y-93980000D02*
X95250000Y-93980000D01*
X95250000Y-93980000D02*
X92710000Y-91440000D01*
X104140000Y-100330000D02*
X97790000Y-93980000D01*
X104140000Y-116840000D02*
X104140000Y-100330000D01*
%TO.N,Net-(A1-Pad10)*%
X100330000Y-86360000D02*
X100330000Y-74930000D01*
X101600000Y-90170000D02*
X101600000Y-87630000D01*
X100330000Y-91440000D02*
X101600000Y-90170000D01*
X101600000Y-87630000D02*
X100330000Y-86360000D01*
X96520000Y-91440000D02*
X100330000Y-91440000D01*
X95250000Y-90170000D02*
X96520000Y-91440000D01*
X95250000Y-88900000D02*
X95250000Y-90170000D01*
%TO.N,Net-(A1-Pad9)*%
X97790000Y-74930000D02*
X97790000Y-88900000D01*
%TO.N,Net-(A1-Pad8)*%
X97394998Y-90170000D02*
X99060000Y-90170000D01*
X96520000Y-89295002D02*
X97394998Y-90170000D01*
X96520000Y-88504998D02*
X96520000Y-89295002D01*
X97249999Y-87774999D02*
X96520000Y-88504998D01*
X97249999Y-80103589D02*
X97249999Y-87774999D01*
X99060000Y-90170000D02*
X100330000Y-88900000D01*
X95250000Y-78103590D02*
X97249999Y-80103589D01*
X95250000Y-74930000D02*
X95250000Y-78103590D01*
%TO.N,Net-(A1-Pad7)*%
X92710000Y-76200000D02*
X92710000Y-74930000D01*
X96520000Y-83820000D02*
X96520000Y-80010000D01*
X96520000Y-80010000D02*
X92710000Y-76200000D01*
X93835001Y-90025001D02*
X93835001Y-86504999D01*
X96520000Y-92710000D02*
X93835001Y-90025001D01*
X93835001Y-86504999D02*
X96520000Y-83820000D01*
X101600000Y-92710000D02*
X96520000Y-92710000D01*
X102870000Y-91440000D02*
X101600000Y-92710000D01*
X102870000Y-88900000D02*
X102870000Y-91440000D01*
%TO.N,Net-(A1-Pad5)*%
X107950000Y-85090000D02*
X107950000Y-88900000D01*
X111760000Y-81280000D02*
X107950000Y-85090000D01*
X144780000Y-81280000D02*
X111760000Y-81280000D01*
X146050000Y-80010000D02*
X144780000Y-81280000D01*
X146050000Y-74930000D02*
X146050000Y-80010000D01*
%TO.N,Net-(A1-Pad19)*%
X81424999Y-95394999D02*
X90170000Y-104140000D01*
X90064999Y-104245001D02*
X90170000Y-104140000D01*
X121920000Y-119380000D02*
X111760000Y-119380000D01*
X111760000Y-119380000D02*
X110490000Y-120650000D01*
X110490000Y-120650000D02*
X90170000Y-120650000D01*
X90170000Y-120650000D02*
X88900000Y-119380000D01*
X88900000Y-119380000D02*
X88900000Y-110490000D01*
X90170000Y-109220000D02*
X90170000Y-104140000D01*
X88900000Y-110490000D02*
X90170000Y-109220000D01*
X105410000Y-74930000D02*
X105410000Y-72390000D01*
X105410000Y-72390000D02*
X104140000Y-71120000D01*
X104140000Y-71120000D02*
X88900000Y-71120000D01*
X88900000Y-71120000D02*
X87630000Y-71120000D01*
X87630000Y-71120000D02*
X86360000Y-72390000D01*
X86360000Y-72390000D02*
X86360000Y-77470000D01*
X86360000Y-77470000D02*
X86360000Y-78740000D01*
X86360000Y-78740000D02*
X81280000Y-83820000D01*
X81280000Y-83820000D02*
X80010000Y-85090000D01*
X81424999Y-95394999D02*
X80010000Y-93980000D01*
X80010000Y-93980000D02*
X80010000Y-85090000D01*
D28*
%TO.N,Net-(C4-Pad1)*%
X190500000Y-80010000D02*
X181610000Y-80010000D01*
D29*
X181610000Y-80010000D02*
X161290000Y-80010000D01*
X161290000Y-80010000D02*
X153670000Y-72390000D01*
X153670000Y-72390000D02*
X144780000Y-72390000D01*
X143510000Y-73660000D02*
X143510000Y-74930000D01*
X144780000Y-72390000D02*
X143510000Y-73660000D01*
D28*
X180939063Y-80680937D02*
X181610000Y-80010000D01*
X180010000Y-80680937D02*
X180939063Y-80680937D01*
X181610000Y-82550000D02*
X181610000Y-80010000D01*
X176530000Y-87630000D02*
X181610000Y-82550000D01*
X176530000Y-107950000D02*
X176530000Y-87630000D01*
X179070000Y-110490000D02*
X176530000Y-107950000D01*
X182880000Y-110490000D02*
X179070000Y-110490000D01*
D27*
%TO.N,Net-(J1-Pad6)*%
X171450000Y-100330000D02*
X165100000Y-106680000D01*
X135890000Y-106680000D02*
X133350000Y-109220000D01*
X165100000Y-106680000D02*
X135890000Y-106680000D01*
X102870000Y-80010000D02*
X102870000Y-74930000D01*
X106680000Y-83820000D02*
X102870000Y-80010000D01*
X106680000Y-107950000D02*
X106680000Y-83820000D01*
X111760000Y-113030000D02*
X106680000Y-107950000D01*
X132080000Y-113030000D02*
X111760000Y-113030000D01*
X133350000Y-111760000D02*
X132080000Y-113030000D01*
X133350000Y-109220000D02*
X133350000Y-111760000D01*
%TO.N,Net-(J2-Pad6)*%
X168910000Y-100330000D02*
X163830000Y-105410000D01*
X133350000Y-105410000D02*
X129540000Y-109220000D01*
X163830000Y-105410000D02*
X133350000Y-105410000D01*
%TO.N,Net-(J7-Pad4)*%
X166370000Y-100330000D02*
X162560000Y-104140000D01*
X130810000Y-104140000D02*
X125730000Y-109220000D01*
X162560000Y-104140000D02*
X130810000Y-104140000D01*
X166370000Y-100330000D02*
X171450000Y-95250000D01*
X171450000Y-95250000D02*
X172720000Y-95250000D01*
X172720000Y-95250000D02*
X173990000Y-93980000D01*
X173990000Y-93980000D02*
X173990000Y-90170000D01*
X173990000Y-90170000D02*
X172720000Y-88900000D01*
X172720000Y-88900000D02*
X171450000Y-87630000D01*
X171450000Y-87630000D02*
X144780000Y-87630000D01*
X144780000Y-87630000D02*
X140970000Y-83820000D01*
%TO.N,Net-(J7-Pad2)*%
X163830000Y-99060000D02*
X163830000Y-100330000D01*
X163830000Y-99060000D02*
X162560000Y-97790000D01*
X162560000Y-97790000D02*
X152400000Y-97790000D01*
X152400000Y-97790000D02*
X148590000Y-97790000D01*
X148590000Y-97790000D02*
X139700000Y-88900000D01*
X139700000Y-88900000D02*
X137160000Y-86360000D01*
X137160000Y-86360000D02*
X129540000Y-86360000D01*
X129540000Y-86360000D02*
X129540000Y-86360000D01*
D28*
%TO.N,Net-(F1-Pad2)*%
X193470000Y-100250000D02*
X193060000Y-100660000D01*
X204470000Y-100250000D02*
X193470000Y-100250000D01*
%TD*%
M02*
