%TF.GenerationSoftware,KiCad,Pcbnew,5.1.9+dfsg1-1*%
%TF.CreationDate,2021-06-11T06:32:11+02:00*%
%TF.ProjectId,one-dim-pong,6f6e652d-6469-46d2-9d70-6f6e672e6b69,rev?*%
%TF.SameCoordinates,Original*%
%TF.FileFunction,Soldermask,Top*%
%TF.FilePolarity,Negative*%
%FSLAX46Y46*%
G04 Gerber Fmt 4.6, Leading zero omitted, Abs format (unit mm)*
G04 Created by KiCad (PCBNEW 5.1.9+dfsg1-1) date 2021-06-11 06:32:11*
%MOMM*%
%LPD*%
G01*
G04 APERTURE LIST*
%ADD10C,1.270000*%
%ADD11O,2.400000X2.400000*%
%ADD12R,2.400000X2.400000*%
%ADD13O,3.960000X1.980000*%
%ADD14R,3.960000X1.980000*%
%ADD15C,1.600000*%
%ADD16R,1.600000X1.600000*%
%ADD17C,2.100000*%
%ADD18R,2.100000X2.100000*%
%ADD19O,1.600000X1.600000*%
%ADD20C,4.300000*%
%ADD21O,1.600000X2.400000*%
%ADD22R,1.600000X2.400000*%
%ADD23O,1.980000X3.960000*%
%ADD24R,1.980000X3.960000*%
%ADD25O,1.700000X1.700000*%
%ADD26R,1.700000X1.700000*%
G04 APERTURE END LIST*
D10*
%TO.C,F1*%
X187960000Y-99060000D03*
X193060000Y-100660000D03*
%TD*%
D11*
%TO.C,D1*%
X180340000Y-91440000D03*
D12*
X180340000Y-101600000D03*
%TD*%
D13*
%TO.C,J3*%
X204470000Y-100250000D03*
D14*
X204470000Y-95250000D03*
%TD*%
D15*
%TO.C,C3*%
X192100000Y-88269063D03*
D16*
X188900000Y-92110937D03*
D15*
X190500000Y-88940000D03*
D16*
X190500000Y-91440000D03*
%TD*%
D17*
%TO.C,J7*%
X132080000Y-74930000D03*
X129540000Y-74930000D03*
X127000000Y-74930000D03*
D18*
X124460000Y-74930000D03*
%TD*%
D19*
%TO.C,A1*%
X82550000Y-104140000D03*
X82550000Y-88900000D03*
X118110000Y-104140000D03*
X85090000Y-88900000D03*
X115570000Y-104140000D03*
X87630000Y-88900000D03*
X113030000Y-104140000D03*
X90170000Y-88900000D03*
X110490000Y-104140000D03*
X92710000Y-88900000D03*
X107950000Y-104140000D03*
X95250000Y-88900000D03*
X105410000Y-104140000D03*
X97790000Y-88900000D03*
X102870000Y-104140000D03*
X100330000Y-88900000D03*
X100330000Y-104140000D03*
X102870000Y-88900000D03*
X97790000Y-104140000D03*
X105410000Y-88900000D03*
X95250000Y-104140000D03*
X107950000Y-88900000D03*
X92710000Y-104140000D03*
X110490000Y-88900000D03*
X90170000Y-104140000D03*
X113030000Y-88900000D03*
X87630000Y-104140000D03*
X115570000Y-88900000D03*
X85090000Y-104140000D03*
D16*
X118110000Y-88900000D03*
%TD*%
D20*
%TO.C,REF\u002A\u002A*%
X221410000Y-73570000D03*
%TD*%
%TO.C,REF\u002A\u002A*%
X81410000Y-73570000D03*
%TD*%
%TO.C,REF\u002A\u002A*%
X221410000Y-118570000D03*
%TD*%
%TO.C,REF\u002A\u002A*%
X81410000Y-118570000D03*
%TD*%
D21*
%TO.C,U1*%
X171450000Y-100330000D03*
X151130000Y-92710000D03*
X168910000Y-100330000D03*
X153670000Y-92710000D03*
X166370000Y-100330000D03*
X156210000Y-92710000D03*
X163830000Y-100330000D03*
X158750000Y-92710000D03*
X161290000Y-100330000D03*
X161290000Y-92710000D03*
X158750000Y-100330000D03*
X163830000Y-92710000D03*
X156210000Y-100330000D03*
X166370000Y-92710000D03*
X153670000Y-100330000D03*
X168910000Y-92710000D03*
X151130000Y-100330000D03*
D22*
X171450000Y-92710000D03*
%TD*%
D19*
%TO.C,R4*%
X125730000Y-119380000D03*
D15*
X125730000Y-109220000D03*
%TD*%
D19*
%TO.C,R3*%
X129540000Y-119380000D03*
D15*
X129540000Y-109220000D03*
%TD*%
D19*
%TO.C,R2*%
X133350000Y-119380000D03*
D15*
X133350000Y-109220000D03*
%TD*%
D19*
%TO.C,R1*%
X121920000Y-109220000D03*
D15*
X121920000Y-119380000D03*
%TD*%
D23*
%TO.C,J6*%
X208120000Y-77470000D03*
X203120000Y-77470000D03*
D24*
X198120000Y-77470000D03*
%TD*%
D17*
%TO.C,J5*%
X146050000Y-74930000D03*
X143510000Y-74930000D03*
D18*
X140970000Y-74930000D03*
%TD*%
D25*
%TO.C,J4*%
X182880000Y-110490000D03*
X182880000Y-113030000D03*
D26*
X182880000Y-115570000D03*
%TD*%
D17*
%TO.C,J2*%
X91440000Y-116840000D03*
X93980000Y-116840000D03*
X96520000Y-116840000D03*
X99060000Y-116840000D03*
X101600000Y-116840000D03*
X104140000Y-116840000D03*
D18*
X106680000Y-116840000D03*
%TD*%
D17*
%TO.C,J1*%
X107950000Y-74930000D03*
X105410000Y-74930000D03*
X102870000Y-74930000D03*
X100330000Y-74930000D03*
X97790000Y-74930000D03*
X95250000Y-74930000D03*
X92710000Y-74930000D03*
D18*
X90170000Y-74930000D03*
%TD*%
D15*
%TO.C,C5*%
X190500000Y-77510000D03*
X190500000Y-80010000D03*
%TD*%
%TO.C,C4*%
X183210000Y-76839063D03*
D16*
X180010000Y-80680937D03*
D15*
X181610000Y-77510000D03*
D16*
X181610000Y-80010000D03*
%TD*%
D15*
%TO.C,C2*%
X142570000Y-94619063D03*
D16*
X139370000Y-98460937D03*
D15*
X140970000Y-95290000D03*
D16*
X140970000Y-97790000D03*
%TD*%
D15*
%TO.C,C1*%
X130810000Y-95290000D03*
X130810000Y-97790000D03*
%TD*%
M02*
