%TF.GenerationSoftware,KiCad,Pcbnew,5.1.9+dfsg1-1*%
%TF.CreationDate,2021-06-11T06:32:11+02:00*%
%TF.ProjectId,one-dim-pong,6f6e652d-6469-46d2-9d70-6f6e672e6b69,rev?*%
%TF.SameCoordinates,Original*%
%TF.FileFunction,Copper,L1,Top*%
%TF.FilePolarity,Positive*%
%FSLAX46Y46*%
G04 Gerber Fmt 4.6, Leading zero omitted, Abs format (unit mm)*
G04 Created by KiCad (PCBNEW 5.1.9+dfsg1-1) date 2021-06-11 06:32:11*
%MOMM*%
%LPD*%
G01*
G04 APERTURE LIST*
%TA.AperFunction,ComponentPad*%
%ADD10C,1.270000*%
%TD*%
%TA.AperFunction,ComponentPad*%
%ADD11O,2.400000X2.400000*%
%TD*%
%TA.AperFunction,ComponentPad*%
%ADD12R,2.400000X2.400000*%
%TD*%
%TA.AperFunction,ComponentPad*%
%ADD13O,3.960000X1.980000*%
%TD*%
%TA.AperFunction,ComponentPad*%
%ADD14R,3.960000X1.980000*%
%TD*%
%TA.AperFunction,ComponentPad*%
%ADD15C,1.600000*%
%TD*%
%TA.AperFunction,ComponentPad*%
%ADD16R,1.600000X1.600000*%
%TD*%
%TA.AperFunction,ComponentPad*%
%ADD17C,2.100000*%
%TD*%
%TA.AperFunction,ComponentPad*%
%ADD18R,2.100000X2.100000*%
%TD*%
%TA.AperFunction,ComponentPad*%
%ADD19O,1.600000X1.600000*%
%TD*%
%TA.AperFunction,ComponentPad*%
%ADD20O,1.600000X2.400000*%
%TD*%
%TA.AperFunction,ComponentPad*%
%ADD21R,1.600000X2.400000*%
%TD*%
%TA.AperFunction,ComponentPad*%
%ADD22O,1.980000X3.960000*%
%TD*%
%TA.AperFunction,ComponentPad*%
%ADD23R,1.980000X3.960000*%
%TD*%
%TA.AperFunction,ComponentPad*%
%ADD24O,1.700000X1.700000*%
%TD*%
%TA.AperFunction,ComponentPad*%
%ADD25R,1.700000X1.700000*%
%TD*%
%TA.AperFunction,ViaPad*%
%ADD26C,0.800000*%
%TD*%
%TA.AperFunction,Conductor*%
%ADD27C,0.250000*%
%TD*%
%TA.AperFunction,Conductor*%
%ADD28C,1.000000*%
%TD*%
%TA.AperFunction,Conductor*%
%ADD29C,0.254000*%
%TD*%
%TA.AperFunction,Conductor*%
%ADD30C,0.100000*%
%TD*%
G04 APERTURE END LIST*
D10*
%TO.P,F1,1*%
%TO.N,+5V*%
X187960000Y-99060000D03*
%TO.P,F1,2*%
%TO.N,Net-(F1-Pad2)*%
X193060000Y-100660000D03*
%TD*%
D11*
%TO.P,D1,2*%
%TO.N,GND*%
X180340000Y-91440000D03*
D12*
%TO.P,D1,1*%
%TO.N,+5V*%
X180340000Y-101600000D03*
%TD*%
D13*
%TO.P,J3,2*%
%TO.N,Net-(F1-Pad2)*%
X204470000Y-100250000D03*
D14*
%TO.P,J3,1*%
%TO.N,GND*%
X204470000Y-95250000D03*
%TD*%
D15*
%TO.P,C3,2*%
%TO.N,GND*%
X192100000Y-88269063D03*
D16*
%TO.P,C3,1*%
%TO.N,+5V*%
X188900000Y-92110937D03*
D15*
%TO.P,C3,2*%
%TO.N,GND*%
X190500000Y-88940000D03*
D16*
%TO.P,C3,1*%
%TO.N,+5V*%
X190500000Y-91440000D03*
%TD*%
D17*
%TO.P,J7,4*%
%TO.N,Net-(J7-Pad4)*%
X132080000Y-74930000D03*
%TO.P,J7,3*%
%TO.N,+5V*%
X129540000Y-74930000D03*
%TO.P,J7,2*%
%TO.N,Net-(J7-Pad2)*%
X127000000Y-74930000D03*
D18*
%TO.P,J7,1*%
%TO.N,+5V*%
X124460000Y-74930000D03*
%TD*%
D19*
%TO.P,A1,16*%
%TO.N,Net-(A1-Pad16)*%
X82550000Y-104140000D03*
%TO.P,A1,15*%
%TO.N,Net-(A1-Pad15)*%
X82550000Y-88900000D03*
%TO.P,A1,30*%
%TO.N,Net-(A1-Pad30)*%
X118110000Y-104140000D03*
%TO.P,A1,14*%
%TO.N,Net-(A1-Pad14)*%
X85090000Y-88900000D03*
%TO.P,A1,29*%
%TO.N,GND*%
X115570000Y-104140000D03*
%TO.P,A1,13*%
%TO.N,Net-(A1-Pad13)*%
X87630000Y-88900000D03*
%TO.P,A1,28*%
%TO.N,Net-(A1-Pad28)*%
X113030000Y-104140000D03*
%TO.P,A1,12*%
%TO.N,Net-(A1-Pad12)*%
X90170000Y-88900000D03*
%TO.P,A1,27*%
%TO.N,+5V*%
X110490000Y-104140000D03*
%TO.P,A1,11*%
%TO.N,Net-(A1-Pad11)*%
X92710000Y-88900000D03*
%TO.P,A1,26*%
%TO.N,Net-(A1-Pad26)*%
X107950000Y-104140000D03*
%TO.P,A1,10*%
%TO.N,Net-(A1-Pad10)*%
X95250000Y-88900000D03*
%TO.P,A1,25*%
%TO.N,Net-(A1-Pad25)*%
X105410000Y-104140000D03*
%TO.P,A1,9*%
%TO.N,Net-(A1-Pad9)*%
X97790000Y-88900000D03*
%TO.P,A1,24*%
%TO.N,Net-(A1-Pad24)*%
X102870000Y-104140000D03*
%TO.P,A1,8*%
%TO.N,Net-(A1-Pad8)*%
X100330000Y-88900000D03*
%TO.P,A1,23*%
%TO.N,Net-(A1-Pad23)*%
X100330000Y-104140000D03*
%TO.P,A1,7*%
%TO.N,Net-(A1-Pad7)*%
X102870000Y-88900000D03*
%TO.P,A1,22*%
%TO.N,Net-(A1-Pad22)*%
X97790000Y-104140000D03*
%TO.P,A1,6*%
%TO.N,Net-(A1-Pad6)*%
X105410000Y-88900000D03*
%TO.P,A1,21*%
%TO.N,Net-(A1-Pad21)*%
X95250000Y-104140000D03*
%TO.P,A1,5*%
%TO.N,Net-(A1-Pad5)*%
X107950000Y-88900000D03*
%TO.P,A1,20*%
%TO.N,Net-(A1-Pad20)*%
X92710000Y-104140000D03*
%TO.P,A1,4*%
%TO.N,GND*%
X110490000Y-88900000D03*
%TO.P,A1,19*%
%TO.N,Net-(A1-Pad19)*%
X90170000Y-104140000D03*
%TO.P,A1,3*%
%TO.N,Net-(A1-Pad3)*%
X113030000Y-88900000D03*
%TO.P,A1,18*%
%TO.N,Net-(A1-Pad18)*%
X87630000Y-104140000D03*
%TO.P,A1,2*%
%TO.N,Net-(A1-Pad2)*%
X115570000Y-88900000D03*
%TO.P,A1,17*%
%TO.N,Net-(A1-Pad17)*%
X85090000Y-104140000D03*
D16*
%TO.P,A1,1*%
%TO.N,Net-(A1-Pad1)*%
X118110000Y-88900000D03*
%TD*%
D20*
%TO.P,U1,18*%
%TO.N,Net-(J1-Pad6)*%
X171450000Y-100330000D03*
%TO.P,U1,9*%
%TO.N,GND*%
X151130000Y-92710000D03*
%TO.P,U1,17*%
%TO.N,Net-(J2-Pad6)*%
X168910000Y-100330000D03*
%TO.P,U1,8*%
%TO.N,GND*%
X153670000Y-92710000D03*
%TO.P,U1,16*%
%TO.N,Net-(J7-Pad4)*%
X166370000Y-100330000D03*
%TO.P,U1,7*%
%TO.N,GND*%
X156210000Y-92710000D03*
%TO.P,U1,15*%
%TO.N,Net-(J7-Pad2)*%
X163830000Y-100330000D03*
%TO.P,U1,6*%
%TO.N,GND*%
X158750000Y-92710000D03*
%TO.P,U1,14*%
%TO.N,Net-(U1-Pad14)*%
X161290000Y-100330000D03*
%TO.P,U1,5*%
%TO.N,GND*%
X161290000Y-92710000D03*
%TO.P,U1,13*%
%TO.N,Net-(U1-Pad13)*%
X158750000Y-100330000D03*
%TO.P,U1,4*%
%TO.N,Net-(A1-Pad15)*%
X163830000Y-92710000D03*
%TO.P,U1,12*%
%TO.N,Net-(U1-Pad12)*%
X156210000Y-100330000D03*
%TO.P,U1,3*%
%TO.N,Net-(A1-Pad12)*%
X166370000Y-92710000D03*
%TO.P,U1,11*%
%TO.N,Net-(U1-Pad11)*%
X153670000Y-100330000D03*
%TO.P,U1,2*%
%TO.N,Net-(A1-Pad12)*%
X168910000Y-92710000D03*
%TO.P,U1,10*%
%TO.N,+5V*%
X151130000Y-100330000D03*
D21*
%TO.P,U1,1*%
%TO.N,Net-(A1-Pad12)*%
X171450000Y-92710000D03*
%TD*%
D19*
%TO.P,R4,2*%
%TO.N,+5V*%
X125730000Y-119380000D03*
D15*
%TO.P,R4,1*%
%TO.N,Net-(J7-Pad4)*%
X125730000Y-109220000D03*
%TD*%
D19*
%TO.P,R3,2*%
%TO.N,+5V*%
X129540000Y-119380000D03*
D15*
%TO.P,R3,1*%
%TO.N,Net-(J2-Pad6)*%
X129540000Y-109220000D03*
%TD*%
D19*
%TO.P,R2,2*%
%TO.N,+5V*%
X133350000Y-119380000D03*
D15*
%TO.P,R2,1*%
%TO.N,Net-(J1-Pad6)*%
X133350000Y-109220000D03*
%TD*%
D19*
%TO.P,R1,2*%
%TO.N,GND*%
X121920000Y-109220000D03*
D15*
%TO.P,R1,1*%
%TO.N,Net-(A1-Pad19)*%
X121920000Y-119380000D03*
%TD*%
D22*
%TO.P,J6,3*%
%TO.N,+5V*%
X208120000Y-77470000D03*
%TO.P,J6,2*%
%TO.N,Net-(A1-Pad16)*%
X203120000Y-77470000D03*
D23*
%TO.P,J6,1*%
%TO.N,GND*%
X198120000Y-77470000D03*
%TD*%
D17*
%TO.P,J5,3*%
%TO.N,Net-(A1-Pad5)*%
X146050000Y-74930000D03*
%TO.P,J5,2*%
%TO.N,Net-(C4-Pad1)*%
X143510000Y-74930000D03*
D18*
%TO.P,J5,1*%
%TO.N,GND*%
X140970000Y-74930000D03*
%TD*%
D24*
%TO.P,J4,3*%
%TO.N,Net-(C4-Pad1)*%
X182880000Y-110490000D03*
%TO.P,J4,2*%
%TO.N,GND*%
X182880000Y-113030000D03*
D25*
%TO.P,J4,1*%
%TO.N,+5V*%
X182880000Y-115570000D03*
%TD*%
D17*
%TO.P,J2,7*%
%TO.N,+5V*%
X91440000Y-116840000D03*
%TO.P,J2,6*%
%TO.N,Net-(J2-Pad6)*%
X93980000Y-116840000D03*
%TO.P,J2,5*%
%TO.N,Net-(A1-Pad14)*%
X96520000Y-116840000D03*
%TO.P,J2,4*%
%TO.N,Net-(A1-Pad13)*%
X99060000Y-116840000D03*
%TO.P,J2,3*%
%TO.N,Net-(A1-Pad6)*%
X101600000Y-116840000D03*
%TO.P,J2,2*%
%TO.N,Net-(A1-Pad11)*%
X104140000Y-116840000D03*
D18*
%TO.P,J2,1*%
%TO.N,GND*%
X106680000Y-116840000D03*
%TD*%
D17*
%TO.P,J1,8*%
%TO.N,+5V*%
X107950000Y-74930000D03*
%TO.P,J1,7*%
%TO.N,Net-(A1-Pad19)*%
X105410000Y-74930000D03*
%TO.P,J1,6*%
%TO.N,Net-(J1-Pad6)*%
X102870000Y-74930000D03*
%TO.P,J1,5*%
%TO.N,Net-(A1-Pad10)*%
X100330000Y-74930000D03*
%TO.P,J1,4*%
%TO.N,Net-(A1-Pad9)*%
X97790000Y-74930000D03*
%TO.P,J1,3*%
%TO.N,Net-(A1-Pad8)*%
X95250000Y-74930000D03*
%TO.P,J1,2*%
%TO.N,Net-(A1-Pad7)*%
X92710000Y-74930000D03*
D18*
%TO.P,J1,1*%
%TO.N,GND*%
X90170000Y-74930000D03*
%TD*%
D15*
%TO.P,C5,2*%
%TO.N,GND*%
X190500000Y-77510000D03*
%TO.P,C5,1*%
%TO.N,Net-(C4-Pad1)*%
X190500000Y-80010000D03*
%TD*%
%TO.P,C4,2*%
%TO.N,GND*%
X183210000Y-76839063D03*
D16*
%TO.P,C4,1*%
%TO.N,Net-(C4-Pad1)*%
X180010000Y-80680937D03*
D15*
%TO.P,C4,2*%
%TO.N,GND*%
X181610000Y-77510000D03*
D16*
%TO.P,C4,1*%
%TO.N,Net-(C4-Pad1)*%
X181610000Y-80010000D03*
%TD*%
D15*
%TO.P,C2,2*%
%TO.N,GND*%
X142570000Y-94619063D03*
D16*
%TO.P,C2,1*%
%TO.N,+5V*%
X139370000Y-98460937D03*
D15*
%TO.P,C2,2*%
%TO.N,GND*%
X140970000Y-95290000D03*
D16*
%TO.P,C2,1*%
%TO.N,+5V*%
X140970000Y-97790000D03*
%TD*%
D15*
%TO.P,C1,2*%
%TO.N,GND*%
X130810000Y-95290000D03*
%TO.P,C1,1*%
%TO.N,+5V*%
X130810000Y-97790000D03*
%TD*%
D26*
%TO.N,Net-(A1-Pad15)*%
X95250000Y-81280000D03*
X107950000Y-81280000D03*
X143510000Y-80010000D03*
%TO.N,Net-(A1-Pad12)*%
X113030000Y-83820000D03*
%TO.N,Net-(J7-Pad4)*%
X140970000Y-83820000D03*
%TO.N,Net-(J7-Pad2)*%
X129540000Y-86360000D03*
%TD*%
D27*
%TO.N,Net-(A1-Pad15)*%
X95250000Y-81280000D02*
X107950000Y-81280000D01*
X143510000Y-80010000D02*
X158750000Y-80010000D01*
X163830000Y-85090000D02*
X163830000Y-92710000D01*
X158750000Y-80010000D02*
X163830000Y-85090000D01*
%TO.N,Net-(A1-Pad12)*%
X113030000Y-83820000D02*
X92710000Y-83820000D01*
X92710000Y-83820000D02*
X90170000Y-86360000D01*
X90170000Y-86360000D02*
X90170000Y-88900000D01*
D28*
%TO.N,+5V*%
X151130000Y-109220000D02*
X151130000Y-100330000D01*
X157480000Y-115570000D02*
X151130000Y-109220000D01*
X182880000Y-115570000D02*
X157480000Y-115570000D01*
D27*
%TO.N,Net-(A1-Pad6)*%
X101600000Y-116840000D02*
X101600000Y-99060000D01*
X101600000Y-99060000D02*
X105410000Y-95250000D01*
X105410000Y-95250000D02*
X105410000Y-88900000D01*
%TO.N,Net-(J1-Pad6)*%
X133350000Y-109220000D02*
X133350000Y-106680000D01*
X133350000Y-106680000D02*
X129540000Y-102870000D01*
X129540000Y-102870000D02*
X125730000Y-102870000D01*
X125730000Y-102870000D02*
X121920000Y-99060000D01*
X121920000Y-99060000D02*
X121920000Y-82550000D01*
X121920000Y-82550000D02*
X118110000Y-78740000D01*
%TO.N,Net-(J2-Pad6)*%
X129540000Y-109220000D02*
X129540000Y-113030000D01*
X129540000Y-113030000D02*
X125730000Y-116840000D01*
X125730000Y-116840000D02*
X113030000Y-116840000D01*
X113030000Y-116840000D02*
X110490000Y-119380000D01*
X110490000Y-119380000D02*
X95250000Y-119380000D01*
X93980000Y-118110000D02*
X93980000Y-116840000D01*
X95250000Y-119380000D02*
X93980000Y-118110000D01*
%TO.N,Net-(J7-Pad4)*%
X140970000Y-83820000D02*
X132080000Y-74930000D01*
%TO.N,Net-(J7-Pad2)*%
X129540000Y-86360000D02*
X128270000Y-86360000D01*
X128270000Y-86360000D02*
X127000000Y-85090000D01*
X127000000Y-85090000D02*
X127000000Y-74930000D01*
%TD*%
D29*
%TO.N,GND*%
X222178083Y-69301173D02*
X222921891Y-69504656D01*
X223617905Y-69836638D01*
X224244130Y-70286626D01*
X224780777Y-70840403D01*
X225210871Y-71480451D01*
X225520829Y-72186553D01*
X225702065Y-72941457D01*
X225750000Y-73594207D01*
X225750001Y-118540597D01*
X225678827Y-119338083D01*
X225475344Y-120081890D01*
X225143363Y-120777904D01*
X224693374Y-121404130D01*
X224139597Y-121940777D01*
X223499549Y-122370871D01*
X222793447Y-122680829D01*
X222038543Y-122862065D01*
X221385793Y-122910000D01*
X81439392Y-122910000D01*
X80641917Y-122838827D01*
X79898110Y-122635344D01*
X79202096Y-122303363D01*
X78575870Y-121853374D01*
X78039223Y-121299597D01*
X77609129Y-120659549D01*
X77299171Y-119953447D01*
X77117935Y-119198543D01*
X77070000Y-118545793D01*
X77070000Y-118295701D01*
X78625000Y-118295701D01*
X78625000Y-118844299D01*
X78732026Y-119382354D01*
X78941965Y-119889192D01*
X79246750Y-120345334D01*
X79634666Y-120733250D01*
X80090808Y-121038035D01*
X80597646Y-121247974D01*
X81135701Y-121355000D01*
X81684299Y-121355000D01*
X82222354Y-121247974D01*
X82729192Y-121038035D01*
X83185334Y-120733250D01*
X83573250Y-120345334D01*
X83878035Y-119889192D01*
X84087974Y-119382354D01*
X84195000Y-118844299D01*
X84195000Y-118295701D01*
X84087974Y-117757646D01*
X83878035Y-117250808D01*
X83573250Y-116794666D01*
X83185334Y-116406750D01*
X82729192Y-116101965D01*
X82222354Y-115892026D01*
X81684299Y-115785000D01*
X81135701Y-115785000D01*
X80597646Y-115892026D01*
X80090808Y-116101965D01*
X79634666Y-116406750D01*
X79246750Y-116794666D01*
X78941965Y-117250808D01*
X78732026Y-117757646D01*
X78625000Y-118295701D01*
X77070000Y-118295701D01*
X77070000Y-88758665D01*
X81115000Y-88758665D01*
X81115000Y-89041335D01*
X81170147Y-89318574D01*
X81278320Y-89579727D01*
X81435363Y-89814759D01*
X81635241Y-90014637D01*
X81870273Y-90171680D01*
X82131426Y-90279853D01*
X82408665Y-90335000D01*
X82691335Y-90335000D01*
X82968574Y-90279853D01*
X83229727Y-90171680D01*
X83464759Y-90014637D01*
X83664637Y-89814759D01*
X83820000Y-89582241D01*
X83975363Y-89814759D01*
X84175241Y-90014637D01*
X84410273Y-90171680D01*
X84671426Y-90279853D01*
X84948665Y-90335000D01*
X85231335Y-90335000D01*
X85508574Y-90279853D01*
X85769727Y-90171680D01*
X86004759Y-90014637D01*
X86204637Y-89814759D01*
X86360000Y-89582241D01*
X86515363Y-89814759D01*
X86715241Y-90014637D01*
X86950273Y-90171680D01*
X87211426Y-90279853D01*
X87488665Y-90335000D01*
X87771335Y-90335000D01*
X88048574Y-90279853D01*
X88309727Y-90171680D01*
X88544759Y-90014637D01*
X88744637Y-89814759D01*
X88900000Y-89582241D01*
X89055363Y-89814759D01*
X89255241Y-90014637D01*
X89490273Y-90171680D01*
X89751426Y-90279853D01*
X90028665Y-90335000D01*
X90311335Y-90335000D01*
X90588574Y-90279853D01*
X90849727Y-90171680D01*
X91084759Y-90014637D01*
X91284637Y-89814759D01*
X91440000Y-89582241D01*
X91595363Y-89814759D01*
X91795241Y-90014637D01*
X92030273Y-90171680D01*
X92291426Y-90279853D01*
X92568665Y-90335000D01*
X92851335Y-90335000D01*
X93128574Y-90279853D01*
X93389727Y-90171680D01*
X93624759Y-90014637D01*
X93824637Y-89814759D01*
X93980000Y-89582241D01*
X94135363Y-89814759D01*
X94335241Y-90014637D01*
X94570273Y-90171680D01*
X94831426Y-90279853D01*
X95108665Y-90335000D01*
X95391335Y-90335000D01*
X95668574Y-90279853D01*
X95929727Y-90171680D01*
X96164759Y-90014637D01*
X96364637Y-89814759D01*
X96520000Y-89582241D01*
X96675363Y-89814759D01*
X96875241Y-90014637D01*
X97110273Y-90171680D01*
X97371426Y-90279853D01*
X97648665Y-90335000D01*
X97931335Y-90335000D01*
X98208574Y-90279853D01*
X98469727Y-90171680D01*
X98704759Y-90014637D01*
X98904637Y-89814759D01*
X99060000Y-89582241D01*
X99215363Y-89814759D01*
X99415241Y-90014637D01*
X99650273Y-90171680D01*
X99911426Y-90279853D01*
X100188665Y-90335000D01*
X100471335Y-90335000D01*
X100748574Y-90279853D01*
X101009727Y-90171680D01*
X101244759Y-90014637D01*
X101444637Y-89814759D01*
X101600000Y-89582241D01*
X101755363Y-89814759D01*
X101955241Y-90014637D01*
X102190273Y-90171680D01*
X102451426Y-90279853D01*
X102728665Y-90335000D01*
X103011335Y-90335000D01*
X103288574Y-90279853D01*
X103549727Y-90171680D01*
X103784759Y-90014637D01*
X103984637Y-89814759D01*
X104140000Y-89582241D01*
X104295363Y-89814759D01*
X104495241Y-90014637D01*
X104650001Y-90118044D01*
X104650000Y-94935198D01*
X101088998Y-98496201D01*
X101060000Y-98519999D01*
X101036202Y-98548997D01*
X101036201Y-98548998D01*
X100965026Y-98635724D01*
X100894454Y-98767754D01*
X100874305Y-98834180D01*
X100850998Y-98911014D01*
X100840001Y-99022667D01*
X100836324Y-99060000D01*
X100840001Y-99097332D01*
X100840001Y-102798017D01*
X100748574Y-102760147D01*
X100471335Y-102705000D01*
X100188665Y-102705000D01*
X99911426Y-102760147D01*
X99650273Y-102868320D01*
X99415241Y-103025363D01*
X99215363Y-103225241D01*
X99060000Y-103457759D01*
X98904637Y-103225241D01*
X98704759Y-103025363D01*
X98469727Y-102868320D01*
X98208574Y-102760147D01*
X97931335Y-102705000D01*
X97648665Y-102705000D01*
X97371426Y-102760147D01*
X97110273Y-102868320D01*
X96875241Y-103025363D01*
X96675363Y-103225241D01*
X96520000Y-103457759D01*
X96364637Y-103225241D01*
X96164759Y-103025363D01*
X95929727Y-102868320D01*
X95668574Y-102760147D01*
X95391335Y-102705000D01*
X95108665Y-102705000D01*
X94831426Y-102760147D01*
X94570273Y-102868320D01*
X94335241Y-103025363D01*
X94135363Y-103225241D01*
X93980000Y-103457759D01*
X93824637Y-103225241D01*
X93624759Y-103025363D01*
X93389727Y-102868320D01*
X93128574Y-102760147D01*
X92851335Y-102705000D01*
X92568665Y-102705000D01*
X92291426Y-102760147D01*
X92030273Y-102868320D01*
X91795241Y-103025363D01*
X91595363Y-103225241D01*
X91440000Y-103457759D01*
X91284637Y-103225241D01*
X91084759Y-103025363D01*
X90849727Y-102868320D01*
X90588574Y-102760147D01*
X90311335Y-102705000D01*
X90028665Y-102705000D01*
X89751426Y-102760147D01*
X89490273Y-102868320D01*
X89255241Y-103025363D01*
X89055363Y-103225241D01*
X88900000Y-103457759D01*
X88744637Y-103225241D01*
X88544759Y-103025363D01*
X88309727Y-102868320D01*
X88048574Y-102760147D01*
X87771335Y-102705000D01*
X87488665Y-102705000D01*
X87211426Y-102760147D01*
X86950273Y-102868320D01*
X86715241Y-103025363D01*
X86515363Y-103225241D01*
X86360000Y-103457759D01*
X86204637Y-103225241D01*
X86004759Y-103025363D01*
X85769727Y-102868320D01*
X85508574Y-102760147D01*
X85231335Y-102705000D01*
X84948665Y-102705000D01*
X84671426Y-102760147D01*
X84410273Y-102868320D01*
X84175241Y-103025363D01*
X83975363Y-103225241D01*
X83820000Y-103457759D01*
X83664637Y-103225241D01*
X83464759Y-103025363D01*
X83229727Y-102868320D01*
X82968574Y-102760147D01*
X82691335Y-102705000D01*
X82408665Y-102705000D01*
X82131426Y-102760147D01*
X81870273Y-102868320D01*
X81635241Y-103025363D01*
X81435363Y-103225241D01*
X81278320Y-103460273D01*
X81170147Y-103721426D01*
X81115000Y-103998665D01*
X81115000Y-104281335D01*
X81170147Y-104558574D01*
X81278320Y-104819727D01*
X81435363Y-105054759D01*
X81635241Y-105254637D01*
X81870273Y-105411680D01*
X82131426Y-105519853D01*
X82408665Y-105575000D01*
X82691335Y-105575000D01*
X82968574Y-105519853D01*
X83229727Y-105411680D01*
X83464759Y-105254637D01*
X83664637Y-105054759D01*
X83820000Y-104822241D01*
X83975363Y-105054759D01*
X84175241Y-105254637D01*
X84410273Y-105411680D01*
X84671426Y-105519853D01*
X84948665Y-105575000D01*
X85231335Y-105575000D01*
X85508574Y-105519853D01*
X85769727Y-105411680D01*
X86004759Y-105254637D01*
X86204637Y-105054759D01*
X86360000Y-104822241D01*
X86515363Y-105054759D01*
X86715241Y-105254637D01*
X86950273Y-105411680D01*
X87211426Y-105519853D01*
X87488665Y-105575000D01*
X87771335Y-105575000D01*
X88048574Y-105519853D01*
X88309727Y-105411680D01*
X88544759Y-105254637D01*
X88744637Y-105054759D01*
X88900000Y-104822241D01*
X89055363Y-105054759D01*
X89255241Y-105254637D01*
X89490273Y-105411680D01*
X89751426Y-105519853D01*
X90028665Y-105575000D01*
X90311335Y-105575000D01*
X90588574Y-105519853D01*
X90849727Y-105411680D01*
X91084759Y-105254637D01*
X91284637Y-105054759D01*
X91440000Y-104822241D01*
X91595363Y-105054759D01*
X91795241Y-105254637D01*
X92030273Y-105411680D01*
X92291426Y-105519853D01*
X92568665Y-105575000D01*
X92851335Y-105575000D01*
X93128574Y-105519853D01*
X93389727Y-105411680D01*
X93624759Y-105254637D01*
X93824637Y-105054759D01*
X93980000Y-104822241D01*
X94135363Y-105054759D01*
X94335241Y-105254637D01*
X94570273Y-105411680D01*
X94831426Y-105519853D01*
X95108665Y-105575000D01*
X95391335Y-105575000D01*
X95668574Y-105519853D01*
X95929727Y-105411680D01*
X96164759Y-105254637D01*
X96364637Y-105054759D01*
X96520000Y-104822241D01*
X96675363Y-105054759D01*
X96875241Y-105254637D01*
X97110273Y-105411680D01*
X97371426Y-105519853D01*
X97648665Y-105575000D01*
X97931335Y-105575000D01*
X98208574Y-105519853D01*
X98469727Y-105411680D01*
X98704759Y-105254637D01*
X98904637Y-105054759D01*
X99060000Y-104822241D01*
X99215363Y-105054759D01*
X99415241Y-105254637D01*
X99650273Y-105411680D01*
X99911426Y-105519853D01*
X100188665Y-105575000D01*
X100471335Y-105575000D01*
X100748574Y-105519853D01*
X100840001Y-105481983D01*
X100840000Y-115330971D01*
X100801853Y-115346772D01*
X100525875Y-115531175D01*
X100330000Y-115727050D01*
X100134125Y-115531175D01*
X99858147Y-115346772D01*
X99551496Y-115219754D01*
X99225958Y-115155000D01*
X98894042Y-115155000D01*
X98568504Y-115219754D01*
X98261853Y-115346772D01*
X97985875Y-115531175D01*
X97790000Y-115727050D01*
X97594125Y-115531175D01*
X97318147Y-115346772D01*
X97011496Y-115219754D01*
X96685958Y-115155000D01*
X96354042Y-115155000D01*
X96028504Y-115219754D01*
X95721853Y-115346772D01*
X95445875Y-115531175D01*
X95250000Y-115727050D01*
X95054125Y-115531175D01*
X94778147Y-115346772D01*
X94471496Y-115219754D01*
X94145958Y-115155000D01*
X93814042Y-115155000D01*
X93488504Y-115219754D01*
X93181853Y-115346772D01*
X92905875Y-115531175D01*
X92710000Y-115727050D01*
X92514125Y-115531175D01*
X92238147Y-115346772D01*
X91931496Y-115219754D01*
X91605958Y-115155000D01*
X91274042Y-115155000D01*
X90948504Y-115219754D01*
X90641853Y-115346772D01*
X90365875Y-115531175D01*
X90131175Y-115765875D01*
X89946772Y-116041853D01*
X89819754Y-116348504D01*
X89755000Y-116674042D01*
X89755000Y-117005958D01*
X89819754Y-117331496D01*
X89946772Y-117638147D01*
X90131175Y-117914125D01*
X90365875Y-118148825D01*
X90641853Y-118333228D01*
X90948504Y-118460246D01*
X91274042Y-118525000D01*
X91605958Y-118525000D01*
X91931496Y-118460246D01*
X92238147Y-118333228D01*
X92514125Y-118148825D01*
X92710000Y-117952950D01*
X92905875Y-118148825D01*
X93181853Y-118333228D01*
X93263817Y-118367178D01*
X93274454Y-118402246D01*
X93345026Y-118534276D01*
X93384871Y-118582826D01*
X93439999Y-118650001D01*
X93469003Y-118673804D01*
X94686201Y-119891003D01*
X94709999Y-119920001D01*
X94825724Y-120014974D01*
X94957753Y-120085546D01*
X95101014Y-120129003D01*
X95212667Y-120140000D01*
X95212676Y-120140000D01*
X95249999Y-120143676D01*
X95287322Y-120140000D01*
X110452678Y-120140000D01*
X110490000Y-120143676D01*
X110527322Y-120140000D01*
X110527333Y-120140000D01*
X110638986Y-120129003D01*
X110782247Y-120085546D01*
X110914276Y-120014974D01*
X111030001Y-119920001D01*
X111053804Y-119890997D01*
X111706136Y-119238665D01*
X120485000Y-119238665D01*
X120485000Y-119521335D01*
X120540147Y-119798574D01*
X120648320Y-120059727D01*
X120805363Y-120294759D01*
X121005241Y-120494637D01*
X121240273Y-120651680D01*
X121501426Y-120759853D01*
X121778665Y-120815000D01*
X122061335Y-120815000D01*
X122338574Y-120759853D01*
X122599727Y-120651680D01*
X122834759Y-120494637D01*
X123034637Y-120294759D01*
X123191680Y-120059727D01*
X123299853Y-119798574D01*
X123355000Y-119521335D01*
X123355000Y-119238665D01*
X124295000Y-119238665D01*
X124295000Y-119521335D01*
X124350147Y-119798574D01*
X124458320Y-120059727D01*
X124615363Y-120294759D01*
X124815241Y-120494637D01*
X125050273Y-120651680D01*
X125311426Y-120759853D01*
X125588665Y-120815000D01*
X125871335Y-120815000D01*
X126148574Y-120759853D01*
X126409727Y-120651680D01*
X126644759Y-120494637D01*
X126844637Y-120294759D01*
X127001680Y-120059727D01*
X127109853Y-119798574D01*
X127165000Y-119521335D01*
X127165000Y-119238665D01*
X128105000Y-119238665D01*
X128105000Y-119521335D01*
X128160147Y-119798574D01*
X128268320Y-120059727D01*
X128425363Y-120294759D01*
X128625241Y-120494637D01*
X128860273Y-120651680D01*
X129121426Y-120759853D01*
X129398665Y-120815000D01*
X129681335Y-120815000D01*
X129958574Y-120759853D01*
X130219727Y-120651680D01*
X130454759Y-120494637D01*
X130654637Y-120294759D01*
X130811680Y-120059727D01*
X130919853Y-119798574D01*
X130975000Y-119521335D01*
X130975000Y-119238665D01*
X131915000Y-119238665D01*
X131915000Y-119521335D01*
X131970147Y-119798574D01*
X132078320Y-120059727D01*
X132235363Y-120294759D01*
X132435241Y-120494637D01*
X132670273Y-120651680D01*
X132931426Y-120759853D01*
X133208665Y-120815000D01*
X133491335Y-120815000D01*
X133768574Y-120759853D01*
X134029727Y-120651680D01*
X134264759Y-120494637D01*
X134464637Y-120294759D01*
X134621680Y-120059727D01*
X134729853Y-119798574D01*
X134785000Y-119521335D01*
X134785000Y-119238665D01*
X134729853Y-118961426D01*
X134621680Y-118700273D01*
X134464637Y-118465241D01*
X134295097Y-118295701D01*
X218625000Y-118295701D01*
X218625000Y-118844299D01*
X218732026Y-119382354D01*
X218941965Y-119889192D01*
X219246750Y-120345334D01*
X219634666Y-120733250D01*
X220090808Y-121038035D01*
X220597646Y-121247974D01*
X221135701Y-121355000D01*
X221684299Y-121355000D01*
X222222354Y-121247974D01*
X222729192Y-121038035D01*
X223185334Y-120733250D01*
X223573250Y-120345334D01*
X223878035Y-119889192D01*
X224087974Y-119382354D01*
X224195000Y-118844299D01*
X224195000Y-118295701D01*
X224087974Y-117757646D01*
X223878035Y-117250808D01*
X223573250Y-116794666D01*
X223185334Y-116406750D01*
X222729192Y-116101965D01*
X222222354Y-115892026D01*
X221684299Y-115785000D01*
X221135701Y-115785000D01*
X220597646Y-115892026D01*
X220090808Y-116101965D01*
X219634666Y-116406750D01*
X219246750Y-116794666D01*
X218941965Y-117250808D01*
X218732026Y-117757646D01*
X218625000Y-118295701D01*
X134295097Y-118295701D01*
X134264759Y-118265363D01*
X134029727Y-118108320D01*
X133768574Y-118000147D01*
X133491335Y-117945000D01*
X133208665Y-117945000D01*
X132931426Y-118000147D01*
X132670273Y-118108320D01*
X132435241Y-118265363D01*
X132235363Y-118465241D01*
X132078320Y-118700273D01*
X131970147Y-118961426D01*
X131915000Y-119238665D01*
X130975000Y-119238665D01*
X130919853Y-118961426D01*
X130811680Y-118700273D01*
X130654637Y-118465241D01*
X130454759Y-118265363D01*
X130219727Y-118108320D01*
X129958574Y-118000147D01*
X129681335Y-117945000D01*
X129398665Y-117945000D01*
X129121426Y-118000147D01*
X128860273Y-118108320D01*
X128625241Y-118265363D01*
X128425363Y-118465241D01*
X128268320Y-118700273D01*
X128160147Y-118961426D01*
X128105000Y-119238665D01*
X127165000Y-119238665D01*
X127109853Y-118961426D01*
X127001680Y-118700273D01*
X126844637Y-118465241D01*
X126644759Y-118265363D01*
X126409727Y-118108320D01*
X126148574Y-118000147D01*
X125871335Y-117945000D01*
X125588665Y-117945000D01*
X125311426Y-118000147D01*
X125050273Y-118108320D01*
X124815241Y-118265363D01*
X124615363Y-118465241D01*
X124458320Y-118700273D01*
X124350147Y-118961426D01*
X124295000Y-119238665D01*
X123355000Y-119238665D01*
X123299853Y-118961426D01*
X123191680Y-118700273D01*
X123034637Y-118465241D01*
X122834759Y-118265363D01*
X122599727Y-118108320D01*
X122338574Y-118000147D01*
X122061335Y-117945000D01*
X121778665Y-117945000D01*
X121501426Y-118000147D01*
X121240273Y-118108320D01*
X121005241Y-118265363D01*
X120805363Y-118465241D01*
X120648320Y-118700273D01*
X120540147Y-118961426D01*
X120485000Y-119238665D01*
X111706136Y-119238665D01*
X113344803Y-117600000D01*
X125692678Y-117600000D01*
X125730000Y-117603676D01*
X125767322Y-117600000D01*
X125767333Y-117600000D01*
X125878986Y-117589003D01*
X126022247Y-117545546D01*
X126154276Y-117474974D01*
X126270001Y-117380001D01*
X126293804Y-117350997D01*
X130051003Y-113593799D01*
X130080001Y-113570001D01*
X130174974Y-113454276D01*
X130245546Y-113322247D01*
X130289003Y-113178986D01*
X130300000Y-113067333D01*
X130300000Y-113067325D01*
X130303676Y-113030000D01*
X130300000Y-112992675D01*
X130300000Y-110438043D01*
X130454759Y-110334637D01*
X130654637Y-110134759D01*
X130811680Y-109899727D01*
X130919853Y-109638574D01*
X130975000Y-109361335D01*
X130975000Y-109078665D01*
X130919853Y-108801426D01*
X130811680Y-108540273D01*
X130654637Y-108305241D01*
X130454759Y-108105363D01*
X130219727Y-107948320D01*
X129958574Y-107840147D01*
X129681335Y-107785000D01*
X129398665Y-107785000D01*
X129121426Y-107840147D01*
X128860273Y-107948320D01*
X128625241Y-108105363D01*
X128425363Y-108305241D01*
X128268320Y-108540273D01*
X128160147Y-108801426D01*
X128105000Y-109078665D01*
X128105000Y-109361335D01*
X128160147Y-109638574D01*
X128268320Y-109899727D01*
X128425363Y-110134759D01*
X128625241Y-110334637D01*
X128780000Y-110438044D01*
X128780001Y-112715197D01*
X125415199Y-116080000D01*
X113067322Y-116080000D01*
X113029999Y-116076324D01*
X112992676Y-116080000D01*
X112992667Y-116080000D01*
X112881014Y-116090997D01*
X112737753Y-116134454D01*
X112605724Y-116205026D01*
X112605722Y-116205027D01*
X112605723Y-116205027D01*
X112518996Y-116276201D01*
X112518992Y-116276205D01*
X112489999Y-116299999D01*
X112466205Y-116328992D01*
X110175199Y-118620000D01*
X95564802Y-118620000D01*
X95073876Y-118129074D01*
X95250000Y-117952950D01*
X95445875Y-118148825D01*
X95721853Y-118333228D01*
X96028504Y-118460246D01*
X96354042Y-118525000D01*
X96685958Y-118525000D01*
X97011496Y-118460246D01*
X97318147Y-118333228D01*
X97594125Y-118148825D01*
X97790000Y-117952950D01*
X97985875Y-118148825D01*
X98261853Y-118333228D01*
X98568504Y-118460246D01*
X98894042Y-118525000D01*
X99225958Y-118525000D01*
X99551496Y-118460246D01*
X99858147Y-118333228D01*
X100134125Y-118148825D01*
X100330000Y-117952950D01*
X100525875Y-118148825D01*
X100801853Y-118333228D01*
X101108504Y-118460246D01*
X101434042Y-118525000D01*
X101765958Y-118525000D01*
X102091496Y-118460246D01*
X102398147Y-118333228D01*
X102674125Y-118148825D01*
X102870000Y-117952950D01*
X103065875Y-118148825D01*
X103341853Y-118333228D01*
X103648504Y-118460246D01*
X103974042Y-118525000D01*
X104305958Y-118525000D01*
X104631496Y-118460246D01*
X104938147Y-118333228D01*
X105091958Y-118230454D01*
X105099463Y-118244494D01*
X105178815Y-118341185D01*
X105275506Y-118420537D01*
X105385820Y-118479502D01*
X105505518Y-118515812D01*
X105630000Y-118528072D01*
X106394250Y-118525000D01*
X106553000Y-118366250D01*
X106553000Y-116967000D01*
X106807000Y-116967000D01*
X106807000Y-118366250D01*
X106965750Y-118525000D01*
X107730000Y-118528072D01*
X107854482Y-118515812D01*
X107974180Y-118479502D01*
X108084494Y-118420537D01*
X108181185Y-118341185D01*
X108260537Y-118244494D01*
X108319502Y-118134180D01*
X108355812Y-118014482D01*
X108368072Y-117890000D01*
X108365000Y-117125750D01*
X108206250Y-116967000D01*
X106807000Y-116967000D01*
X106553000Y-116967000D01*
X106533000Y-116967000D01*
X106533000Y-116713000D01*
X106553000Y-116713000D01*
X106553000Y-115313750D01*
X106807000Y-115313750D01*
X106807000Y-116713000D01*
X108206250Y-116713000D01*
X108365000Y-116554250D01*
X108368072Y-115790000D01*
X108355812Y-115665518D01*
X108319502Y-115545820D01*
X108260537Y-115435506D01*
X108181185Y-115338815D01*
X108084494Y-115259463D01*
X107974180Y-115200498D01*
X107854482Y-115164188D01*
X107730000Y-115151928D01*
X106965750Y-115155000D01*
X106807000Y-115313750D01*
X106553000Y-115313750D01*
X106394250Y-115155000D01*
X105630000Y-115151928D01*
X105505518Y-115164188D01*
X105385820Y-115200498D01*
X105275506Y-115259463D01*
X105178815Y-115338815D01*
X105099463Y-115435506D01*
X105091958Y-115449546D01*
X104938147Y-115346772D01*
X104631496Y-115219754D01*
X104305958Y-115155000D01*
X103974042Y-115155000D01*
X103648504Y-115219754D01*
X103341853Y-115346772D01*
X103065875Y-115531175D01*
X102870000Y-115727050D01*
X102674125Y-115531175D01*
X102398147Y-115346772D01*
X102360000Y-115330971D01*
X102360000Y-109569040D01*
X120528091Y-109569040D01*
X120622930Y-109833881D01*
X120767615Y-110075131D01*
X120956586Y-110283519D01*
X121182580Y-110451037D01*
X121436913Y-110571246D01*
X121570961Y-110611904D01*
X121793000Y-110489915D01*
X121793000Y-109347000D01*
X122047000Y-109347000D01*
X122047000Y-110489915D01*
X122269039Y-110611904D01*
X122403087Y-110571246D01*
X122657420Y-110451037D01*
X122883414Y-110283519D01*
X123072385Y-110075131D01*
X123217070Y-109833881D01*
X123311909Y-109569040D01*
X123190624Y-109347000D01*
X122047000Y-109347000D01*
X121793000Y-109347000D01*
X120649376Y-109347000D01*
X120528091Y-109569040D01*
X102360000Y-109569040D01*
X102360000Y-108870960D01*
X120528091Y-108870960D01*
X120649376Y-109093000D01*
X121793000Y-109093000D01*
X121793000Y-107950085D01*
X122047000Y-107950085D01*
X122047000Y-109093000D01*
X123190624Y-109093000D01*
X123198454Y-109078665D01*
X124295000Y-109078665D01*
X124295000Y-109361335D01*
X124350147Y-109638574D01*
X124458320Y-109899727D01*
X124615363Y-110134759D01*
X124815241Y-110334637D01*
X125050273Y-110491680D01*
X125311426Y-110599853D01*
X125588665Y-110655000D01*
X125871335Y-110655000D01*
X126148574Y-110599853D01*
X126409727Y-110491680D01*
X126644759Y-110334637D01*
X126844637Y-110134759D01*
X127001680Y-109899727D01*
X127109853Y-109638574D01*
X127165000Y-109361335D01*
X127165000Y-109078665D01*
X127109853Y-108801426D01*
X127001680Y-108540273D01*
X126844637Y-108305241D01*
X126644759Y-108105363D01*
X126409727Y-107948320D01*
X126148574Y-107840147D01*
X125871335Y-107785000D01*
X125588665Y-107785000D01*
X125311426Y-107840147D01*
X125050273Y-107948320D01*
X124815241Y-108105363D01*
X124615363Y-108305241D01*
X124458320Y-108540273D01*
X124350147Y-108801426D01*
X124295000Y-109078665D01*
X123198454Y-109078665D01*
X123311909Y-108870960D01*
X123217070Y-108606119D01*
X123072385Y-108364869D01*
X122883414Y-108156481D01*
X122657420Y-107988963D01*
X122403087Y-107868754D01*
X122269039Y-107828096D01*
X122047000Y-107950085D01*
X121793000Y-107950085D01*
X121570961Y-107828096D01*
X121436913Y-107868754D01*
X121182580Y-107988963D01*
X120956586Y-108156481D01*
X120767615Y-108364869D01*
X120622930Y-108606119D01*
X120528091Y-108870960D01*
X102360000Y-108870960D01*
X102360000Y-105481983D01*
X102451426Y-105519853D01*
X102728665Y-105575000D01*
X103011335Y-105575000D01*
X103288574Y-105519853D01*
X103549727Y-105411680D01*
X103784759Y-105254637D01*
X103984637Y-105054759D01*
X104140000Y-104822241D01*
X104295363Y-105054759D01*
X104495241Y-105254637D01*
X104730273Y-105411680D01*
X104991426Y-105519853D01*
X105268665Y-105575000D01*
X105551335Y-105575000D01*
X105828574Y-105519853D01*
X106089727Y-105411680D01*
X106324759Y-105254637D01*
X106524637Y-105054759D01*
X106680000Y-104822241D01*
X106835363Y-105054759D01*
X107035241Y-105254637D01*
X107270273Y-105411680D01*
X107531426Y-105519853D01*
X107808665Y-105575000D01*
X108091335Y-105575000D01*
X108368574Y-105519853D01*
X108629727Y-105411680D01*
X108864759Y-105254637D01*
X109064637Y-105054759D01*
X109220000Y-104822241D01*
X109375363Y-105054759D01*
X109575241Y-105254637D01*
X109810273Y-105411680D01*
X110071426Y-105519853D01*
X110348665Y-105575000D01*
X110631335Y-105575000D01*
X110908574Y-105519853D01*
X111169727Y-105411680D01*
X111404759Y-105254637D01*
X111604637Y-105054759D01*
X111760000Y-104822241D01*
X111915363Y-105054759D01*
X112115241Y-105254637D01*
X112350273Y-105411680D01*
X112611426Y-105519853D01*
X112888665Y-105575000D01*
X113171335Y-105575000D01*
X113448574Y-105519853D01*
X113709727Y-105411680D01*
X113944759Y-105254637D01*
X114144637Y-105054759D01*
X114301680Y-104819727D01*
X114306067Y-104809135D01*
X114417615Y-104995131D01*
X114606586Y-105203519D01*
X114832580Y-105371037D01*
X115086913Y-105491246D01*
X115220961Y-105531904D01*
X115443000Y-105409915D01*
X115443000Y-104267000D01*
X115423000Y-104267000D01*
X115423000Y-104013000D01*
X115443000Y-104013000D01*
X115443000Y-102870085D01*
X115697000Y-102870085D01*
X115697000Y-104013000D01*
X115717000Y-104013000D01*
X115717000Y-104267000D01*
X115697000Y-104267000D01*
X115697000Y-105409915D01*
X115919039Y-105531904D01*
X116053087Y-105491246D01*
X116307420Y-105371037D01*
X116533414Y-105203519D01*
X116722385Y-104995131D01*
X116833933Y-104809135D01*
X116838320Y-104819727D01*
X116995363Y-105054759D01*
X117195241Y-105254637D01*
X117430273Y-105411680D01*
X117691426Y-105519853D01*
X117968665Y-105575000D01*
X118251335Y-105575000D01*
X118528574Y-105519853D01*
X118789727Y-105411680D01*
X119024759Y-105254637D01*
X119224637Y-105054759D01*
X119381680Y-104819727D01*
X119489853Y-104558574D01*
X119545000Y-104281335D01*
X119545000Y-103998665D01*
X119489853Y-103721426D01*
X119381680Y-103460273D01*
X119224637Y-103225241D01*
X119024759Y-103025363D01*
X118789727Y-102868320D01*
X118528574Y-102760147D01*
X118251335Y-102705000D01*
X117968665Y-102705000D01*
X117691426Y-102760147D01*
X117430273Y-102868320D01*
X117195241Y-103025363D01*
X116995363Y-103225241D01*
X116838320Y-103460273D01*
X116833933Y-103470865D01*
X116722385Y-103284869D01*
X116533414Y-103076481D01*
X116307420Y-102908963D01*
X116053087Y-102788754D01*
X115919039Y-102748096D01*
X115697000Y-102870085D01*
X115443000Y-102870085D01*
X115220961Y-102748096D01*
X115086913Y-102788754D01*
X114832580Y-102908963D01*
X114606586Y-103076481D01*
X114417615Y-103284869D01*
X114306067Y-103470865D01*
X114301680Y-103460273D01*
X114144637Y-103225241D01*
X113944759Y-103025363D01*
X113709727Y-102868320D01*
X113448574Y-102760147D01*
X113171335Y-102705000D01*
X112888665Y-102705000D01*
X112611426Y-102760147D01*
X112350273Y-102868320D01*
X112115241Y-103025363D01*
X111915363Y-103225241D01*
X111760000Y-103457759D01*
X111604637Y-103225241D01*
X111404759Y-103025363D01*
X111169727Y-102868320D01*
X110908574Y-102760147D01*
X110631335Y-102705000D01*
X110348665Y-102705000D01*
X110071426Y-102760147D01*
X109810273Y-102868320D01*
X109575241Y-103025363D01*
X109375363Y-103225241D01*
X109220000Y-103457759D01*
X109064637Y-103225241D01*
X108864759Y-103025363D01*
X108629727Y-102868320D01*
X108368574Y-102760147D01*
X108091335Y-102705000D01*
X107808665Y-102705000D01*
X107531426Y-102760147D01*
X107270273Y-102868320D01*
X107035241Y-103025363D01*
X106835363Y-103225241D01*
X106680000Y-103457759D01*
X106524637Y-103225241D01*
X106324759Y-103025363D01*
X106089727Y-102868320D01*
X105828574Y-102760147D01*
X105551335Y-102705000D01*
X105268665Y-102705000D01*
X104991426Y-102760147D01*
X104730273Y-102868320D01*
X104495241Y-103025363D01*
X104295363Y-103225241D01*
X104140000Y-103457759D01*
X103984637Y-103225241D01*
X103784759Y-103025363D01*
X103549727Y-102868320D01*
X103288574Y-102760147D01*
X103011335Y-102705000D01*
X102728665Y-102705000D01*
X102451426Y-102760147D01*
X102360000Y-102798017D01*
X102360000Y-99374801D01*
X105921004Y-95813798D01*
X105950001Y-95790001D01*
X106044974Y-95674276D01*
X106115546Y-95542247D01*
X106159003Y-95398986D01*
X106170000Y-95287333D01*
X106170000Y-95287325D01*
X106173676Y-95250000D01*
X106170000Y-95212675D01*
X106170000Y-90118043D01*
X106324759Y-90014637D01*
X106524637Y-89814759D01*
X106680000Y-89582241D01*
X106835363Y-89814759D01*
X107035241Y-90014637D01*
X107270273Y-90171680D01*
X107531426Y-90279853D01*
X107808665Y-90335000D01*
X108091335Y-90335000D01*
X108368574Y-90279853D01*
X108629727Y-90171680D01*
X108864759Y-90014637D01*
X109064637Y-89814759D01*
X109221680Y-89579727D01*
X109226067Y-89569135D01*
X109337615Y-89755131D01*
X109526586Y-89963519D01*
X109752580Y-90131037D01*
X110006913Y-90251246D01*
X110140961Y-90291904D01*
X110363000Y-90169915D01*
X110363000Y-89027000D01*
X110343000Y-89027000D01*
X110343000Y-88773000D01*
X110363000Y-88773000D01*
X110363000Y-87630085D01*
X110617000Y-87630085D01*
X110617000Y-88773000D01*
X110637000Y-88773000D01*
X110637000Y-89027000D01*
X110617000Y-89027000D01*
X110617000Y-90169915D01*
X110839039Y-90291904D01*
X110973087Y-90251246D01*
X111227420Y-90131037D01*
X111453414Y-89963519D01*
X111642385Y-89755131D01*
X111753933Y-89569135D01*
X111758320Y-89579727D01*
X111915363Y-89814759D01*
X112115241Y-90014637D01*
X112350273Y-90171680D01*
X112611426Y-90279853D01*
X112888665Y-90335000D01*
X113171335Y-90335000D01*
X113448574Y-90279853D01*
X113709727Y-90171680D01*
X113944759Y-90014637D01*
X114144637Y-89814759D01*
X114300000Y-89582241D01*
X114455363Y-89814759D01*
X114655241Y-90014637D01*
X114890273Y-90171680D01*
X115151426Y-90279853D01*
X115428665Y-90335000D01*
X115711335Y-90335000D01*
X115988574Y-90279853D01*
X116249727Y-90171680D01*
X116484759Y-90014637D01*
X116683357Y-89816039D01*
X116684188Y-89824482D01*
X116720498Y-89944180D01*
X116779463Y-90054494D01*
X116858815Y-90151185D01*
X116955506Y-90230537D01*
X117065820Y-90289502D01*
X117185518Y-90325812D01*
X117310000Y-90338072D01*
X118910000Y-90338072D01*
X119034482Y-90325812D01*
X119154180Y-90289502D01*
X119264494Y-90230537D01*
X119361185Y-90151185D01*
X119440537Y-90054494D01*
X119499502Y-89944180D01*
X119535812Y-89824482D01*
X119548072Y-89700000D01*
X119548072Y-88100000D01*
X119535812Y-87975518D01*
X119499502Y-87855820D01*
X119440537Y-87745506D01*
X119361185Y-87648815D01*
X119264494Y-87569463D01*
X119154180Y-87510498D01*
X119034482Y-87474188D01*
X118910000Y-87461928D01*
X117310000Y-87461928D01*
X117185518Y-87474188D01*
X117065820Y-87510498D01*
X116955506Y-87569463D01*
X116858815Y-87648815D01*
X116779463Y-87745506D01*
X116720498Y-87855820D01*
X116684188Y-87975518D01*
X116683357Y-87983961D01*
X116484759Y-87785363D01*
X116249727Y-87628320D01*
X115988574Y-87520147D01*
X115711335Y-87465000D01*
X115428665Y-87465000D01*
X115151426Y-87520147D01*
X114890273Y-87628320D01*
X114655241Y-87785363D01*
X114455363Y-87985241D01*
X114300000Y-88217759D01*
X114144637Y-87985241D01*
X113944759Y-87785363D01*
X113709727Y-87628320D01*
X113448574Y-87520147D01*
X113171335Y-87465000D01*
X112888665Y-87465000D01*
X112611426Y-87520147D01*
X112350273Y-87628320D01*
X112115241Y-87785363D01*
X111915363Y-87985241D01*
X111758320Y-88220273D01*
X111753933Y-88230865D01*
X111642385Y-88044869D01*
X111453414Y-87836481D01*
X111227420Y-87668963D01*
X110973087Y-87548754D01*
X110839039Y-87508096D01*
X110617000Y-87630085D01*
X110363000Y-87630085D01*
X110140961Y-87508096D01*
X110006913Y-87548754D01*
X109752580Y-87668963D01*
X109526586Y-87836481D01*
X109337615Y-88044869D01*
X109226067Y-88230865D01*
X109221680Y-88220273D01*
X109064637Y-87985241D01*
X108864759Y-87785363D01*
X108629727Y-87628320D01*
X108368574Y-87520147D01*
X108091335Y-87465000D01*
X107808665Y-87465000D01*
X107531426Y-87520147D01*
X107270273Y-87628320D01*
X107035241Y-87785363D01*
X106835363Y-87985241D01*
X106680000Y-88217759D01*
X106524637Y-87985241D01*
X106324759Y-87785363D01*
X106089727Y-87628320D01*
X105828574Y-87520147D01*
X105551335Y-87465000D01*
X105268665Y-87465000D01*
X104991426Y-87520147D01*
X104730273Y-87628320D01*
X104495241Y-87785363D01*
X104295363Y-87985241D01*
X104140000Y-88217759D01*
X103984637Y-87985241D01*
X103784759Y-87785363D01*
X103549727Y-87628320D01*
X103288574Y-87520147D01*
X103011335Y-87465000D01*
X102728665Y-87465000D01*
X102451426Y-87520147D01*
X102190273Y-87628320D01*
X101955241Y-87785363D01*
X101755363Y-87985241D01*
X101600000Y-88217759D01*
X101444637Y-87985241D01*
X101244759Y-87785363D01*
X101009727Y-87628320D01*
X100748574Y-87520147D01*
X100471335Y-87465000D01*
X100188665Y-87465000D01*
X99911426Y-87520147D01*
X99650273Y-87628320D01*
X99415241Y-87785363D01*
X99215363Y-87985241D01*
X99060000Y-88217759D01*
X98904637Y-87985241D01*
X98704759Y-87785363D01*
X98469727Y-87628320D01*
X98208574Y-87520147D01*
X97931335Y-87465000D01*
X97648665Y-87465000D01*
X97371426Y-87520147D01*
X97110273Y-87628320D01*
X96875241Y-87785363D01*
X96675363Y-87985241D01*
X96520000Y-88217759D01*
X96364637Y-87985241D01*
X96164759Y-87785363D01*
X95929727Y-87628320D01*
X95668574Y-87520147D01*
X95391335Y-87465000D01*
X95108665Y-87465000D01*
X94831426Y-87520147D01*
X94570273Y-87628320D01*
X94335241Y-87785363D01*
X94135363Y-87985241D01*
X93980000Y-88217759D01*
X93824637Y-87985241D01*
X93624759Y-87785363D01*
X93389727Y-87628320D01*
X93128574Y-87520147D01*
X92851335Y-87465000D01*
X92568665Y-87465000D01*
X92291426Y-87520147D01*
X92030273Y-87628320D01*
X91795241Y-87785363D01*
X91595363Y-87985241D01*
X91440000Y-88217759D01*
X91284637Y-87985241D01*
X91084759Y-87785363D01*
X90930000Y-87681957D01*
X90930000Y-86674801D01*
X93024803Y-84580000D01*
X112326289Y-84580000D01*
X112370226Y-84623937D01*
X112539744Y-84737205D01*
X112728102Y-84815226D01*
X112928061Y-84855000D01*
X113131939Y-84855000D01*
X113331898Y-84815226D01*
X113520256Y-84737205D01*
X113689774Y-84623937D01*
X113833937Y-84479774D01*
X113947205Y-84310256D01*
X114025226Y-84121898D01*
X114065000Y-83921939D01*
X114065000Y-83718061D01*
X114025226Y-83518102D01*
X113947205Y-83329744D01*
X113833937Y-83160226D01*
X113689774Y-83016063D01*
X113520256Y-82902795D01*
X113331898Y-82824774D01*
X113131939Y-82785000D01*
X112928061Y-82785000D01*
X112728102Y-82824774D01*
X112539744Y-82902795D01*
X112370226Y-83016063D01*
X112326289Y-83060000D01*
X92747322Y-83060000D01*
X92709999Y-83056324D01*
X92672676Y-83060000D01*
X92672667Y-83060000D01*
X92561014Y-83070997D01*
X92417753Y-83114454D01*
X92285724Y-83185026D01*
X92285722Y-83185027D01*
X92285723Y-83185027D01*
X92198996Y-83256201D01*
X92198992Y-83256205D01*
X92169999Y-83279999D01*
X92146205Y-83308992D01*
X89659003Y-85796196D01*
X89629999Y-85819999D01*
X89589175Y-85869744D01*
X89535026Y-85935724D01*
X89469613Y-86058102D01*
X89464454Y-86067754D01*
X89420997Y-86211015D01*
X89410000Y-86322668D01*
X89410000Y-86322678D01*
X89406324Y-86360000D01*
X89410000Y-86397323D01*
X89410001Y-87681956D01*
X89255241Y-87785363D01*
X89055363Y-87985241D01*
X88900000Y-88217759D01*
X88744637Y-87985241D01*
X88544759Y-87785363D01*
X88309727Y-87628320D01*
X88048574Y-87520147D01*
X87771335Y-87465000D01*
X87488665Y-87465000D01*
X87211426Y-87520147D01*
X86950273Y-87628320D01*
X86715241Y-87785363D01*
X86515363Y-87985241D01*
X86360000Y-88217759D01*
X86204637Y-87985241D01*
X86004759Y-87785363D01*
X85769727Y-87628320D01*
X85508574Y-87520147D01*
X85231335Y-87465000D01*
X84948665Y-87465000D01*
X84671426Y-87520147D01*
X84410273Y-87628320D01*
X84175241Y-87785363D01*
X83975363Y-87985241D01*
X83820000Y-88217759D01*
X83664637Y-87985241D01*
X83464759Y-87785363D01*
X83229727Y-87628320D01*
X82968574Y-87520147D01*
X82691335Y-87465000D01*
X82408665Y-87465000D01*
X82131426Y-87520147D01*
X81870273Y-87628320D01*
X81635241Y-87785363D01*
X81435363Y-87985241D01*
X81278320Y-88220273D01*
X81170147Y-88481426D01*
X81115000Y-88758665D01*
X77070000Y-88758665D01*
X77070000Y-81178061D01*
X94215000Y-81178061D01*
X94215000Y-81381939D01*
X94254774Y-81581898D01*
X94332795Y-81770256D01*
X94446063Y-81939774D01*
X94590226Y-82083937D01*
X94759744Y-82197205D01*
X94948102Y-82275226D01*
X95148061Y-82315000D01*
X95351939Y-82315000D01*
X95551898Y-82275226D01*
X95740256Y-82197205D01*
X95909774Y-82083937D01*
X95953711Y-82040000D01*
X107246289Y-82040000D01*
X107290226Y-82083937D01*
X107459744Y-82197205D01*
X107648102Y-82275226D01*
X107848061Y-82315000D01*
X108051939Y-82315000D01*
X108251898Y-82275226D01*
X108440256Y-82197205D01*
X108609774Y-82083937D01*
X108753937Y-81939774D01*
X108867205Y-81770256D01*
X108945226Y-81581898D01*
X108985000Y-81381939D01*
X108985000Y-81178061D01*
X108945226Y-80978102D01*
X108867205Y-80789744D01*
X108753937Y-80620226D01*
X108609774Y-80476063D01*
X108440256Y-80362795D01*
X108251898Y-80284774D01*
X108051939Y-80245000D01*
X107848061Y-80245000D01*
X107648102Y-80284774D01*
X107459744Y-80362795D01*
X107290226Y-80476063D01*
X107246289Y-80520000D01*
X95953711Y-80520000D01*
X95909774Y-80476063D01*
X95740256Y-80362795D01*
X95551898Y-80284774D01*
X95351939Y-80245000D01*
X95148061Y-80245000D01*
X94948102Y-80284774D01*
X94759744Y-80362795D01*
X94590226Y-80476063D01*
X94446063Y-80620226D01*
X94332795Y-80789744D01*
X94254774Y-80978102D01*
X94215000Y-81178061D01*
X77070000Y-81178061D01*
X77070000Y-78740000D01*
X117346324Y-78740000D01*
X117360998Y-78888985D01*
X117404454Y-79032246D01*
X117475026Y-79164276D01*
X117546201Y-79251002D01*
X121160001Y-82864803D01*
X121160000Y-99022678D01*
X121156324Y-99060000D01*
X121160000Y-99097322D01*
X121160000Y-99097332D01*
X121170997Y-99208985D01*
X121191424Y-99276324D01*
X121214454Y-99352246D01*
X121285026Y-99484276D01*
X121302130Y-99505117D01*
X121379999Y-99600001D01*
X121409003Y-99623804D01*
X125166200Y-103381002D01*
X125189999Y-103410001D01*
X125305724Y-103504974D01*
X125437753Y-103575546D01*
X125581014Y-103619003D01*
X125692667Y-103630000D01*
X125692675Y-103630000D01*
X125730000Y-103633676D01*
X125767325Y-103630000D01*
X129225199Y-103630000D01*
X132590001Y-106994803D01*
X132590000Y-108001956D01*
X132435241Y-108105363D01*
X132235363Y-108305241D01*
X132078320Y-108540273D01*
X131970147Y-108801426D01*
X131915000Y-109078665D01*
X131915000Y-109361335D01*
X131970147Y-109638574D01*
X132078320Y-109899727D01*
X132235363Y-110134759D01*
X132435241Y-110334637D01*
X132670273Y-110491680D01*
X132931426Y-110599853D01*
X133208665Y-110655000D01*
X133491335Y-110655000D01*
X133768574Y-110599853D01*
X134029727Y-110491680D01*
X134264759Y-110334637D01*
X134464637Y-110134759D01*
X134621680Y-109899727D01*
X134729853Y-109638574D01*
X134785000Y-109361335D01*
X134785000Y-109078665D01*
X134729853Y-108801426D01*
X134621680Y-108540273D01*
X134464637Y-108305241D01*
X134264759Y-108105363D01*
X134110000Y-108001957D01*
X134110000Y-106717325D01*
X134113676Y-106680000D01*
X134110000Y-106642675D01*
X134110000Y-106642667D01*
X134099003Y-106531014D01*
X134055546Y-106387753D01*
X133984974Y-106255724D01*
X133890001Y-106139999D01*
X133861003Y-106116201D01*
X130103804Y-102359003D01*
X130080001Y-102329999D01*
X129964276Y-102235026D01*
X129832247Y-102164454D01*
X129688986Y-102120997D01*
X129577333Y-102110000D01*
X129577322Y-102110000D01*
X129540000Y-102106324D01*
X129502678Y-102110000D01*
X126044802Y-102110000D01*
X122680000Y-98745199D01*
X122680000Y-97648665D01*
X129375000Y-97648665D01*
X129375000Y-97931335D01*
X129430147Y-98208574D01*
X129538320Y-98469727D01*
X129695363Y-98704759D01*
X129895241Y-98904637D01*
X130130273Y-99061680D01*
X130391426Y-99169853D01*
X130668665Y-99225000D01*
X130951335Y-99225000D01*
X131228574Y-99169853D01*
X131489727Y-99061680D01*
X131724759Y-98904637D01*
X131924637Y-98704759D01*
X132081680Y-98469727D01*
X132189853Y-98208574D01*
X132245000Y-97931335D01*
X132245000Y-97660937D01*
X137931928Y-97660937D01*
X137931928Y-99260937D01*
X137944188Y-99385419D01*
X137980498Y-99505117D01*
X138039463Y-99615431D01*
X138118815Y-99712122D01*
X138215506Y-99791474D01*
X138325820Y-99850439D01*
X138445518Y-99886749D01*
X138570000Y-99899009D01*
X140170000Y-99899009D01*
X140294482Y-99886749D01*
X140384283Y-99859508D01*
X149695000Y-99859508D01*
X149695000Y-100800491D01*
X149715764Y-101011308D01*
X149797818Y-101281807D01*
X149931068Y-101531100D01*
X149995001Y-101609002D01*
X149995000Y-109164248D01*
X149989509Y-109220000D01*
X149995000Y-109275751D01*
X150011423Y-109442498D01*
X150076324Y-109656446D01*
X150181716Y-109853623D01*
X150323551Y-110026449D01*
X150366865Y-110061996D01*
X156638009Y-116333141D01*
X156673551Y-116376449D01*
X156846377Y-116518284D01*
X157043553Y-116623676D01*
X157177076Y-116664180D01*
X157257500Y-116688577D01*
X157479999Y-116710491D01*
X157535751Y-116705000D01*
X181462317Y-116705000D01*
X181499463Y-116774494D01*
X181578815Y-116871185D01*
X181675506Y-116950537D01*
X181785820Y-117009502D01*
X181905518Y-117045812D01*
X182030000Y-117058072D01*
X183730000Y-117058072D01*
X183854482Y-117045812D01*
X183974180Y-117009502D01*
X184084494Y-116950537D01*
X184181185Y-116871185D01*
X184260537Y-116774494D01*
X184319502Y-116664180D01*
X184355812Y-116544482D01*
X184368072Y-116420000D01*
X184368072Y-114720000D01*
X184355812Y-114595518D01*
X184319502Y-114475820D01*
X184260537Y-114365506D01*
X184181185Y-114268815D01*
X184084494Y-114189463D01*
X183974180Y-114130498D01*
X183893534Y-114106034D01*
X183977588Y-114030269D01*
X184151641Y-113796920D01*
X184276825Y-113534099D01*
X184321476Y-113386890D01*
X184200155Y-113157000D01*
X183007000Y-113157000D01*
X183007000Y-113177000D01*
X182753000Y-113177000D01*
X182753000Y-113157000D01*
X181559845Y-113157000D01*
X181438524Y-113386890D01*
X181483175Y-113534099D01*
X181608359Y-113796920D01*
X181782412Y-114030269D01*
X181866466Y-114106034D01*
X181785820Y-114130498D01*
X181675506Y-114189463D01*
X181578815Y-114268815D01*
X181499463Y-114365506D01*
X181462317Y-114435000D01*
X157950132Y-114435000D01*
X153858872Y-110343740D01*
X181395000Y-110343740D01*
X181395000Y-110636260D01*
X181452068Y-110923158D01*
X181564010Y-111193411D01*
X181726525Y-111436632D01*
X181933368Y-111643475D01*
X182115534Y-111765195D01*
X181998645Y-111834822D01*
X181782412Y-112029731D01*
X181608359Y-112263080D01*
X181483175Y-112525901D01*
X181438524Y-112673110D01*
X181559845Y-112903000D01*
X182753000Y-112903000D01*
X182753000Y-112883000D01*
X183007000Y-112883000D01*
X183007000Y-112903000D01*
X184200155Y-112903000D01*
X184321476Y-112673110D01*
X184276825Y-112525901D01*
X184151641Y-112263080D01*
X183977588Y-112029731D01*
X183761355Y-111834822D01*
X183644466Y-111765195D01*
X183826632Y-111643475D01*
X184033475Y-111436632D01*
X184195990Y-111193411D01*
X184307932Y-110923158D01*
X184365000Y-110636260D01*
X184365000Y-110343740D01*
X184307932Y-110056842D01*
X184195990Y-109786589D01*
X184033475Y-109543368D01*
X183826632Y-109336525D01*
X183583411Y-109174010D01*
X183313158Y-109062068D01*
X183026260Y-109005000D01*
X182733740Y-109005000D01*
X182446842Y-109062068D01*
X182176589Y-109174010D01*
X181933368Y-109336525D01*
X181726525Y-109543368D01*
X181564010Y-109786589D01*
X181452068Y-110056842D01*
X181395000Y-110343740D01*
X153858872Y-110343740D01*
X152265000Y-108749869D01*
X152265000Y-101609002D01*
X152328932Y-101531101D01*
X152400000Y-101398142D01*
X152471068Y-101531100D01*
X152650392Y-101749607D01*
X152868899Y-101928932D01*
X153118192Y-102062182D01*
X153388691Y-102144236D01*
X153670000Y-102171943D01*
X153951308Y-102144236D01*
X154221807Y-102062182D01*
X154471100Y-101928932D01*
X154689607Y-101749608D01*
X154868932Y-101531101D01*
X154940000Y-101398142D01*
X155011068Y-101531100D01*
X155190392Y-101749607D01*
X155408899Y-101928932D01*
X155658192Y-102062182D01*
X155928691Y-102144236D01*
X156210000Y-102171943D01*
X156491308Y-102144236D01*
X156761807Y-102062182D01*
X157011100Y-101928932D01*
X157229607Y-101749608D01*
X157408932Y-101531101D01*
X157480000Y-101398142D01*
X157551068Y-101531100D01*
X157730392Y-101749607D01*
X157948899Y-101928932D01*
X158198192Y-102062182D01*
X158468691Y-102144236D01*
X158750000Y-102171943D01*
X159031308Y-102144236D01*
X159301807Y-102062182D01*
X159551100Y-101928932D01*
X159769607Y-101749608D01*
X159948932Y-101531101D01*
X160020000Y-101398142D01*
X160091068Y-101531100D01*
X160270392Y-101749607D01*
X160488899Y-101928932D01*
X160738192Y-102062182D01*
X161008691Y-102144236D01*
X161290000Y-102171943D01*
X161571308Y-102144236D01*
X161841807Y-102062182D01*
X162091100Y-101928932D01*
X162309607Y-101749608D01*
X162488932Y-101531101D01*
X162560000Y-101398142D01*
X162631068Y-101531100D01*
X162810392Y-101749607D01*
X163028899Y-101928932D01*
X163278192Y-102062182D01*
X163548691Y-102144236D01*
X163830000Y-102171943D01*
X164111308Y-102144236D01*
X164381807Y-102062182D01*
X164631100Y-101928932D01*
X164849607Y-101749608D01*
X165028932Y-101531101D01*
X165100000Y-101398142D01*
X165171068Y-101531100D01*
X165350392Y-101749607D01*
X165568899Y-101928932D01*
X165818192Y-102062182D01*
X166088691Y-102144236D01*
X166370000Y-102171943D01*
X166651308Y-102144236D01*
X166921807Y-102062182D01*
X167171100Y-101928932D01*
X167389607Y-101749608D01*
X167568932Y-101531101D01*
X167640000Y-101398142D01*
X167711068Y-101531100D01*
X167890392Y-101749607D01*
X168108899Y-101928932D01*
X168358192Y-102062182D01*
X168628691Y-102144236D01*
X168910000Y-102171943D01*
X169191308Y-102144236D01*
X169461807Y-102062182D01*
X169711100Y-101928932D01*
X169929607Y-101749608D01*
X170108932Y-101531101D01*
X170180000Y-101398142D01*
X170251068Y-101531100D01*
X170430392Y-101749607D01*
X170648899Y-101928932D01*
X170898192Y-102062182D01*
X171168691Y-102144236D01*
X171450000Y-102171943D01*
X171731308Y-102144236D01*
X172001807Y-102062182D01*
X172251100Y-101928932D01*
X172469607Y-101749608D01*
X172648932Y-101531101D01*
X172782182Y-101281808D01*
X172864236Y-101011309D01*
X172885000Y-100800492D01*
X172885000Y-100400000D01*
X178501928Y-100400000D01*
X178501928Y-102800000D01*
X178514188Y-102924482D01*
X178550498Y-103044180D01*
X178609463Y-103154494D01*
X178688815Y-103251185D01*
X178785506Y-103330537D01*
X178895820Y-103389502D01*
X179015518Y-103425812D01*
X179140000Y-103438072D01*
X181540000Y-103438072D01*
X181664482Y-103425812D01*
X181784180Y-103389502D01*
X181894494Y-103330537D01*
X181991185Y-103251185D01*
X182070537Y-103154494D01*
X182129502Y-103044180D01*
X182165812Y-102924482D01*
X182178072Y-102800000D01*
X182178072Y-100534916D01*
X191790000Y-100534916D01*
X191790000Y-100785084D01*
X191838805Y-101030445D01*
X191934541Y-101261571D01*
X192073527Y-101469578D01*
X192250422Y-101646473D01*
X192458429Y-101785459D01*
X192689555Y-101881195D01*
X192934916Y-101930000D01*
X193185084Y-101930000D01*
X193430445Y-101881195D01*
X193661571Y-101785459D01*
X193869578Y-101646473D01*
X194046473Y-101469578D01*
X194185459Y-101261571D01*
X194281195Y-101030445D01*
X194330000Y-100785084D01*
X194330000Y-100534916D01*
X194281195Y-100289555D01*
X194264811Y-100250000D01*
X201847138Y-100250000D01*
X201878513Y-100568556D01*
X201971432Y-100874869D01*
X202122325Y-101157170D01*
X202325392Y-101404608D01*
X202572830Y-101607675D01*
X202855131Y-101758568D01*
X203161444Y-101851487D01*
X203400176Y-101875000D01*
X205539824Y-101875000D01*
X205778556Y-101851487D01*
X206084869Y-101758568D01*
X206367170Y-101607675D01*
X206614608Y-101404608D01*
X206817675Y-101157170D01*
X206968568Y-100874869D01*
X207061487Y-100568556D01*
X207092862Y-100250000D01*
X207061487Y-99931444D01*
X206968568Y-99625131D01*
X206817675Y-99342830D01*
X206614608Y-99095392D01*
X206367170Y-98892325D01*
X206084869Y-98741432D01*
X205778556Y-98648513D01*
X205539824Y-98625000D01*
X203400176Y-98625000D01*
X203161444Y-98648513D01*
X202855131Y-98741432D01*
X202572830Y-98892325D01*
X202325392Y-99095392D01*
X202122325Y-99342830D01*
X201971432Y-99625131D01*
X201878513Y-99931444D01*
X201847138Y-100250000D01*
X194264811Y-100250000D01*
X194185459Y-100058429D01*
X194046473Y-99850422D01*
X193869578Y-99673527D01*
X193661571Y-99534541D01*
X193430445Y-99438805D01*
X193185084Y-99390000D01*
X192934916Y-99390000D01*
X192689555Y-99438805D01*
X192458429Y-99534541D01*
X192250422Y-99673527D01*
X192073527Y-99850422D01*
X191934541Y-100058429D01*
X191838805Y-100289555D01*
X191790000Y-100534916D01*
X182178072Y-100534916D01*
X182178072Y-100400000D01*
X182165812Y-100275518D01*
X182129502Y-100155820D01*
X182070537Y-100045506D01*
X181991185Y-99948815D01*
X181894494Y-99869463D01*
X181784180Y-99810498D01*
X181664482Y-99774188D01*
X181540000Y-99761928D01*
X179140000Y-99761928D01*
X179015518Y-99774188D01*
X178895820Y-99810498D01*
X178785506Y-99869463D01*
X178688815Y-99948815D01*
X178609463Y-100045506D01*
X178550498Y-100155820D01*
X178514188Y-100275518D01*
X178501928Y-100400000D01*
X172885000Y-100400000D01*
X172885000Y-99859509D01*
X172864236Y-99648691D01*
X172782182Y-99378192D01*
X172648932Y-99128899D01*
X172489735Y-98934916D01*
X186690000Y-98934916D01*
X186690000Y-99185084D01*
X186738805Y-99430445D01*
X186834541Y-99661571D01*
X186973527Y-99869578D01*
X187150422Y-100046473D01*
X187358429Y-100185459D01*
X187589555Y-100281195D01*
X187834916Y-100330000D01*
X188085084Y-100330000D01*
X188330445Y-100281195D01*
X188561571Y-100185459D01*
X188769578Y-100046473D01*
X188946473Y-99869578D01*
X189085459Y-99661571D01*
X189181195Y-99430445D01*
X189230000Y-99185084D01*
X189230000Y-98934916D01*
X189181195Y-98689555D01*
X189085459Y-98458429D01*
X188946473Y-98250422D01*
X188769578Y-98073527D01*
X188561571Y-97934541D01*
X188330445Y-97838805D01*
X188085084Y-97790000D01*
X187834916Y-97790000D01*
X187589555Y-97838805D01*
X187358429Y-97934541D01*
X187150422Y-98073527D01*
X186973527Y-98250422D01*
X186834541Y-98458429D01*
X186738805Y-98689555D01*
X186690000Y-98934916D01*
X172489735Y-98934916D01*
X172469608Y-98910392D01*
X172251101Y-98731068D01*
X172001808Y-98597818D01*
X171731309Y-98515764D01*
X171450000Y-98488057D01*
X171168692Y-98515764D01*
X170898193Y-98597818D01*
X170648900Y-98731068D01*
X170430393Y-98910392D01*
X170251068Y-99128899D01*
X170180000Y-99261858D01*
X170108932Y-99128899D01*
X169929608Y-98910392D01*
X169711101Y-98731068D01*
X169461808Y-98597818D01*
X169191309Y-98515764D01*
X168910000Y-98488057D01*
X168628692Y-98515764D01*
X168358193Y-98597818D01*
X168108900Y-98731068D01*
X167890393Y-98910392D01*
X167711068Y-99128899D01*
X167640000Y-99261858D01*
X167568932Y-99128899D01*
X167389608Y-98910392D01*
X167171101Y-98731068D01*
X166921808Y-98597818D01*
X166651309Y-98515764D01*
X166370000Y-98488057D01*
X166088692Y-98515764D01*
X165818193Y-98597818D01*
X165568900Y-98731068D01*
X165350393Y-98910392D01*
X165171068Y-99128899D01*
X165100000Y-99261858D01*
X165028932Y-99128899D01*
X164849608Y-98910392D01*
X164631101Y-98731068D01*
X164381808Y-98597818D01*
X164111309Y-98515764D01*
X163830000Y-98488057D01*
X163548692Y-98515764D01*
X163278193Y-98597818D01*
X163028900Y-98731068D01*
X162810393Y-98910392D01*
X162631068Y-99128899D01*
X162560000Y-99261858D01*
X162488932Y-99128899D01*
X162309608Y-98910392D01*
X162091101Y-98731068D01*
X161841808Y-98597818D01*
X161571309Y-98515764D01*
X161290000Y-98488057D01*
X161008692Y-98515764D01*
X160738193Y-98597818D01*
X160488900Y-98731068D01*
X160270393Y-98910392D01*
X160091068Y-99128899D01*
X160020000Y-99261858D01*
X159948932Y-99128899D01*
X159769608Y-98910392D01*
X159551101Y-98731068D01*
X159301808Y-98597818D01*
X159031309Y-98515764D01*
X158750000Y-98488057D01*
X158468692Y-98515764D01*
X158198193Y-98597818D01*
X157948900Y-98731068D01*
X157730393Y-98910392D01*
X157551068Y-99128899D01*
X157480000Y-99261858D01*
X157408932Y-99128899D01*
X157229608Y-98910392D01*
X157011101Y-98731068D01*
X156761808Y-98597818D01*
X156491309Y-98515764D01*
X156210000Y-98488057D01*
X155928692Y-98515764D01*
X155658193Y-98597818D01*
X155408900Y-98731068D01*
X155190393Y-98910392D01*
X155011068Y-99128899D01*
X154940000Y-99261858D01*
X154868932Y-99128899D01*
X154689608Y-98910392D01*
X154471101Y-98731068D01*
X154221808Y-98597818D01*
X153951309Y-98515764D01*
X153670000Y-98488057D01*
X153388692Y-98515764D01*
X153118193Y-98597818D01*
X152868900Y-98731068D01*
X152650393Y-98910392D01*
X152471068Y-99128899D01*
X152400000Y-99261858D01*
X152328932Y-99128899D01*
X152149608Y-98910392D01*
X151931101Y-98731068D01*
X151681808Y-98597818D01*
X151411309Y-98515764D01*
X151130000Y-98488057D01*
X150848692Y-98515764D01*
X150578193Y-98597818D01*
X150328900Y-98731068D01*
X150110393Y-98910392D01*
X149931068Y-99128899D01*
X149797818Y-99378192D01*
X149715764Y-99648691D01*
X149695000Y-99859508D01*
X140384283Y-99859508D01*
X140414180Y-99850439D01*
X140524494Y-99791474D01*
X140621185Y-99712122D01*
X140700537Y-99615431D01*
X140759502Y-99505117D01*
X140795812Y-99385419D01*
X140808072Y-99260937D01*
X140808072Y-99228072D01*
X141770000Y-99228072D01*
X141894482Y-99215812D01*
X142014180Y-99179502D01*
X142124494Y-99120537D01*
X142221185Y-99041185D01*
X142300537Y-98944494D01*
X142359502Y-98834180D01*
X142395812Y-98714482D01*
X142408072Y-98590000D01*
X142408072Y-96990000D01*
X142395812Y-96865518D01*
X142359502Y-96745820D01*
X142300537Y-96635506D01*
X142221185Y-96538815D01*
X142124494Y-96459463D01*
X142014180Y-96400498D01*
X141894482Y-96364188D01*
X141770000Y-96351928D01*
X141762785Y-96351928D01*
X141783097Y-96282702D01*
X141740395Y-96240000D01*
X201851928Y-96240000D01*
X201864188Y-96364482D01*
X201900498Y-96484180D01*
X201959463Y-96594494D01*
X202038815Y-96691185D01*
X202135506Y-96770537D01*
X202245820Y-96829502D01*
X202365518Y-96865812D01*
X202490000Y-96878072D01*
X204184250Y-96875000D01*
X204343000Y-96716250D01*
X204343000Y-95377000D01*
X204597000Y-95377000D01*
X204597000Y-96716250D01*
X204755750Y-96875000D01*
X206450000Y-96878072D01*
X206574482Y-96865812D01*
X206694180Y-96829502D01*
X206804494Y-96770537D01*
X206901185Y-96691185D01*
X206980537Y-96594494D01*
X207039502Y-96484180D01*
X207075812Y-96364482D01*
X207088072Y-96240000D01*
X207085000Y-95535750D01*
X206926250Y-95377000D01*
X204597000Y-95377000D01*
X204343000Y-95377000D01*
X202013750Y-95377000D01*
X201855000Y-95535750D01*
X201851928Y-96240000D01*
X141740395Y-96240000D01*
X140970000Y-95469605D01*
X140156903Y-96282702D01*
X140177215Y-96351928D01*
X140170000Y-96351928D01*
X140045518Y-96364188D01*
X139925820Y-96400498D01*
X139815506Y-96459463D01*
X139718815Y-96538815D01*
X139639463Y-96635506D01*
X139580498Y-96745820D01*
X139544188Y-96865518D01*
X139531928Y-96990000D01*
X139531928Y-97022865D01*
X138570000Y-97022865D01*
X138445518Y-97035125D01*
X138325820Y-97071435D01*
X138215506Y-97130400D01*
X138118815Y-97209752D01*
X138039463Y-97306443D01*
X137980498Y-97416757D01*
X137944188Y-97536455D01*
X137931928Y-97660937D01*
X132245000Y-97660937D01*
X132245000Y-97648665D01*
X132189853Y-97371426D01*
X132081680Y-97110273D01*
X131924637Y-96875241D01*
X131724759Y-96675363D01*
X131524131Y-96541308D01*
X131551514Y-96526671D01*
X131623097Y-96282702D01*
X130810000Y-95469605D01*
X129996903Y-96282702D01*
X130068486Y-96526671D01*
X130097341Y-96540324D01*
X129895241Y-96675363D01*
X129695363Y-96875241D01*
X129538320Y-97110273D01*
X129430147Y-97371426D01*
X129375000Y-97648665D01*
X122680000Y-97648665D01*
X122680000Y-95360512D01*
X129369783Y-95360512D01*
X129411213Y-95640130D01*
X129506397Y-95906292D01*
X129573329Y-96031514D01*
X129817298Y-96103097D01*
X130630395Y-95290000D01*
X130989605Y-95290000D01*
X131802702Y-96103097D01*
X132046671Y-96031514D01*
X132167571Y-95776004D01*
X132236300Y-95501816D01*
X132243265Y-95360512D01*
X139529783Y-95360512D01*
X139571213Y-95640130D01*
X139666397Y-95906292D01*
X139733329Y-96031514D01*
X139977298Y-96103097D01*
X140790395Y-95290000D01*
X139977298Y-94476903D01*
X139733329Y-94548486D01*
X139612429Y-94803996D01*
X139543700Y-95078184D01*
X139529783Y-95360512D01*
X132243265Y-95360512D01*
X132250217Y-95219488D01*
X132208787Y-94939870D01*
X132113603Y-94673708D01*
X132046671Y-94548486D01*
X131802702Y-94476903D01*
X130989605Y-95290000D01*
X130630395Y-95290000D01*
X129817298Y-94476903D01*
X129573329Y-94548486D01*
X129452429Y-94803996D01*
X129383700Y-95078184D01*
X129369783Y-95360512D01*
X122680000Y-95360512D01*
X122680000Y-94297298D01*
X129996903Y-94297298D01*
X130810000Y-95110395D01*
X131623097Y-94297298D01*
X140156903Y-94297298D01*
X140970000Y-95110395D01*
X140984143Y-95096253D01*
X141163748Y-95275858D01*
X141149605Y-95290000D01*
X141962702Y-96103097D01*
X142206671Y-96031514D01*
X142216878Y-96009943D01*
X142358184Y-96045363D01*
X142640512Y-96059280D01*
X142920130Y-96017850D01*
X143186292Y-95922666D01*
X143311514Y-95855734D01*
X143383097Y-95611765D01*
X142570000Y-94798668D01*
X142555858Y-94812811D01*
X142376253Y-94633206D01*
X142390395Y-94619063D01*
X142749605Y-94619063D01*
X143562702Y-95432160D01*
X143806671Y-95360577D01*
X143927571Y-95105067D01*
X143996300Y-94830879D01*
X144010217Y-94548551D01*
X143968787Y-94268933D01*
X143873603Y-94002771D01*
X143806671Y-93877549D01*
X143562702Y-93805966D01*
X142749605Y-94619063D01*
X142390395Y-94619063D01*
X141577298Y-93805966D01*
X141333329Y-93877549D01*
X141323122Y-93899120D01*
X141181816Y-93863700D01*
X140899488Y-93849783D01*
X140619870Y-93891213D01*
X140353708Y-93986397D01*
X140228486Y-94053329D01*
X140156903Y-94297298D01*
X131623097Y-94297298D01*
X131551514Y-94053329D01*
X131296004Y-93932429D01*
X131021816Y-93863700D01*
X130739488Y-93849783D01*
X130459870Y-93891213D01*
X130193708Y-93986397D01*
X130068486Y-94053329D01*
X129996903Y-94297298D01*
X122680000Y-94297298D01*
X122680000Y-93626361D01*
X141756903Y-93626361D01*
X142570000Y-94439458D01*
X143383097Y-93626361D01*
X143311514Y-93382392D01*
X143056004Y-93261492D01*
X142781816Y-93192763D01*
X142499488Y-93178846D01*
X142219870Y-93220276D01*
X141953708Y-93315460D01*
X141828486Y-93382392D01*
X141756903Y-93626361D01*
X122680000Y-93626361D01*
X122680000Y-92837000D01*
X149695000Y-92837000D01*
X149695000Y-93237000D01*
X149747350Y-93514514D01*
X149852834Y-93776483D01*
X150007399Y-94012839D01*
X150205105Y-94214500D01*
X150438354Y-94373715D01*
X150698182Y-94484367D01*
X150780961Y-94501904D01*
X151003000Y-94379915D01*
X151003000Y-92837000D01*
X151257000Y-92837000D01*
X151257000Y-94379915D01*
X151479039Y-94501904D01*
X151561818Y-94484367D01*
X151821646Y-94373715D01*
X152054895Y-94214500D01*
X152252601Y-94012839D01*
X152400000Y-93787441D01*
X152547399Y-94012839D01*
X152745105Y-94214500D01*
X152978354Y-94373715D01*
X153238182Y-94484367D01*
X153320961Y-94501904D01*
X153543000Y-94379915D01*
X153543000Y-92837000D01*
X153797000Y-92837000D01*
X153797000Y-94379915D01*
X154019039Y-94501904D01*
X154101818Y-94484367D01*
X154361646Y-94373715D01*
X154594895Y-94214500D01*
X154792601Y-94012839D01*
X154940000Y-93787441D01*
X155087399Y-94012839D01*
X155285105Y-94214500D01*
X155518354Y-94373715D01*
X155778182Y-94484367D01*
X155860961Y-94501904D01*
X156083000Y-94379915D01*
X156083000Y-92837000D01*
X156337000Y-92837000D01*
X156337000Y-94379915D01*
X156559039Y-94501904D01*
X156641818Y-94484367D01*
X156901646Y-94373715D01*
X157134895Y-94214500D01*
X157332601Y-94012839D01*
X157480000Y-93787441D01*
X157627399Y-94012839D01*
X157825105Y-94214500D01*
X158058354Y-94373715D01*
X158318182Y-94484367D01*
X158400961Y-94501904D01*
X158623000Y-94379915D01*
X158623000Y-92837000D01*
X158877000Y-92837000D01*
X158877000Y-94379915D01*
X159099039Y-94501904D01*
X159181818Y-94484367D01*
X159441646Y-94373715D01*
X159674895Y-94214500D01*
X159872601Y-94012839D01*
X160020000Y-93787441D01*
X160167399Y-94012839D01*
X160365105Y-94214500D01*
X160598354Y-94373715D01*
X160858182Y-94484367D01*
X160940961Y-94501904D01*
X161163000Y-94379915D01*
X161163000Y-92837000D01*
X158877000Y-92837000D01*
X158623000Y-92837000D01*
X156337000Y-92837000D01*
X156083000Y-92837000D01*
X153797000Y-92837000D01*
X153543000Y-92837000D01*
X151257000Y-92837000D01*
X151003000Y-92837000D01*
X149695000Y-92837000D01*
X122680000Y-92837000D01*
X122680000Y-92183000D01*
X149695000Y-92183000D01*
X149695000Y-92583000D01*
X151003000Y-92583000D01*
X151003000Y-91040085D01*
X151257000Y-91040085D01*
X151257000Y-92583000D01*
X153543000Y-92583000D01*
X153543000Y-91040085D01*
X153797000Y-91040085D01*
X153797000Y-92583000D01*
X156083000Y-92583000D01*
X156083000Y-91040085D01*
X156337000Y-91040085D01*
X156337000Y-92583000D01*
X158623000Y-92583000D01*
X158623000Y-91040085D01*
X158877000Y-91040085D01*
X158877000Y-92583000D01*
X161163000Y-92583000D01*
X161163000Y-91040085D01*
X160940961Y-90918096D01*
X160858182Y-90935633D01*
X160598354Y-91046285D01*
X160365105Y-91205500D01*
X160167399Y-91407161D01*
X160020000Y-91632559D01*
X159872601Y-91407161D01*
X159674895Y-91205500D01*
X159441646Y-91046285D01*
X159181818Y-90935633D01*
X159099039Y-90918096D01*
X158877000Y-91040085D01*
X158623000Y-91040085D01*
X158400961Y-90918096D01*
X158318182Y-90935633D01*
X158058354Y-91046285D01*
X157825105Y-91205500D01*
X157627399Y-91407161D01*
X157480000Y-91632559D01*
X157332601Y-91407161D01*
X157134895Y-91205500D01*
X156901646Y-91046285D01*
X156641818Y-90935633D01*
X156559039Y-90918096D01*
X156337000Y-91040085D01*
X156083000Y-91040085D01*
X155860961Y-90918096D01*
X155778182Y-90935633D01*
X155518354Y-91046285D01*
X155285105Y-91205500D01*
X155087399Y-91407161D01*
X154940000Y-91632559D01*
X154792601Y-91407161D01*
X154594895Y-91205500D01*
X154361646Y-91046285D01*
X154101818Y-90935633D01*
X154019039Y-90918096D01*
X153797000Y-91040085D01*
X153543000Y-91040085D01*
X153320961Y-90918096D01*
X153238182Y-90935633D01*
X152978354Y-91046285D01*
X152745105Y-91205500D01*
X152547399Y-91407161D01*
X152400000Y-91632559D01*
X152252601Y-91407161D01*
X152054895Y-91205500D01*
X151821646Y-91046285D01*
X151561818Y-90935633D01*
X151479039Y-90918096D01*
X151257000Y-91040085D01*
X151003000Y-91040085D01*
X150780961Y-90918096D01*
X150698182Y-90935633D01*
X150438354Y-91046285D01*
X150205105Y-91205500D01*
X150007399Y-91407161D01*
X149852834Y-91643517D01*
X149747350Y-91905486D01*
X149695000Y-92183000D01*
X122680000Y-92183000D01*
X122680000Y-82587325D01*
X122683676Y-82550000D01*
X122680000Y-82512675D01*
X122680000Y-82512667D01*
X122669003Y-82401014D01*
X122625546Y-82257753D01*
X122554974Y-82125724D01*
X122460001Y-82009999D01*
X122431003Y-81986201D01*
X118621002Y-78176201D01*
X118534276Y-78105026D01*
X118402246Y-78034454D01*
X118258985Y-77990998D01*
X118110000Y-77976324D01*
X117961015Y-77990998D01*
X117817754Y-78034454D01*
X117685724Y-78105026D01*
X117569999Y-78199999D01*
X117475026Y-78315724D01*
X117404454Y-78447754D01*
X117360998Y-78591015D01*
X117346324Y-78740000D01*
X77070000Y-78740000D01*
X77070000Y-73599392D01*
X77097103Y-73295701D01*
X78625000Y-73295701D01*
X78625000Y-73844299D01*
X78732026Y-74382354D01*
X78941965Y-74889192D01*
X79246750Y-75345334D01*
X79634666Y-75733250D01*
X80090808Y-76038035D01*
X80597646Y-76247974D01*
X81135701Y-76355000D01*
X81684299Y-76355000D01*
X82222354Y-76247974D01*
X82729192Y-76038035D01*
X82816047Y-75980000D01*
X88481928Y-75980000D01*
X88494188Y-76104482D01*
X88530498Y-76224180D01*
X88589463Y-76334494D01*
X88668815Y-76431185D01*
X88765506Y-76510537D01*
X88875820Y-76569502D01*
X88995518Y-76605812D01*
X89120000Y-76618072D01*
X89884250Y-76615000D01*
X90043000Y-76456250D01*
X90043000Y-75057000D01*
X88643750Y-75057000D01*
X88485000Y-75215750D01*
X88481928Y-75980000D01*
X82816047Y-75980000D01*
X83185334Y-75733250D01*
X83573250Y-75345334D01*
X83878035Y-74889192D01*
X84087974Y-74382354D01*
X84187898Y-73880000D01*
X88481928Y-73880000D01*
X88485000Y-74644250D01*
X88643750Y-74803000D01*
X90043000Y-74803000D01*
X90043000Y-73403750D01*
X90297000Y-73403750D01*
X90297000Y-74803000D01*
X90317000Y-74803000D01*
X90317000Y-75057000D01*
X90297000Y-75057000D01*
X90297000Y-76456250D01*
X90455750Y-76615000D01*
X91220000Y-76618072D01*
X91344482Y-76605812D01*
X91464180Y-76569502D01*
X91574494Y-76510537D01*
X91671185Y-76431185D01*
X91750537Y-76334494D01*
X91758042Y-76320454D01*
X91911853Y-76423228D01*
X92218504Y-76550246D01*
X92544042Y-76615000D01*
X92875958Y-76615000D01*
X93201496Y-76550246D01*
X93508147Y-76423228D01*
X93784125Y-76238825D01*
X93980000Y-76042950D01*
X94175875Y-76238825D01*
X94451853Y-76423228D01*
X94758504Y-76550246D01*
X95084042Y-76615000D01*
X95415958Y-76615000D01*
X95741496Y-76550246D01*
X96048147Y-76423228D01*
X96324125Y-76238825D01*
X96520000Y-76042950D01*
X96715875Y-76238825D01*
X96991853Y-76423228D01*
X97298504Y-76550246D01*
X97624042Y-76615000D01*
X97955958Y-76615000D01*
X98281496Y-76550246D01*
X98588147Y-76423228D01*
X98864125Y-76238825D01*
X99060000Y-76042950D01*
X99255875Y-76238825D01*
X99531853Y-76423228D01*
X99838504Y-76550246D01*
X100164042Y-76615000D01*
X100495958Y-76615000D01*
X100821496Y-76550246D01*
X101128147Y-76423228D01*
X101404125Y-76238825D01*
X101600000Y-76042950D01*
X101795875Y-76238825D01*
X102071853Y-76423228D01*
X102378504Y-76550246D01*
X102704042Y-76615000D01*
X103035958Y-76615000D01*
X103361496Y-76550246D01*
X103668147Y-76423228D01*
X103944125Y-76238825D01*
X104140000Y-76042950D01*
X104335875Y-76238825D01*
X104611853Y-76423228D01*
X104918504Y-76550246D01*
X105244042Y-76615000D01*
X105575958Y-76615000D01*
X105901496Y-76550246D01*
X106208147Y-76423228D01*
X106484125Y-76238825D01*
X106680000Y-76042950D01*
X106875875Y-76238825D01*
X107151853Y-76423228D01*
X107458504Y-76550246D01*
X107784042Y-76615000D01*
X108115958Y-76615000D01*
X108441496Y-76550246D01*
X108748147Y-76423228D01*
X109024125Y-76238825D01*
X109258825Y-76004125D01*
X109443228Y-75728147D01*
X109570246Y-75421496D01*
X109635000Y-75095958D01*
X109635000Y-74764042D01*
X109570246Y-74438504D01*
X109443228Y-74131853D01*
X109274945Y-73880000D01*
X122771928Y-73880000D01*
X122771928Y-75980000D01*
X122784188Y-76104482D01*
X122820498Y-76224180D01*
X122879463Y-76334494D01*
X122958815Y-76431185D01*
X123055506Y-76510537D01*
X123165820Y-76569502D01*
X123285518Y-76605812D01*
X123410000Y-76618072D01*
X125510000Y-76618072D01*
X125634482Y-76605812D01*
X125754180Y-76569502D01*
X125864494Y-76510537D01*
X125961185Y-76431185D01*
X126040537Y-76334494D01*
X126048042Y-76320454D01*
X126201853Y-76423228D01*
X126240001Y-76439029D01*
X126240000Y-85052678D01*
X126236324Y-85090000D01*
X126240000Y-85127322D01*
X126240000Y-85127332D01*
X126250997Y-85238985D01*
X126277089Y-85325000D01*
X126294454Y-85382246D01*
X126365026Y-85514276D01*
X126399320Y-85556063D01*
X126459999Y-85630001D01*
X126489003Y-85653804D01*
X127706201Y-86871003D01*
X127729999Y-86900001D01*
X127845724Y-86994974D01*
X127977753Y-87065546D01*
X128121014Y-87109003D01*
X128232667Y-87120000D01*
X128232676Y-87120000D01*
X128269999Y-87123676D01*
X128307322Y-87120000D01*
X128836289Y-87120000D01*
X128880226Y-87163937D01*
X129049744Y-87277205D01*
X129238102Y-87355226D01*
X129438061Y-87395000D01*
X129641939Y-87395000D01*
X129841898Y-87355226D01*
X130030256Y-87277205D01*
X130199774Y-87163937D01*
X130343937Y-87019774D01*
X130457205Y-86850256D01*
X130535226Y-86661898D01*
X130575000Y-86461939D01*
X130575000Y-86258061D01*
X130535226Y-86058102D01*
X130457205Y-85869744D01*
X130343937Y-85700226D01*
X130199774Y-85556063D01*
X130030256Y-85442795D01*
X129841898Y-85364774D01*
X129641939Y-85325000D01*
X129438061Y-85325000D01*
X129238102Y-85364774D01*
X129049744Y-85442795D01*
X128880226Y-85556063D01*
X128836289Y-85600000D01*
X128584802Y-85600000D01*
X127760000Y-84775199D01*
X127760000Y-76439029D01*
X127798147Y-76423228D01*
X128074125Y-76238825D01*
X128270000Y-76042950D01*
X128465875Y-76238825D01*
X128741853Y-76423228D01*
X129048504Y-76550246D01*
X129374042Y-76615000D01*
X129705958Y-76615000D01*
X130031496Y-76550246D01*
X130338147Y-76423228D01*
X130614125Y-76238825D01*
X130810000Y-76042950D01*
X131005875Y-76238825D01*
X131281853Y-76423228D01*
X131588504Y-76550246D01*
X131914042Y-76615000D01*
X132245958Y-76615000D01*
X132571496Y-76550246D01*
X132609644Y-76534445D01*
X139935000Y-83859802D01*
X139935000Y-83921939D01*
X139974774Y-84121898D01*
X140052795Y-84310256D01*
X140166063Y-84479774D01*
X140310226Y-84623937D01*
X140479744Y-84737205D01*
X140668102Y-84815226D01*
X140868061Y-84855000D01*
X141071939Y-84855000D01*
X141271898Y-84815226D01*
X141460256Y-84737205D01*
X141629774Y-84623937D01*
X141773937Y-84479774D01*
X141887205Y-84310256D01*
X141965226Y-84121898D01*
X142005000Y-83921939D01*
X142005000Y-83718061D01*
X141965226Y-83518102D01*
X141887205Y-83329744D01*
X141773937Y-83160226D01*
X141629774Y-83016063D01*
X141460256Y-82902795D01*
X141271898Y-82824774D01*
X141071939Y-82785000D01*
X141009802Y-82785000D01*
X138132863Y-79908061D01*
X142475000Y-79908061D01*
X142475000Y-80111939D01*
X142514774Y-80311898D01*
X142592795Y-80500256D01*
X142706063Y-80669774D01*
X142850226Y-80813937D01*
X143019744Y-80927205D01*
X143208102Y-81005226D01*
X143408061Y-81045000D01*
X143611939Y-81045000D01*
X143811898Y-81005226D01*
X144000256Y-80927205D01*
X144169774Y-80813937D01*
X144213711Y-80770000D01*
X158435199Y-80770000D01*
X163070000Y-85404802D01*
X163070001Y-91089099D01*
X163028900Y-91111068D01*
X162810393Y-91290392D01*
X162631068Y-91508899D01*
X162562735Y-91636741D01*
X162412601Y-91407161D01*
X162214895Y-91205500D01*
X161981646Y-91046285D01*
X161721818Y-90935633D01*
X161639039Y-90918096D01*
X161417000Y-91040085D01*
X161417000Y-92583000D01*
X161437000Y-92583000D01*
X161437000Y-92837000D01*
X161417000Y-92837000D01*
X161417000Y-94379915D01*
X161639039Y-94501904D01*
X161721818Y-94484367D01*
X161981646Y-94373715D01*
X162214895Y-94214500D01*
X162412601Y-94012839D01*
X162562735Y-93783258D01*
X162631068Y-93911100D01*
X162810392Y-94129607D01*
X163028899Y-94308932D01*
X163278192Y-94442182D01*
X163548691Y-94524236D01*
X163830000Y-94551943D01*
X164111308Y-94524236D01*
X164381807Y-94442182D01*
X164631100Y-94308932D01*
X164849607Y-94129608D01*
X165028932Y-93911101D01*
X165100000Y-93778142D01*
X165171068Y-93911100D01*
X165350392Y-94129607D01*
X165568899Y-94308932D01*
X165818192Y-94442182D01*
X166088691Y-94524236D01*
X166370000Y-94551943D01*
X166651308Y-94524236D01*
X166921807Y-94442182D01*
X167171100Y-94308932D01*
X167389607Y-94129608D01*
X167568932Y-93911101D01*
X167640000Y-93778142D01*
X167711068Y-93911100D01*
X167890392Y-94129607D01*
X168108899Y-94308932D01*
X168358192Y-94442182D01*
X168628691Y-94524236D01*
X168910000Y-94551943D01*
X169191308Y-94524236D01*
X169461807Y-94442182D01*
X169711100Y-94308932D01*
X169929607Y-94129608D01*
X170022419Y-94016517D01*
X170024188Y-94034482D01*
X170060498Y-94154180D01*
X170119463Y-94264494D01*
X170198815Y-94361185D01*
X170295506Y-94440537D01*
X170405820Y-94499502D01*
X170525518Y-94535812D01*
X170650000Y-94548072D01*
X172250000Y-94548072D01*
X172374482Y-94535812D01*
X172494180Y-94499502D01*
X172604494Y-94440537D01*
X172701185Y-94361185D01*
X172780537Y-94264494D01*
X172782939Y-94260000D01*
X201851928Y-94260000D01*
X201855000Y-94964250D01*
X202013750Y-95123000D01*
X204343000Y-95123000D01*
X204343000Y-93783750D01*
X204597000Y-93783750D01*
X204597000Y-95123000D01*
X206926250Y-95123000D01*
X207085000Y-94964250D01*
X207088072Y-94260000D01*
X207075812Y-94135518D01*
X207039502Y-94015820D01*
X206980537Y-93905506D01*
X206901185Y-93808815D01*
X206804494Y-93729463D01*
X206694180Y-93670498D01*
X206574482Y-93634188D01*
X206450000Y-93621928D01*
X204755750Y-93625000D01*
X204597000Y-93783750D01*
X204343000Y-93783750D01*
X204184250Y-93625000D01*
X202490000Y-93621928D01*
X202365518Y-93634188D01*
X202245820Y-93670498D01*
X202135506Y-93729463D01*
X202038815Y-93808815D01*
X201959463Y-93905506D01*
X201900498Y-94015820D01*
X201864188Y-94135518D01*
X201851928Y-94260000D01*
X172782939Y-94260000D01*
X172839502Y-94154180D01*
X172875812Y-94034482D01*
X172888072Y-93910000D01*
X172888072Y-91851806D01*
X178551801Y-91851806D01*
X178666500Y-92192754D01*
X178845511Y-92504774D01*
X179081954Y-92775875D01*
X179366743Y-92995639D01*
X179688934Y-93155621D01*
X179928195Y-93228195D01*
X180213000Y-93111432D01*
X180213000Y-91567000D01*
X180467000Y-91567000D01*
X180467000Y-93111432D01*
X180751805Y-93228195D01*
X180991066Y-93155621D01*
X181313257Y-92995639D01*
X181598046Y-92775875D01*
X181834489Y-92504774D01*
X182013500Y-92192754D01*
X182128199Y-91851806D01*
X182011854Y-91567000D01*
X180467000Y-91567000D01*
X180213000Y-91567000D01*
X178668146Y-91567000D01*
X178551801Y-91851806D01*
X172888072Y-91851806D01*
X172888072Y-91510000D01*
X172875812Y-91385518D01*
X172839502Y-91265820D01*
X172780537Y-91155506D01*
X172701185Y-91058815D01*
X172663874Y-91028194D01*
X178551801Y-91028194D01*
X178668146Y-91313000D01*
X180213000Y-91313000D01*
X180213000Y-89768568D01*
X180467000Y-89768568D01*
X180467000Y-91313000D01*
X182011854Y-91313000D01*
X182012696Y-91310937D01*
X187461928Y-91310937D01*
X187461928Y-92910937D01*
X187474188Y-93035419D01*
X187510498Y-93155117D01*
X187569463Y-93265431D01*
X187648815Y-93362122D01*
X187745506Y-93441474D01*
X187855820Y-93500439D01*
X187975518Y-93536749D01*
X188100000Y-93549009D01*
X189700000Y-93549009D01*
X189824482Y-93536749D01*
X189944180Y-93500439D01*
X190054494Y-93441474D01*
X190151185Y-93362122D01*
X190230537Y-93265431D01*
X190289502Y-93155117D01*
X190325812Y-93035419D01*
X190338072Y-92910937D01*
X190338072Y-92878072D01*
X191300000Y-92878072D01*
X191424482Y-92865812D01*
X191544180Y-92829502D01*
X191654494Y-92770537D01*
X191751185Y-92691185D01*
X191830537Y-92594494D01*
X191889502Y-92484180D01*
X191925812Y-92364482D01*
X191938072Y-92240000D01*
X191938072Y-90640000D01*
X191925812Y-90515518D01*
X191889502Y-90395820D01*
X191830537Y-90285506D01*
X191751185Y-90188815D01*
X191654494Y-90109463D01*
X191544180Y-90050498D01*
X191424482Y-90014188D01*
X191300000Y-90001928D01*
X191292785Y-90001928D01*
X191313097Y-89932702D01*
X190500000Y-89119605D01*
X189686903Y-89932702D01*
X189707215Y-90001928D01*
X189700000Y-90001928D01*
X189575518Y-90014188D01*
X189455820Y-90050498D01*
X189345506Y-90109463D01*
X189248815Y-90188815D01*
X189169463Y-90285506D01*
X189110498Y-90395820D01*
X189074188Y-90515518D01*
X189061928Y-90640000D01*
X189061928Y-90672865D01*
X188100000Y-90672865D01*
X187975518Y-90685125D01*
X187855820Y-90721435D01*
X187745506Y-90780400D01*
X187648815Y-90859752D01*
X187569463Y-90956443D01*
X187510498Y-91066757D01*
X187474188Y-91186455D01*
X187461928Y-91310937D01*
X182012696Y-91310937D01*
X182128199Y-91028194D01*
X182013500Y-90687246D01*
X181834489Y-90375226D01*
X181598046Y-90104125D01*
X181313257Y-89884361D01*
X180991066Y-89724379D01*
X180751805Y-89651805D01*
X180467000Y-89768568D01*
X180213000Y-89768568D01*
X179928195Y-89651805D01*
X179688934Y-89724379D01*
X179366743Y-89884361D01*
X179081954Y-90104125D01*
X178845511Y-90375226D01*
X178666500Y-90687246D01*
X178551801Y-91028194D01*
X172663874Y-91028194D01*
X172604494Y-90979463D01*
X172494180Y-90920498D01*
X172374482Y-90884188D01*
X172250000Y-90871928D01*
X170650000Y-90871928D01*
X170525518Y-90884188D01*
X170405820Y-90920498D01*
X170295506Y-90979463D01*
X170198815Y-91058815D01*
X170119463Y-91155506D01*
X170060498Y-91265820D01*
X170024188Y-91385518D01*
X170022419Y-91403482D01*
X169929608Y-91290392D01*
X169711101Y-91111068D01*
X169461808Y-90977818D01*
X169191309Y-90895764D01*
X168910000Y-90868057D01*
X168628692Y-90895764D01*
X168358193Y-90977818D01*
X168108900Y-91111068D01*
X167890393Y-91290392D01*
X167711068Y-91508899D01*
X167640000Y-91641858D01*
X167568932Y-91508899D01*
X167389608Y-91290392D01*
X167171101Y-91111068D01*
X166921808Y-90977818D01*
X166651309Y-90895764D01*
X166370000Y-90868057D01*
X166088692Y-90895764D01*
X165818193Y-90977818D01*
X165568900Y-91111068D01*
X165350393Y-91290392D01*
X165171068Y-91508899D01*
X165100000Y-91641858D01*
X165028932Y-91508899D01*
X164849608Y-91290392D01*
X164631101Y-91111068D01*
X164590000Y-91089099D01*
X164590000Y-89010512D01*
X189059783Y-89010512D01*
X189101213Y-89290130D01*
X189196397Y-89556292D01*
X189263329Y-89681514D01*
X189507298Y-89753097D01*
X190320395Y-88940000D01*
X189507298Y-88126903D01*
X189263329Y-88198486D01*
X189142429Y-88453996D01*
X189073700Y-88728184D01*
X189059783Y-89010512D01*
X164590000Y-89010512D01*
X164590000Y-87947298D01*
X189686903Y-87947298D01*
X190500000Y-88760395D01*
X190514143Y-88746253D01*
X190693748Y-88925858D01*
X190679605Y-88940000D01*
X191492702Y-89753097D01*
X191736671Y-89681514D01*
X191746878Y-89659943D01*
X191888184Y-89695363D01*
X192170512Y-89709280D01*
X192450130Y-89667850D01*
X192716292Y-89572666D01*
X192841514Y-89505734D01*
X192913097Y-89261765D01*
X192100000Y-88448668D01*
X192085858Y-88462811D01*
X191906253Y-88283206D01*
X191920395Y-88269063D01*
X192279605Y-88269063D01*
X193092702Y-89082160D01*
X193336671Y-89010577D01*
X193457571Y-88755067D01*
X193526300Y-88480879D01*
X193540217Y-88198551D01*
X193498787Y-87918933D01*
X193403603Y-87652771D01*
X193336671Y-87527549D01*
X193092702Y-87455966D01*
X192279605Y-88269063D01*
X191920395Y-88269063D01*
X191107298Y-87455966D01*
X190863329Y-87527549D01*
X190853122Y-87549120D01*
X190711816Y-87513700D01*
X190429488Y-87499783D01*
X190149870Y-87541213D01*
X189883708Y-87636397D01*
X189758486Y-87703329D01*
X189686903Y-87947298D01*
X164590000Y-87947298D01*
X164590000Y-87276361D01*
X191286903Y-87276361D01*
X192100000Y-88089458D01*
X192913097Y-87276361D01*
X192841514Y-87032392D01*
X192586004Y-86911492D01*
X192311816Y-86842763D01*
X192029488Y-86828846D01*
X191749870Y-86870276D01*
X191483708Y-86965460D01*
X191358486Y-87032392D01*
X191286903Y-87276361D01*
X164590000Y-87276361D01*
X164590000Y-85127323D01*
X164593676Y-85090000D01*
X164590000Y-85052677D01*
X164590000Y-85052667D01*
X164579003Y-84941014D01*
X164535546Y-84797753D01*
X164464975Y-84665725D01*
X164464974Y-84665723D01*
X164393799Y-84578997D01*
X164370001Y-84549999D01*
X164341003Y-84526201D01*
X159695739Y-79880937D01*
X178571928Y-79880937D01*
X178571928Y-81480937D01*
X178584188Y-81605419D01*
X178620498Y-81725117D01*
X178679463Y-81835431D01*
X178758815Y-81932122D01*
X178855506Y-82011474D01*
X178965820Y-82070439D01*
X179085518Y-82106749D01*
X179210000Y-82119009D01*
X180810000Y-82119009D01*
X180934482Y-82106749D01*
X181054180Y-82070439D01*
X181164494Y-82011474D01*
X181261185Y-81932122D01*
X181340537Y-81835431D01*
X181399502Y-81725117D01*
X181435812Y-81605419D01*
X181448072Y-81480937D01*
X181448072Y-81448072D01*
X182410000Y-81448072D01*
X182534482Y-81435812D01*
X182654180Y-81399502D01*
X182764494Y-81340537D01*
X182861185Y-81261185D01*
X182940537Y-81164494D01*
X182999502Y-81054180D01*
X183035812Y-80934482D01*
X183048072Y-80810000D01*
X183048072Y-79868665D01*
X189065000Y-79868665D01*
X189065000Y-80151335D01*
X189120147Y-80428574D01*
X189228320Y-80689727D01*
X189385363Y-80924759D01*
X189585241Y-81124637D01*
X189820273Y-81281680D01*
X190081426Y-81389853D01*
X190358665Y-81445000D01*
X190641335Y-81445000D01*
X190918574Y-81389853D01*
X191179727Y-81281680D01*
X191414759Y-81124637D01*
X191614637Y-80924759D01*
X191771680Y-80689727D01*
X191879853Y-80428574D01*
X191935000Y-80151335D01*
X191935000Y-79868665D01*
X191879853Y-79591426D01*
X191821273Y-79450000D01*
X196491928Y-79450000D01*
X196504188Y-79574482D01*
X196540498Y-79694180D01*
X196599463Y-79804494D01*
X196678815Y-79901185D01*
X196775506Y-79980537D01*
X196885820Y-80039502D01*
X197005518Y-80075812D01*
X197130000Y-80088072D01*
X197834250Y-80085000D01*
X197993000Y-79926250D01*
X197993000Y-77597000D01*
X198247000Y-77597000D01*
X198247000Y-79926250D01*
X198405750Y-80085000D01*
X199110000Y-80088072D01*
X199234482Y-80075812D01*
X199354180Y-80039502D01*
X199464494Y-79980537D01*
X199561185Y-79901185D01*
X199640537Y-79804494D01*
X199699502Y-79694180D01*
X199735812Y-79574482D01*
X199748072Y-79450000D01*
X199745000Y-77755750D01*
X199586250Y-77597000D01*
X198247000Y-77597000D01*
X197993000Y-77597000D01*
X196653750Y-77597000D01*
X196495000Y-77755750D01*
X196491928Y-79450000D01*
X191821273Y-79450000D01*
X191771680Y-79330273D01*
X191614637Y-79095241D01*
X191414759Y-78895363D01*
X191214131Y-78761308D01*
X191241514Y-78746671D01*
X191313097Y-78502702D01*
X190500000Y-77689605D01*
X189686903Y-78502702D01*
X189758486Y-78746671D01*
X189787341Y-78760324D01*
X189585241Y-78895363D01*
X189385363Y-79095241D01*
X189228320Y-79330273D01*
X189120147Y-79591426D01*
X189065000Y-79868665D01*
X183048072Y-79868665D01*
X183048072Y-79210000D01*
X183035812Y-79085518D01*
X182999502Y-78965820D01*
X182940537Y-78855506D01*
X182861185Y-78758815D01*
X182764494Y-78679463D01*
X182654180Y-78620498D01*
X182534482Y-78584188D01*
X182410000Y-78571928D01*
X182402785Y-78571928D01*
X182423097Y-78502702D01*
X181610000Y-77689605D01*
X180796903Y-78502702D01*
X180817215Y-78571928D01*
X180810000Y-78571928D01*
X180685518Y-78584188D01*
X180565820Y-78620498D01*
X180455506Y-78679463D01*
X180358815Y-78758815D01*
X180279463Y-78855506D01*
X180220498Y-78965820D01*
X180184188Y-79085518D01*
X180171928Y-79210000D01*
X180171928Y-79242865D01*
X179210000Y-79242865D01*
X179085518Y-79255125D01*
X178965820Y-79291435D01*
X178855506Y-79350400D01*
X178758815Y-79429752D01*
X178679463Y-79526443D01*
X178620498Y-79636757D01*
X178584188Y-79756455D01*
X178571928Y-79880937D01*
X159695739Y-79880937D01*
X159313804Y-79499003D01*
X159290001Y-79469999D01*
X159174276Y-79375026D01*
X159042247Y-79304454D01*
X158898986Y-79260997D01*
X158787333Y-79250000D01*
X158787322Y-79250000D01*
X158750000Y-79246324D01*
X158712678Y-79250000D01*
X144213711Y-79250000D01*
X144169774Y-79206063D01*
X144000256Y-79092795D01*
X143811898Y-79014774D01*
X143611939Y-78975000D01*
X143408061Y-78975000D01*
X143208102Y-79014774D01*
X143019744Y-79092795D01*
X142850226Y-79206063D01*
X142706063Y-79350226D01*
X142592795Y-79519744D01*
X142514774Y-79708102D01*
X142475000Y-79908061D01*
X138132863Y-79908061D01*
X135805314Y-77580512D01*
X180169783Y-77580512D01*
X180211213Y-77860130D01*
X180306397Y-78126292D01*
X180373329Y-78251514D01*
X180617298Y-78323097D01*
X181430395Y-77510000D01*
X180617298Y-76696903D01*
X180373329Y-76768486D01*
X180252429Y-77023996D01*
X180183700Y-77298184D01*
X180169783Y-77580512D01*
X135805314Y-77580512D01*
X134204802Y-75980000D01*
X139281928Y-75980000D01*
X139294188Y-76104482D01*
X139330498Y-76224180D01*
X139389463Y-76334494D01*
X139468815Y-76431185D01*
X139565506Y-76510537D01*
X139675820Y-76569502D01*
X139795518Y-76605812D01*
X139920000Y-76618072D01*
X140684250Y-76615000D01*
X140843000Y-76456250D01*
X140843000Y-75057000D01*
X139443750Y-75057000D01*
X139285000Y-75215750D01*
X139281928Y-75980000D01*
X134204802Y-75980000D01*
X133684445Y-75459644D01*
X133700246Y-75421496D01*
X133765000Y-75095958D01*
X133765000Y-74764042D01*
X133700246Y-74438504D01*
X133573228Y-74131853D01*
X133404945Y-73880000D01*
X139281928Y-73880000D01*
X139285000Y-74644250D01*
X139443750Y-74803000D01*
X140843000Y-74803000D01*
X140843000Y-73403750D01*
X141097000Y-73403750D01*
X141097000Y-74803000D01*
X141117000Y-74803000D01*
X141117000Y-75057000D01*
X141097000Y-75057000D01*
X141097000Y-76456250D01*
X141255750Y-76615000D01*
X142020000Y-76618072D01*
X142144482Y-76605812D01*
X142264180Y-76569502D01*
X142374494Y-76510537D01*
X142471185Y-76431185D01*
X142550537Y-76334494D01*
X142558042Y-76320454D01*
X142711853Y-76423228D01*
X143018504Y-76550246D01*
X143344042Y-76615000D01*
X143675958Y-76615000D01*
X144001496Y-76550246D01*
X144308147Y-76423228D01*
X144584125Y-76238825D01*
X144780000Y-76042950D01*
X144975875Y-76238825D01*
X145251853Y-76423228D01*
X145558504Y-76550246D01*
X145884042Y-76615000D01*
X146215958Y-76615000D01*
X146541496Y-76550246D01*
X146621040Y-76517298D01*
X180796903Y-76517298D01*
X181610000Y-77330395D01*
X181624143Y-77316253D01*
X181803748Y-77495858D01*
X181789605Y-77510000D01*
X182602702Y-78323097D01*
X182846671Y-78251514D01*
X182856878Y-78229943D01*
X182998184Y-78265363D01*
X183280512Y-78279280D01*
X183560130Y-78237850D01*
X183826292Y-78142666D01*
X183951514Y-78075734D01*
X184023097Y-77831765D01*
X183210000Y-77018668D01*
X183195858Y-77032811D01*
X183016253Y-76853206D01*
X183030395Y-76839063D01*
X183389605Y-76839063D01*
X184202702Y-77652160D01*
X184446671Y-77580577D01*
X184446701Y-77580512D01*
X189059783Y-77580512D01*
X189101213Y-77860130D01*
X189196397Y-78126292D01*
X189263329Y-78251514D01*
X189507298Y-78323097D01*
X190320395Y-77510000D01*
X190679605Y-77510000D01*
X191492702Y-78323097D01*
X191736671Y-78251514D01*
X191857571Y-77996004D01*
X191926300Y-77721816D01*
X191940217Y-77439488D01*
X191898787Y-77159870D01*
X191803603Y-76893708D01*
X191736671Y-76768486D01*
X191492702Y-76696903D01*
X190679605Y-77510000D01*
X190320395Y-77510000D01*
X189507298Y-76696903D01*
X189263329Y-76768486D01*
X189142429Y-77023996D01*
X189073700Y-77298184D01*
X189059783Y-77580512D01*
X184446701Y-77580512D01*
X184567571Y-77325067D01*
X184636300Y-77050879D01*
X184650217Y-76768551D01*
X184612990Y-76517298D01*
X189686903Y-76517298D01*
X190500000Y-77330395D01*
X191313097Y-76517298D01*
X191241514Y-76273329D01*
X190986004Y-76152429D01*
X190711816Y-76083700D01*
X190429488Y-76069783D01*
X190149870Y-76111213D01*
X189883708Y-76206397D01*
X189758486Y-76273329D01*
X189686903Y-76517298D01*
X184612990Y-76517298D01*
X184608787Y-76488933D01*
X184513603Y-76222771D01*
X184446671Y-76097549D01*
X184202702Y-76025966D01*
X183389605Y-76839063D01*
X183030395Y-76839063D01*
X182217298Y-76025966D01*
X181973329Y-76097549D01*
X181963122Y-76119120D01*
X181821816Y-76083700D01*
X181539488Y-76069783D01*
X181259870Y-76111213D01*
X180993708Y-76206397D01*
X180868486Y-76273329D01*
X180796903Y-76517298D01*
X146621040Y-76517298D01*
X146848147Y-76423228D01*
X147124125Y-76238825D01*
X147358825Y-76004125D01*
X147464239Y-75846361D01*
X182396903Y-75846361D01*
X183210000Y-76659458D01*
X184023097Y-75846361D01*
X183951514Y-75602392D01*
X183713985Y-75490000D01*
X196491928Y-75490000D01*
X196495000Y-77184250D01*
X196653750Y-77343000D01*
X197993000Y-77343000D01*
X197993000Y-75013750D01*
X198247000Y-75013750D01*
X198247000Y-77343000D01*
X199586250Y-77343000D01*
X199745000Y-77184250D01*
X199746421Y-76400177D01*
X201495000Y-76400177D01*
X201495001Y-78539824D01*
X201518514Y-78778556D01*
X201611433Y-79084869D01*
X201762326Y-79367170D01*
X201965393Y-79614608D01*
X202212831Y-79817675D01*
X202495132Y-79968568D01*
X202801445Y-80061487D01*
X203120000Y-80092862D01*
X203438556Y-80061487D01*
X203744869Y-79968568D01*
X204027170Y-79817675D01*
X204274608Y-79614608D01*
X204477675Y-79367170D01*
X204628568Y-79084869D01*
X204721487Y-78778556D01*
X204745000Y-78539824D01*
X204745000Y-76400177D01*
X206495000Y-76400177D01*
X206495001Y-78539824D01*
X206518514Y-78778556D01*
X206611433Y-79084869D01*
X206762326Y-79367170D01*
X206965393Y-79614608D01*
X207212831Y-79817675D01*
X207495132Y-79968568D01*
X207801445Y-80061487D01*
X208120000Y-80092862D01*
X208438556Y-80061487D01*
X208744869Y-79968568D01*
X209027170Y-79817675D01*
X209274608Y-79614608D01*
X209477675Y-79367170D01*
X209628568Y-79084869D01*
X209721487Y-78778556D01*
X209745000Y-78539824D01*
X209745000Y-76400176D01*
X209721487Y-76161444D01*
X209628568Y-75855131D01*
X209477675Y-75572830D01*
X209274608Y-75325392D01*
X209027169Y-75122325D01*
X208744868Y-74971432D01*
X208438555Y-74878513D01*
X208120000Y-74847138D01*
X207801444Y-74878513D01*
X207495131Y-74971432D01*
X207212830Y-75122325D01*
X206965392Y-75325392D01*
X206762325Y-75572831D01*
X206611432Y-75855132D01*
X206518513Y-76161445D01*
X206495000Y-76400177D01*
X204745000Y-76400177D01*
X204745000Y-76400176D01*
X204721487Y-76161444D01*
X204628568Y-75855131D01*
X204477675Y-75572830D01*
X204274608Y-75325392D01*
X204027169Y-75122325D01*
X203744868Y-74971432D01*
X203438555Y-74878513D01*
X203120000Y-74847138D01*
X202801444Y-74878513D01*
X202495131Y-74971432D01*
X202212830Y-75122325D01*
X201965392Y-75325392D01*
X201762325Y-75572831D01*
X201611432Y-75855132D01*
X201518513Y-76161445D01*
X201495000Y-76400177D01*
X199746421Y-76400177D01*
X199748072Y-75490000D01*
X199735812Y-75365518D01*
X199699502Y-75245820D01*
X199640537Y-75135506D01*
X199561185Y-75038815D01*
X199464494Y-74959463D01*
X199354180Y-74900498D01*
X199234482Y-74864188D01*
X199110000Y-74851928D01*
X198405750Y-74855000D01*
X198247000Y-75013750D01*
X197993000Y-75013750D01*
X197834250Y-74855000D01*
X197130000Y-74851928D01*
X197005518Y-74864188D01*
X196885820Y-74900498D01*
X196775506Y-74959463D01*
X196678815Y-75038815D01*
X196599463Y-75135506D01*
X196540498Y-75245820D01*
X196504188Y-75365518D01*
X196491928Y-75490000D01*
X183713985Y-75490000D01*
X183696004Y-75481492D01*
X183421816Y-75412763D01*
X183139488Y-75398846D01*
X182859870Y-75440276D01*
X182593708Y-75535460D01*
X182468486Y-75602392D01*
X182396903Y-75846361D01*
X147464239Y-75846361D01*
X147543228Y-75728147D01*
X147670246Y-75421496D01*
X147735000Y-75095958D01*
X147735000Y-74764042D01*
X147670246Y-74438504D01*
X147543228Y-74131853D01*
X147358825Y-73855875D01*
X147124125Y-73621175D01*
X146848147Y-73436772D01*
X146541496Y-73309754D01*
X146470848Y-73295701D01*
X218625000Y-73295701D01*
X218625000Y-73844299D01*
X218732026Y-74382354D01*
X218941965Y-74889192D01*
X219246750Y-75345334D01*
X219634666Y-75733250D01*
X220090808Y-76038035D01*
X220597646Y-76247974D01*
X221135701Y-76355000D01*
X221684299Y-76355000D01*
X222222354Y-76247974D01*
X222729192Y-76038035D01*
X223185334Y-75733250D01*
X223573250Y-75345334D01*
X223878035Y-74889192D01*
X224087974Y-74382354D01*
X224195000Y-73844299D01*
X224195000Y-73295701D01*
X224087974Y-72757646D01*
X223878035Y-72250808D01*
X223573250Y-71794666D01*
X223185334Y-71406750D01*
X222729192Y-71101965D01*
X222222354Y-70892026D01*
X221684299Y-70785000D01*
X221135701Y-70785000D01*
X220597646Y-70892026D01*
X220090808Y-71101965D01*
X219634666Y-71406750D01*
X219246750Y-71794666D01*
X218941965Y-72250808D01*
X218732026Y-72757646D01*
X218625000Y-73295701D01*
X146470848Y-73295701D01*
X146215958Y-73245000D01*
X145884042Y-73245000D01*
X145558504Y-73309754D01*
X145251853Y-73436772D01*
X144975875Y-73621175D01*
X144780000Y-73817050D01*
X144584125Y-73621175D01*
X144308147Y-73436772D01*
X144001496Y-73309754D01*
X143675958Y-73245000D01*
X143344042Y-73245000D01*
X143018504Y-73309754D01*
X142711853Y-73436772D01*
X142558042Y-73539546D01*
X142550537Y-73525506D01*
X142471185Y-73428815D01*
X142374494Y-73349463D01*
X142264180Y-73290498D01*
X142144482Y-73254188D01*
X142020000Y-73241928D01*
X141255750Y-73245000D01*
X141097000Y-73403750D01*
X140843000Y-73403750D01*
X140684250Y-73245000D01*
X139920000Y-73241928D01*
X139795518Y-73254188D01*
X139675820Y-73290498D01*
X139565506Y-73349463D01*
X139468815Y-73428815D01*
X139389463Y-73525506D01*
X139330498Y-73635820D01*
X139294188Y-73755518D01*
X139281928Y-73880000D01*
X133404945Y-73880000D01*
X133388825Y-73855875D01*
X133154125Y-73621175D01*
X132878147Y-73436772D01*
X132571496Y-73309754D01*
X132245958Y-73245000D01*
X131914042Y-73245000D01*
X131588504Y-73309754D01*
X131281853Y-73436772D01*
X131005875Y-73621175D01*
X130810000Y-73817050D01*
X130614125Y-73621175D01*
X130338147Y-73436772D01*
X130031496Y-73309754D01*
X129705958Y-73245000D01*
X129374042Y-73245000D01*
X129048504Y-73309754D01*
X128741853Y-73436772D01*
X128465875Y-73621175D01*
X128270000Y-73817050D01*
X128074125Y-73621175D01*
X127798147Y-73436772D01*
X127491496Y-73309754D01*
X127165958Y-73245000D01*
X126834042Y-73245000D01*
X126508504Y-73309754D01*
X126201853Y-73436772D01*
X126048042Y-73539546D01*
X126040537Y-73525506D01*
X125961185Y-73428815D01*
X125864494Y-73349463D01*
X125754180Y-73290498D01*
X125634482Y-73254188D01*
X125510000Y-73241928D01*
X123410000Y-73241928D01*
X123285518Y-73254188D01*
X123165820Y-73290498D01*
X123055506Y-73349463D01*
X122958815Y-73428815D01*
X122879463Y-73525506D01*
X122820498Y-73635820D01*
X122784188Y-73755518D01*
X122771928Y-73880000D01*
X109274945Y-73880000D01*
X109258825Y-73855875D01*
X109024125Y-73621175D01*
X108748147Y-73436772D01*
X108441496Y-73309754D01*
X108115958Y-73245000D01*
X107784042Y-73245000D01*
X107458504Y-73309754D01*
X107151853Y-73436772D01*
X106875875Y-73621175D01*
X106680000Y-73817050D01*
X106484125Y-73621175D01*
X106208147Y-73436772D01*
X105901496Y-73309754D01*
X105575958Y-73245000D01*
X105244042Y-73245000D01*
X104918504Y-73309754D01*
X104611853Y-73436772D01*
X104335875Y-73621175D01*
X104140000Y-73817050D01*
X103944125Y-73621175D01*
X103668147Y-73436772D01*
X103361496Y-73309754D01*
X103035958Y-73245000D01*
X102704042Y-73245000D01*
X102378504Y-73309754D01*
X102071853Y-73436772D01*
X101795875Y-73621175D01*
X101600000Y-73817050D01*
X101404125Y-73621175D01*
X101128147Y-73436772D01*
X100821496Y-73309754D01*
X100495958Y-73245000D01*
X100164042Y-73245000D01*
X99838504Y-73309754D01*
X99531853Y-73436772D01*
X99255875Y-73621175D01*
X99060000Y-73817050D01*
X98864125Y-73621175D01*
X98588147Y-73436772D01*
X98281496Y-73309754D01*
X97955958Y-73245000D01*
X97624042Y-73245000D01*
X97298504Y-73309754D01*
X96991853Y-73436772D01*
X96715875Y-73621175D01*
X96520000Y-73817050D01*
X96324125Y-73621175D01*
X96048147Y-73436772D01*
X95741496Y-73309754D01*
X95415958Y-73245000D01*
X95084042Y-73245000D01*
X94758504Y-73309754D01*
X94451853Y-73436772D01*
X94175875Y-73621175D01*
X93980000Y-73817050D01*
X93784125Y-73621175D01*
X93508147Y-73436772D01*
X93201496Y-73309754D01*
X92875958Y-73245000D01*
X92544042Y-73245000D01*
X92218504Y-73309754D01*
X91911853Y-73436772D01*
X91758042Y-73539546D01*
X91750537Y-73525506D01*
X91671185Y-73428815D01*
X91574494Y-73349463D01*
X91464180Y-73290498D01*
X91344482Y-73254188D01*
X91220000Y-73241928D01*
X90455750Y-73245000D01*
X90297000Y-73403750D01*
X90043000Y-73403750D01*
X89884250Y-73245000D01*
X89120000Y-73241928D01*
X88995518Y-73254188D01*
X88875820Y-73290498D01*
X88765506Y-73349463D01*
X88668815Y-73428815D01*
X88589463Y-73525506D01*
X88530498Y-73635820D01*
X88494188Y-73755518D01*
X88481928Y-73880000D01*
X84187898Y-73880000D01*
X84195000Y-73844299D01*
X84195000Y-73295701D01*
X84087974Y-72757646D01*
X83878035Y-72250808D01*
X83573250Y-71794666D01*
X83185334Y-71406750D01*
X82729192Y-71101965D01*
X82222354Y-70892026D01*
X81684299Y-70785000D01*
X81135701Y-70785000D01*
X80597646Y-70892026D01*
X80090808Y-71101965D01*
X79634666Y-71406750D01*
X79246750Y-71794666D01*
X78941965Y-72250808D01*
X78732026Y-72757646D01*
X78625000Y-73295701D01*
X77097103Y-73295701D01*
X77141173Y-72801917D01*
X77344656Y-72058109D01*
X77676638Y-71362095D01*
X78126626Y-70735870D01*
X78680403Y-70199223D01*
X79320451Y-69769129D01*
X80026553Y-69459171D01*
X80781457Y-69277935D01*
X81434207Y-69230000D01*
X221380608Y-69230000D01*
X222178083Y-69301173D01*
%TA.AperFunction,Conductor*%
D30*
G36*
X222178083Y-69301173D02*
G01*
X222921891Y-69504656D01*
X223617905Y-69836638D01*
X224244130Y-70286626D01*
X224780777Y-70840403D01*
X225210871Y-71480451D01*
X225520829Y-72186553D01*
X225702065Y-72941457D01*
X225750000Y-73594207D01*
X225750001Y-118540597D01*
X225678827Y-119338083D01*
X225475344Y-120081890D01*
X225143363Y-120777904D01*
X224693374Y-121404130D01*
X224139597Y-121940777D01*
X223499549Y-122370871D01*
X222793447Y-122680829D01*
X222038543Y-122862065D01*
X221385793Y-122910000D01*
X81439392Y-122910000D01*
X80641917Y-122838827D01*
X79898110Y-122635344D01*
X79202096Y-122303363D01*
X78575870Y-121853374D01*
X78039223Y-121299597D01*
X77609129Y-120659549D01*
X77299171Y-119953447D01*
X77117935Y-119198543D01*
X77070000Y-118545793D01*
X77070000Y-118295701D01*
X78625000Y-118295701D01*
X78625000Y-118844299D01*
X78732026Y-119382354D01*
X78941965Y-119889192D01*
X79246750Y-120345334D01*
X79634666Y-120733250D01*
X80090808Y-121038035D01*
X80597646Y-121247974D01*
X81135701Y-121355000D01*
X81684299Y-121355000D01*
X82222354Y-121247974D01*
X82729192Y-121038035D01*
X83185334Y-120733250D01*
X83573250Y-120345334D01*
X83878035Y-119889192D01*
X84087974Y-119382354D01*
X84195000Y-118844299D01*
X84195000Y-118295701D01*
X84087974Y-117757646D01*
X83878035Y-117250808D01*
X83573250Y-116794666D01*
X83185334Y-116406750D01*
X82729192Y-116101965D01*
X82222354Y-115892026D01*
X81684299Y-115785000D01*
X81135701Y-115785000D01*
X80597646Y-115892026D01*
X80090808Y-116101965D01*
X79634666Y-116406750D01*
X79246750Y-116794666D01*
X78941965Y-117250808D01*
X78732026Y-117757646D01*
X78625000Y-118295701D01*
X77070000Y-118295701D01*
X77070000Y-88758665D01*
X81115000Y-88758665D01*
X81115000Y-89041335D01*
X81170147Y-89318574D01*
X81278320Y-89579727D01*
X81435363Y-89814759D01*
X81635241Y-90014637D01*
X81870273Y-90171680D01*
X82131426Y-90279853D01*
X82408665Y-90335000D01*
X82691335Y-90335000D01*
X82968574Y-90279853D01*
X83229727Y-90171680D01*
X83464759Y-90014637D01*
X83664637Y-89814759D01*
X83820000Y-89582241D01*
X83975363Y-89814759D01*
X84175241Y-90014637D01*
X84410273Y-90171680D01*
X84671426Y-90279853D01*
X84948665Y-90335000D01*
X85231335Y-90335000D01*
X85508574Y-90279853D01*
X85769727Y-90171680D01*
X86004759Y-90014637D01*
X86204637Y-89814759D01*
X86360000Y-89582241D01*
X86515363Y-89814759D01*
X86715241Y-90014637D01*
X86950273Y-90171680D01*
X87211426Y-90279853D01*
X87488665Y-90335000D01*
X87771335Y-90335000D01*
X88048574Y-90279853D01*
X88309727Y-90171680D01*
X88544759Y-90014637D01*
X88744637Y-89814759D01*
X88900000Y-89582241D01*
X89055363Y-89814759D01*
X89255241Y-90014637D01*
X89490273Y-90171680D01*
X89751426Y-90279853D01*
X90028665Y-90335000D01*
X90311335Y-90335000D01*
X90588574Y-90279853D01*
X90849727Y-90171680D01*
X91084759Y-90014637D01*
X91284637Y-89814759D01*
X91440000Y-89582241D01*
X91595363Y-89814759D01*
X91795241Y-90014637D01*
X92030273Y-90171680D01*
X92291426Y-90279853D01*
X92568665Y-90335000D01*
X92851335Y-90335000D01*
X93128574Y-90279853D01*
X93389727Y-90171680D01*
X93624759Y-90014637D01*
X93824637Y-89814759D01*
X93980000Y-89582241D01*
X94135363Y-89814759D01*
X94335241Y-90014637D01*
X94570273Y-90171680D01*
X94831426Y-90279853D01*
X95108665Y-90335000D01*
X95391335Y-90335000D01*
X95668574Y-90279853D01*
X95929727Y-90171680D01*
X96164759Y-90014637D01*
X96364637Y-89814759D01*
X96520000Y-89582241D01*
X96675363Y-89814759D01*
X96875241Y-90014637D01*
X97110273Y-90171680D01*
X97371426Y-90279853D01*
X97648665Y-90335000D01*
X97931335Y-90335000D01*
X98208574Y-90279853D01*
X98469727Y-90171680D01*
X98704759Y-90014637D01*
X98904637Y-89814759D01*
X99060000Y-89582241D01*
X99215363Y-89814759D01*
X99415241Y-90014637D01*
X99650273Y-90171680D01*
X99911426Y-90279853D01*
X100188665Y-90335000D01*
X100471335Y-90335000D01*
X100748574Y-90279853D01*
X101009727Y-90171680D01*
X101244759Y-90014637D01*
X101444637Y-89814759D01*
X101600000Y-89582241D01*
X101755363Y-89814759D01*
X101955241Y-90014637D01*
X102190273Y-90171680D01*
X102451426Y-90279853D01*
X102728665Y-90335000D01*
X103011335Y-90335000D01*
X103288574Y-90279853D01*
X103549727Y-90171680D01*
X103784759Y-90014637D01*
X103984637Y-89814759D01*
X104140000Y-89582241D01*
X104295363Y-89814759D01*
X104495241Y-90014637D01*
X104650001Y-90118044D01*
X104650000Y-94935198D01*
X101088998Y-98496201D01*
X101060000Y-98519999D01*
X101036202Y-98548997D01*
X101036201Y-98548998D01*
X100965026Y-98635724D01*
X100894454Y-98767754D01*
X100874305Y-98834180D01*
X100850998Y-98911014D01*
X100840001Y-99022667D01*
X100836324Y-99060000D01*
X100840001Y-99097332D01*
X100840001Y-102798017D01*
X100748574Y-102760147D01*
X100471335Y-102705000D01*
X100188665Y-102705000D01*
X99911426Y-102760147D01*
X99650273Y-102868320D01*
X99415241Y-103025363D01*
X99215363Y-103225241D01*
X99060000Y-103457759D01*
X98904637Y-103225241D01*
X98704759Y-103025363D01*
X98469727Y-102868320D01*
X98208574Y-102760147D01*
X97931335Y-102705000D01*
X97648665Y-102705000D01*
X97371426Y-102760147D01*
X97110273Y-102868320D01*
X96875241Y-103025363D01*
X96675363Y-103225241D01*
X96520000Y-103457759D01*
X96364637Y-103225241D01*
X96164759Y-103025363D01*
X95929727Y-102868320D01*
X95668574Y-102760147D01*
X95391335Y-102705000D01*
X95108665Y-102705000D01*
X94831426Y-102760147D01*
X94570273Y-102868320D01*
X94335241Y-103025363D01*
X94135363Y-103225241D01*
X93980000Y-103457759D01*
X93824637Y-103225241D01*
X93624759Y-103025363D01*
X93389727Y-102868320D01*
X93128574Y-102760147D01*
X92851335Y-102705000D01*
X92568665Y-102705000D01*
X92291426Y-102760147D01*
X92030273Y-102868320D01*
X91795241Y-103025363D01*
X91595363Y-103225241D01*
X91440000Y-103457759D01*
X91284637Y-103225241D01*
X91084759Y-103025363D01*
X90849727Y-102868320D01*
X90588574Y-102760147D01*
X90311335Y-102705000D01*
X90028665Y-102705000D01*
X89751426Y-102760147D01*
X89490273Y-102868320D01*
X89255241Y-103025363D01*
X89055363Y-103225241D01*
X88900000Y-103457759D01*
X88744637Y-103225241D01*
X88544759Y-103025363D01*
X88309727Y-102868320D01*
X88048574Y-102760147D01*
X87771335Y-102705000D01*
X87488665Y-102705000D01*
X87211426Y-102760147D01*
X86950273Y-102868320D01*
X86715241Y-103025363D01*
X86515363Y-103225241D01*
X86360000Y-103457759D01*
X86204637Y-103225241D01*
X86004759Y-103025363D01*
X85769727Y-102868320D01*
X85508574Y-102760147D01*
X85231335Y-102705000D01*
X84948665Y-102705000D01*
X84671426Y-102760147D01*
X84410273Y-102868320D01*
X84175241Y-103025363D01*
X83975363Y-103225241D01*
X83820000Y-103457759D01*
X83664637Y-103225241D01*
X83464759Y-103025363D01*
X83229727Y-102868320D01*
X82968574Y-102760147D01*
X82691335Y-102705000D01*
X82408665Y-102705000D01*
X82131426Y-102760147D01*
X81870273Y-102868320D01*
X81635241Y-103025363D01*
X81435363Y-103225241D01*
X81278320Y-103460273D01*
X81170147Y-103721426D01*
X81115000Y-103998665D01*
X81115000Y-104281335D01*
X81170147Y-104558574D01*
X81278320Y-104819727D01*
X81435363Y-105054759D01*
X81635241Y-105254637D01*
X81870273Y-105411680D01*
X82131426Y-105519853D01*
X82408665Y-105575000D01*
X82691335Y-105575000D01*
X82968574Y-105519853D01*
X83229727Y-105411680D01*
X83464759Y-105254637D01*
X83664637Y-105054759D01*
X83820000Y-104822241D01*
X83975363Y-105054759D01*
X84175241Y-105254637D01*
X84410273Y-105411680D01*
X84671426Y-105519853D01*
X84948665Y-105575000D01*
X85231335Y-105575000D01*
X85508574Y-105519853D01*
X85769727Y-105411680D01*
X86004759Y-105254637D01*
X86204637Y-105054759D01*
X86360000Y-104822241D01*
X86515363Y-105054759D01*
X86715241Y-105254637D01*
X86950273Y-105411680D01*
X87211426Y-105519853D01*
X87488665Y-105575000D01*
X87771335Y-105575000D01*
X88048574Y-105519853D01*
X88309727Y-105411680D01*
X88544759Y-105254637D01*
X88744637Y-105054759D01*
X88900000Y-104822241D01*
X89055363Y-105054759D01*
X89255241Y-105254637D01*
X89490273Y-105411680D01*
X89751426Y-105519853D01*
X90028665Y-105575000D01*
X90311335Y-105575000D01*
X90588574Y-105519853D01*
X90849727Y-105411680D01*
X91084759Y-105254637D01*
X91284637Y-105054759D01*
X91440000Y-104822241D01*
X91595363Y-105054759D01*
X91795241Y-105254637D01*
X92030273Y-105411680D01*
X92291426Y-105519853D01*
X92568665Y-105575000D01*
X92851335Y-105575000D01*
X93128574Y-105519853D01*
X93389727Y-105411680D01*
X93624759Y-105254637D01*
X93824637Y-105054759D01*
X93980000Y-104822241D01*
X94135363Y-105054759D01*
X94335241Y-105254637D01*
X94570273Y-105411680D01*
X94831426Y-105519853D01*
X95108665Y-105575000D01*
X95391335Y-105575000D01*
X95668574Y-105519853D01*
X95929727Y-105411680D01*
X96164759Y-105254637D01*
X96364637Y-105054759D01*
X96520000Y-104822241D01*
X96675363Y-105054759D01*
X96875241Y-105254637D01*
X97110273Y-105411680D01*
X97371426Y-105519853D01*
X97648665Y-105575000D01*
X97931335Y-105575000D01*
X98208574Y-105519853D01*
X98469727Y-105411680D01*
X98704759Y-105254637D01*
X98904637Y-105054759D01*
X99060000Y-104822241D01*
X99215363Y-105054759D01*
X99415241Y-105254637D01*
X99650273Y-105411680D01*
X99911426Y-105519853D01*
X100188665Y-105575000D01*
X100471335Y-105575000D01*
X100748574Y-105519853D01*
X100840001Y-105481983D01*
X100840000Y-115330971D01*
X100801853Y-115346772D01*
X100525875Y-115531175D01*
X100330000Y-115727050D01*
X100134125Y-115531175D01*
X99858147Y-115346772D01*
X99551496Y-115219754D01*
X99225958Y-115155000D01*
X98894042Y-115155000D01*
X98568504Y-115219754D01*
X98261853Y-115346772D01*
X97985875Y-115531175D01*
X97790000Y-115727050D01*
X97594125Y-115531175D01*
X97318147Y-115346772D01*
X97011496Y-115219754D01*
X96685958Y-115155000D01*
X96354042Y-115155000D01*
X96028504Y-115219754D01*
X95721853Y-115346772D01*
X95445875Y-115531175D01*
X95250000Y-115727050D01*
X95054125Y-115531175D01*
X94778147Y-115346772D01*
X94471496Y-115219754D01*
X94145958Y-115155000D01*
X93814042Y-115155000D01*
X93488504Y-115219754D01*
X93181853Y-115346772D01*
X92905875Y-115531175D01*
X92710000Y-115727050D01*
X92514125Y-115531175D01*
X92238147Y-115346772D01*
X91931496Y-115219754D01*
X91605958Y-115155000D01*
X91274042Y-115155000D01*
X90948504Y-115219754D01*
X90641853Y-115346772D01*
X90365875Y-115531175D01*
X90131175Y-115765875D01*
X89946772Y-116041853D01*
X89819754Y-116348504D01*
X89755000Y-116674042D01*
X89755000Y-117005958D01*
X89819754Y-117331496D01*
X89946772Y-117638147D01*
X90131175Y-117914125D01*
X90365875Y-118148825D01*
X90641853Y-118333228D01*
X90948504Y-118460246D01*
X91274042Y-118525000D01*
X91605958Y-118525000D01*
X91931496Y-118460246D01*
X92238147Y-118333228D01*
X92514125Y-118148825D01*
X92710000Y-117952950D01*
X92905875Y-118148825D01*
X93181853Y-118333228D01*
X93263817Y-118367178D01*
X93274454Y-118402246D01*
X93345026Y-118534276D01*
X93384871Y-118582826D01*
X93439999Y-118650001D01*
X93469003Y-118673804D01*
X94686201Y-119891003D01*
X94709999Y-119920001D01*
X94825724Y-120014974D01*
X94957753Y-120085546D01*
X95101014Y-120129003D01*
X95212667Y-120140000D01*
X95212676Y-120140000D01*
X95249999Y-120143676D01*
X95287322Y-120140000D01*
X110452678Y-120140000D01*
X110490000Y-120143676D01*
X110527322Y-120140000D01*
X110527333Y-120140000D01*
X110638986Y-120129003D01*
X110782247Y-120085546D01*
X110914276Y-120014974D01*
X111030001Y-119920001D01*
X111053804Y-119890997D01*
X111706136Y-119238665D01*
X120485000Y-119238665D01*
X120485000Y-119521335D01*
X120540147Y-119798574D01*
X120648320Y-120059727D01*
X120805363Y-120294759D01*
X121005241Y-120494637D01*
X121240273Y-120651680D01*
X121501426Y-120759853D01*
X121778665Y-120815000D01*
X122061335Y-120815000D01*
X122338574Y-120759853D01*
X122599727Y-120651680D01*
X122834759Y-120494637D01*
X123034637Y-120294759D01*
X123191680Y-120059727D01*
X123299853Y-119798574D01*
X123355000Y-119521335D01*
X123355000Y-119238665D01*
X124295000Y-119238665D01*
X124295000Y-119521335D01*
X124350147Y-119798574D01*
X124458320Y-120059727D01*
X124615363Y-120294759D01*
X124815241Y-120494637D01*
X125050273Y-120651680D01*
X125311426Y-120759853D01*
X125588665Y-120815000D01*
X125871335Y-120815000D01*
X126148574Y-120759853D01*
X126409727Y-120651680D01*
X126644759Y-120494637D01*
X126844637Y-120294759D01*
X127001680Y-120059727D01*
X127109853Y-119798574D01*
X127165000Y-119521335D01*
X127165000Y-119238665D01*
X128105000Y-119238665D01*
X128105000Y-119521335D01*
X128160147Y-119798574D01*
X128268320Y-120059727D01*
X128425363Y-120294759D01*
X128625241Y-120494637D01*
X128860273Y-120651680D01*
X129121426Y-120759853D01*
X129398665Y-120815000D01*
X129681335Y-120815000D01*
X129958574Y-120759853D01*
X130219727Y-120651680D01*
X130454759Y-120494637D01*
X130654637Y-120294759D01*
X130811680Y-120059727D01*
X130919853Y-119798574D01*
X130975000Y-119521335D01*
X130975000Y-119238665D01*
X131915000Y-119238665D01*
X131915000Y-119521335D01*
X131970147Y-119798574D01*
X132078320Y-120059727D01*
X132235363Y-120294759D01*
X132435241Y-120494637D01*
X132670273Y-120651680D01*
X132931426Y-120759853D01*
X133208665Y-120815000D01*
X133491335Y-120815000D01*
X133768574Y-120759853D01*
X134029727Y-120651680D01*
X134264759Y-120494637D01*
X134464637Y-120294759D01*
X134621680Y-120059727D01*
X134729853Y-119798574D01*
X134785000Y-119521335D01*
X134785000Y-119238665D01*
X134729853Y-118961426D01*
X134621680Y-118700273D01*
X134464637Y-118465241D01*
X134295097Y-118295701D01*
X218625000Y-118295701D01*
X218625000Y-118844299D01*
X218732026Y-119382354D01*
X218941965Y-119889192D01*
X219246750Y-120345334D01*
X219634666Y-120733250D01*
X220090808Y-121038035D01*
X220597646Y-121247974D01*
X221135701Y-121355000D01*
X221684299Y-121355000D01*
X222222354Y-121247974D01*
X222729192Y-121038035D01*
X223185334Y-120733250D01*
X223573250Y-120345334D01*
X223878035Y-119889192D01*
X224087974Y-119382354D01*
X224195000Y-118844299D01*
X224195000Y-118295701D01*
X224087974Y-117757646D01*
X223878035Y-117250808D01*
X223573250Y-116794666D01*
X223185334Y-116406750D01*
X222729192Y-116101965D01*
X222222354Y-115892026D01*
X221684299Y-115785000D01*
X221135701Y-115785000D01*
X220597646Y-115892026D01*
X220090808Y-116101965D01*
X219634666Y-116406750D01*
X219246750Y-116794666D01*
X218941965Y-117250808D01*
X218732026Y-117757646D01*
X218625000Y-118295701D01*
X134295097Y-118295701D01*
X134264759Y-118265363D01*
X134029727Y-118108320D01*
X133768574Y-118000147D01*
X133491335Y-117945000D01*
X133208665Y-117945000D01*
X132931426Y-118000147D01*
X132670273Y-118108320D01*
X132435241Y-118265363D01*
X132235363Y-118465241D01*
X132078320Y-118700273D01*
X131970147Y-118961426D01*
X131915000Y-119238665D01*
X130975000Y-119238665D01*
X130919853Y-118961426D01*
X130811680Y-118700273D01*
X130654637Y-118465241D01*
X130454759Y-118265363D01*
X130219727Y-118108320D01*
X129958574Y-118000147D01*
X129681335Y-117945000D01*
X129398665Y-117945000D01*
X129121426Y-118000147D01*
X128860273Y-118108320D01*
X128625241Y-118265363D01*
X128425363Y-118465241D01*
X128268320Y-118700273D01*
X128160147Y-118961426D01*
X128105000Y-119238665D01*
X127165000Y-119238665D01*
X127109853Y-118961426D01*
X127001680Y-118700273D01*
X126844637Y-118465241D01*
X126644759Y-118265363D01*
X126409727Y-118108320D01*
X126148574Y-118000147D01*
X125871335Y-117945000D01*
X125588665Y-117945000D01*
X125311426Y-118000147D01*
X125050273Y-118108320D01*
X124815241Y-118265363D01*
X124615363Y-118465241D01*
X124458320Y-118700273D01*
X124350147Y-118961426D01*
X124295000Y-119238665D01*
X123355000Y-119238665D01*
X123299853Y-118961426D01*
X123191680Y-118700273D01*
X123034637Y-118465241D01*
X122834759Y-118265363D01*
X122599727Y-118108320D01*
X122338574Y-118000147D01*
X122061335Y-117945000D01*
X121778665Y-117945000D01*
X121501426Y-118000147D01*
X121240273Y-118108320D01*
X121005241Y-118265363D01*
X120805363Y-118465241D01*
X120648320Y-118700273D01*
X120540147Y-118961426D01*
X120485000Y-119238665D01*
X111706136Y-119238665D01*
X113344803Y-117600000D01*
X125692678Y-117600000D01*
X125730000Y-117603676D01*
X125767322Y-117600000D01*
X125767333Y-117600000D01*
X125878986Y-117589003D01*
X126022247Y-117545546D01*
X126154276Y-117474974D01*
X126270001Y-117380001D01*
X126293804Y-117350997D01*
X130051003Y-113593799D01*
X130080001Y-113570001D01*
X130174974Y-113454276D01*
X130245546Y-113322247D01*
X130289003Y-113178986D01*
X130300000Y-113067333D01*
X130300000Y-113067325D01*
X130303676Y-113030000D01*
X130300000Y-112992675D01*
X130300000Y-110438043D01*
X130454759Y-110334637D01*
X130654637Y-110134759D01*
X130811680Y-109899727D01*
X130919853Y-109638574D01*
X130975000Y-109361335D01*
X130975000Y-109078665D01*
X130919853Y-108801426D01*
X130811680Y-108540273D01*
X130654637Y-108305241D01*
X130454759Y-108105363D01*
X130219727Y-107948320D01*
X129958574Y-107840147D01*
X129681335Y-107785000D01*
X129398665Y-107785000D01*
X129121426Y-107840147D01*
X128860273Y-107948320D01*
X128625241Y-108105363D01*
X128425363Y-108305241D01*
X128268320Y-108540273D01*
X128160147Y-108801426D01*
X128105000Y-109078665D01*
X128105000Y-109361335D01*
X128160147Y-109638574D01*
X128268320Y-109899727D01*
X128425363Y-110134759D01*
X128625241Y-110334637D01*
X128780000Y-110438044D01*
X128780001Y-112715197D01*
X125415199Y-116080000D01*
X113067322Y-116080000D01*
X113029999Y-116076324D01*
X112992676Y-116080000D01*
X112992667Y-116080000D01*
X112881014Y-116090997D01*
X112737753Y-116134454D01*
X112605724Y-116205026D01*
X112605722Y-116205027D01*
X112605723Y-116205027D01*
X112518996Y-116276201D01*
X112518992Y-116276205D01*
X112489999Y-116299999D01*
X112466205Y-116328992D01*
X110175199Y-118620000D01*
X95564802Y-118620000D01*
X95073876Y-118129074D01*
X95250000Y-117952950D01*
X95445875Y-118148825D01*
X95721853Y-118333228D01*
X96028504Y-118460246D01*
X96354042Y-118525000D01*
X96685958Y-118525000D01*
X97011496Y-118460246D01*
X97318147Y-118333228D01*
X97594125Y-118148825D01*
X97790000Y-117952950D01*
X97985875Y-118148825D01*
X98261853Y-118333228D01*
X98568504Y-118460246D01*
X98894042Y-118525000D01*
X99225958Y-118525000D01*
X99551496Y-118460246D01*
X99858147Y-118333228D01*
X100134125Y-118148825D01*
X100330000Y-117952950D01*
X100525875Y-118148825D01*
X100801853Y-118333228D01*
X101108504Y-118460246D01*
X101434042Y-118525000D01*
X101765958Y-118525000D01*
X102091496Y-118460246D01*
X102398147Y-118333228D01*
X102674125Y-118148825D01*
X102870000Y-117952950D01*
X103065875Y-118148825D01*
X103341853Y-118333228D01*
X103648504Y-118460246D01*
X103974042Y-118525000D01*
X104305958Y-118525000D01*
X104631496Y-118460246D01*
X104938147Y-118333228D01*
X105091958Y-118230454D01*
X105099463Y-118244494D01*
X105178815Y-118341185D01*
X105275506Y-118420537D01*
X105385820Y-118479502D01*
X105505518Y-118515812D01*
X105630000Y-118528072D01*
X106394250Y-118525000D01*
X106553000Y-118366250D01*
X106553000Y-116967000D01*
X106807000Y-116967000D01*
X106807000Y-118366250D01*
X106965750Y-118525000D01*
X107730000Y-118528072D01*
X107854482Y-118515812D01*
X107974180Y-118479502D01*
X108084494Y-118420537D01*
X108181185Y-118341185D01*
X108260537Y-118244494D01*
X108319502Y-118134180D01*
X108355812Y-118014482D01*
X108368072Y-117890000D01*
X108365000Y-117125750D01*
X108206250Y-116967000D01*
X106807000Y-116967000D01*
X106553000Y-116967000D01*
X106533000Y-116967000D01*
X106533000Y-116713000D01*
X106553000Y-116713000D01*
X106553000Y-115313750D01*
X106807000Y-115313750D01*
X106807000Y-116713000D01*
X108206250Y-116713000D01*
X108365000Y-116554250D01*
X108368072Y-115790000D01*
X108355812Y-115665518D01*
X108319502Y-115545820D01*
X108260537Y-115435506D01*
X108181185Y-115338815D01*
X108084494Y-115259463D01*
X107974180Y-115200498D01*
X107854482Y-115164188D01*
X107730000Y-115151928D01*
X106965750Y-115155000D01*
X106807000Y-115313750D01*
X106553000Y-115313750D01*
X106394250Y-115155000D01*
X105630000Y-115151928D01*
X105505518Y-115164188D01*
X105385820Y-115200498D01*
X105275506Y-115259463D01*
X105178815Y-115338815D01*
X105099463Y-115435506D01*
X105091958Y-115449546D01*
X104938147Y-115346772D01*
X104631496Y-115219754D01*
X104305958Y-115155000D01*
X103974042Y-115155000D01*
X103648504Y-115219754D01*
X103341853Y-115346772D01*
X103065875Y-115531175D01*
X102870000Y-115727050D01*
X102674125Y-115531175D01*
X102398147Y-115346772D01*
X102360000Y-115330971D01*
X102360000Y-109569040D01*
X120528091Y-109569040D01*
X120622930Y-109833881D01*
X120767615Y-110075131D01*
X120956586Y-110283519D01*
X121182580Y-110451037D01*
X121436913Y-110571246D01*
X121570961Y-110611904D01*
X121793000Y-110489915D01*
X121793000Y-109347000D01*
X122047000Y-109347000D01*
X122047000Y-110489915D01*
X122269039Y-110611904D01*
X122403087Y-110571246D01*
X122657420Y-110451037D01*
X122883414Y-110283519D01*
X123072385Y-110075131D01*
X123217070Y-109833881D01*
X123311909Y-109569040D01*
X123190624Y-109347000D01*
X122047000Y-109347000D01*
X121793000Y-109347000D01*
X120649376Y-109347000D01*
X120528091Y-109569040D01*
X102360000Y-109569040D01*
X102360000Y-108870960D01*
X120528091Y-108870960D01*
X120649376Y-109093000D01*
X121793000Y-109093000D01*
X121793000Y-107950085D01*
X122047000Y-107950085D01*
X122047000Y-109093000D01*
X123190624Y-109093000D01*
X123198454Y-109078665D01*
X124295000Y-109078665D01*
X124295000Y-109361335D01*
X124350147Y-109638574D01*
X124458320Y-109899727D01*
X124615363Y-110134759D01*
X124815241Y-110334637D01*
X125050273Y-110491680D01*
X125311426Y-110599853D01*
X125588665Y-110655000D01*
X125871335Y-110655000D01*
X126148574Y-110599853D01*
X126409727Y-110491680D01*
X126644759Y-110334637D01*
X126844637Y-110134759D01*
X127001680Y-109899727D01*
X127109853Y-109638574D01*
X127165000Y-109361335D01*
X127165000Y-109078665D01*
X127109853Y-108801426D01*
X127001680Y-108540273D01*
X126844637Y-108305241D01*
X126644759Y-108105363D01*
X126409727Y-107948320D01*
X126148574Y-107840147D01*
X125871335Y-107785000D01*
X125588665Y-107785000D01*
X125311426Y-107840147D01*
X125050273Y-107948320D01*
X124815241Y-108105363D01*
X124615363Y-108305241D01*
X124458320Y-108540273D01*
X124350147Y-108801426D01*
X124295000Y-109078665D01*
X123198454Y-109078665D01*
X123311909Y-108870960D01*
X123217070Y-108606119D01*
X123072385Y-108364869D01*
X122883414Y-108156481D01*
X122657420Y-107988963D01*
X122403087Y-107868754D01*
X122269039Y-107828096D01*
X122047000Y-107950085D01*
X121793000Y-107950085D01*
X121570961Y-107828096D01*
X121436913Y-107868754D01*
X121182580Y-107988963D01*
X120956586Y-108156481D01*
X120767615Y-108364869D01*
X120622930Y-108606119D01*
X120528091Y-108870960D01*
X102360000Y-108870960D01*
X102360000Y-105481983D01*
X102451426Y-105519853D01*
X102728665Y-105575000D01*
X103011335Y-105575000D01*
X103288574Y-105519853D01*
X103549727Y-105411680D01*
X103784759Y-105254637D01*
X103984637Y-105054759D01*
X104140000Y-104822241D01*
X104295363Y-105054759D01*
X104495241Y-105254637D01*
X104730273Y-105411680D01*
X104991426Y-105519853D01*
X105268665Y-105575000D01*
X105551335Y-105575000D01*
X105828574Y-105519853D01*
X106089727Y-105411680D01*
X106324759Y-105254637D01*
X106524637Y-105054759D01*
X106680000Y-104822241D01*
X106835363Y-105054759D01*
X107035241Y-105254637D01*
X107270273Y-105411680D01*
X107531426Y-105519853D01*
X107808665Y-105575000D01*
X108091335Y-105575000D01*
X108368574Y-105519853D01*
X108629727Y-105411680D01*
X108864759Y-105254637D01*
X109064637Y-105054759D01*
X109220000Y-104822241D01*
X109375363Y-105054759D01*
X109575241Y-105254637D01*
X109810273Y-105411680D01*
X110071426Y-105519853D01*
X110348665Y-105575000D01*
X110631335Y-105575000D01*
X110908574Y-105519853D01*
X111169727Y-105411680D01*
X111404759Y-105254637D01*
X111604637Y-105054759D01*
X111760000Y-104822241D01*
X111915363Y-105054759D01*
X112115241Y-105254637D01*
X112350273Y-105411680D01*
X112611426Y-105519853D01*
X112888665Y-105575000D01*
X113171335Y-105575000D01*
X113448574Y-105519853D01*
X113709727Y-105411680D01*
X113944759Y-105254637D01*
X114144637Y-105054759D01*
X114301680Y-104819727D01*
X114306067Y-104809135D01*
X114417615Y-104995131D01*
X114606586Y-105203519D01*
X114832580Y-105371037D01*
X115086913Y-105491246D01*
X115220961Y-105531904D01*
X115443000Y-105409915D01*
X115443000Y-104267000D01*
X115423000Y-104267000D01*
X115423000Y-104013000D01*
X115443000Y-104013000D01*
X115443000Y-102870085D01*
X115697000Y-102870085D01*
X115697000Y-104013000D01*
X115717000Y-104013000D01*
X115717000Y-104267000D01*
X115697000Y-104267000D01*
X115697000Y-105409915D01*
X115919039Y-105531904D01*
X116053087Y-105491246D01*
X116307420Y-105371037D01*
X116533414Y-105203519D01*
X116722385Y-104995131D01*
X116833933Y-104809135D01*
X116838320Y-104819727D01*
X116995363Y-105054759D01*
X117195241Y-105254637D01*
X117430273Y-105411680D01*
X117691426Y-105519853D01*
X117968665Y-105575000D01*
X118251335Y-105575000D01*
X118528574Y-105519853D01*
X118789727Y-105411680D01*
X119024759Y-105254637D01*
X119224637Y-105054759D01*
X119381680Y-104819727D01*
X119489853Y-104558574D01*
X119545000Y-104281335D01*
X119545000Y-103998665D01*
X119489853Y-103721426D01*
X119381680Y-103460273D01*
X119224637Y-103225241D01*
X119024759Y-103025363D01*
X118789727Y-102868320D01*
X118528574Y-102760147D01*
X118251335Y-102705000D01*
X117968665Y-102705000D01*
X117691426Y-102760147D01*
X117430273Y-102868320D01*
X117195241Y-103025363D01*
X116995363Y-103225241D01*
X116838320Y-103460273D01*
X116833933Y-103470865D01*
X116722385Y-103284869D01*
X116533414Y-103076481D01*
X116307420Y-102908963D01*
X116053087Y-102788754D01*
X115919039Y-102748096D01*
X115697000Y-102870085D01*
X115443000Y-102870085D01*
X115220961Y-102748096D01*
X115086913Y-102788754D01*
X114832580Y-102908963D01*
X114606586Y-103076481D01*
X114417615Y-103284869D01*
X114306067Y-103470865D01*
X114301680Y-103460273D01*
X114144637Y-103225241D01*
X113944759Y-103025363D01*
X113709727Y-102868320D01*
X113448574Y-102760147D01*
X113171335Y-102705000D01*
X112888665Y-102705000D01*
X112611426Y-102760147D01*
X112350273Y-102868320D01*
X112115241Y-103025363D01*
X111915363Y-103225241D01*
X111760000Y-103457759D01*
X111604637Y-103225241D01*
X111404759Y-103025363D01*
X111169727Y-102868320D01*
X110908574Y-102760147D01*
X110631335Y-102705000D01*
X110348665Y-102705000D01*
X110071426Y-102760147D01*
X109810273Y-102868320D01*
X109575241Y-103025363D01*
X109375363Y-103225241D01*
X109220000Y-103457759D01*
X109064637Y-103225241D01*
X108864759Y-103025363D01*
X108629727Y-102868320D01*
X108368574Y-102760147D01*
X108091335Y-102705000D01*
X107808665Y-102705000D01*
X107531426Y-102760147D01*
X107270273Y-102868320D01*
X107035241Y-103025363D01*
X106835363Y-103225241D01*
X106680000Y-103457759D01*
X106524637Y-103225241D01*
X106324759Y-103025363D01*
X106089727Y-102868320D01*
X105828574Y-102760147D01*
X105551335Y-102705000D01*
X105268665Y-102705000D01*
X104991426Y-102760147D01*
X104730273Y-102868320D01*
X104495241Y-103025363D01*
X104295363Y-103225241D01*
X104140000Y-103457759D01*
X103984637Y-103225241D01*
X103784759Y-103025363D01*
X103549727Y-102868320D01*
X103288574Y-102760147D01*
X103011335Y-102705000D01*
X102728665Y-102705000D01*
X102451426Y-102760147D01*
X102360000Y-102798017D01*
X102360000Y-99374801D01*
X105921004Y-95813798D01*
X105950001Y-95790001D01*
X106044974Y-95674276D01*
X106115546Y-95542247D01*
X106159003Y-95398986D01*
X106170000Y-95287333D01*
X106170000Y-95287325D01*
X106173676Y-95250000D01*
X106170000Y-95212675D01*
X106170000Y-90118043D01*
X106324759Y-90014637D01*
X106524637Y-89814759D01*
X106680000Y-89582241D01*
X106835363Y-89814759D01*
X107035241Y-90014637D01*
X107270273Y-90171680D01*
X107531426Y-90279853D01*
X107808665Y-90335000D01*
X108091335Y-90335000D01*
X108368574Y-90279853D01*
X108629727Y-90171680D01*
X108864759Y-90014637D01*
X109064637Y-89814759D01*
X109221680Y-89579727D01*
X109226067Y-89569135D01*
X109337615Y-89755131D01*
X109526586Y-89963519D01*
X109752580Y-90131037D01*
X110006913Y-90251246D01*
X110140961Y-90291904D01*
X110363000Y-90169915D01*
X110363000Y-89027000D01*
X110343000Y-89027000D01*
X110343000Y-88773000D01*
X110363000Y-88773000D01*
X110363000Y-87630085D01*
X110617000Y-87630085D01*
X110617000Y-88773000D01*
X110637000Y-88773000D01*
X110637000Y-89027000D01*
X110617000Y-89027000D01*
X110617000Y-90169915D01*
X110839039Y-90291904D01*
X110973087Y-90251246D01*
X111227420Y-90131037D01*
X111453414Y-89963519D01*
X111642385Y-89755131D01*
X111753933Y-89569135D01*
X111758320Y-89579727D01*
X111915363Y-89814759D01*
X112115241Y-90014637D01*
X112350273Y-90171680D01*
X112611426Y-90279853D01*
X112888665Y-90335000D01*
X113171335Y-90335000D01*
X113448574Y-90279853D01*
X113709727Y-90171680D01*
X113944759Y-90014637D01*
X114144637Y-89814759D01*
X114300000Y-89582241D01*
X114455363Y-89814759D01*
X114655241Y-90014637D01*
X114890273Y-90171680D01*
X115151426Y-90279853D01*
X115428665Y-90335000D01*
X115711335Y-90335000D01*
X115988574Y-90279853D01*
X116249727Y-90171680D01*
X116484759Y-90014637D01*
X116683357Y-89816039D01*
X116684188Y-89824482D01*
X116720498Y-89944180D01*
X116779463Y-90054494D01*
X116858815Y-90151185D01*
X116955506Y-90230537D01*
X117065820Y-90289502D01*
X117185518Y-90325812D01*
X117310000Y-90338072D01*
X118910000Y-90338072D01*
X119034482Y-90325812D01*
X119154180Y-90289502D01*
X119264494Y-90230537D01*
X119361185Y-90151185D01*
X119440537Y-90054494D01*
X119499502Y-89944180D01*
X119535812Y-89824482D01*
X119548072Y-89700000D01*
X119548072Y-88100000D01*
X119535812Y-87975518D01*
X119499502Y-87855820D01*
X119440537Y-87745506D01*
X119361185Y-87648815D01*
X119264494Y-87569463D01*
X119154180Y-87510498D01*
X119034482Y-87474188D01*
X118910000Y-87461928D01*
X117310000Y-87461928D01*
X117185518Y-87474188D01*
X117065820Y-87510498D01*
X116955506Y-87569463D01*
X116858815Y-87648815D01*
X116779463Y-87745506D01*
X116720498Y-87855820D01*
X116684188Y-87975518D01*
X116683357Y-87983961D01*
X116484759Y-87785363D01*
X116249727Y-87628320D01*
X115988574Y-87520147D01*
X115711335Y-87465000D01*
X115428665Y-87465000D01*
X115151426Y-87520147D01*
X114890273Y-87628320D01*
X114655241Y-87785363D01*
X114455363Y-87985241D01*
X114300000Y-88217759D01*
X114144637Y-87985241D01*
X113944759Y-87785363D01*
X113709727Y-87628320D01*
X113448574Y-87520147D01*
X113171335Y-87465000D01*
X112888665Y-87465000D01*
X112611426Y-87520147D01*
X112350273Y-87628320D01*
X112115241Y-87785363D01*
X111915363Y-87985241D01*
X111758320Y-88220273D01*
X111753933Y-88230865D01*
X111642385Y-88044869D01*
X111453414Y-87836481D01*
X111227420Y-87668963D01*
X110973087Y-87548754D01*
X110839039Y-87508096D01*
X110617000Y-87630085D01*
X110363000Y-87630085D01*
X110140961Y-87508096D01*
X110006913Y-87548754D01*
X109752580Y-87668963D01*
X109526586Y-87836481D01*
X109337615Y-88044869D01*
X109226067Y-88230865D01*
X109221680Y-88220273D01*
X109064637Y-87985241D01*
X108864759Y-87785363D01*
X108629727Y-87628320D01*
X108368574Y-87520147D01*
X108091335Y-87465000D01*
X107808665Y-87465000D01*
X107531426Y-87520147D01*
X107270273Y-87628320D01*
X107035241Y-87785363D01*
X106835363Y-87985241D01*
X106680000Y-88217759D01*
X106524637Y-87985241D01*
X106324759Y-87785363D01*
X106089727Y-87628320D01*
X105828574Y-87520147D01*
X105551335Y-87465000D01*
X105268665Y-87465000D01*
X104991426Y-87520147D01*
X104730273Y-87628320D01*
X104495241Y-87785363D01*
X104295363Y-87985241D01*
X104140000Y-88217759D01*
X103984637Y-87985241D01*
X103784759Y-87785363D01*
X103549727Y-87628320D01*
X103288574Y-87520147D01*
X103011335Y-87465000D01*
X102728665Y-87465000D01*
X102451426Y-87520147D01*
X102190273Y-87628320D01*
X101955241Y-87785363D01*
X101755363Y-87985241D01*
X101600000Y-88217759D01*
X101444637Y-87985241D01*
X101244759Y-87785363D01*
X101009727Y-87628320D01*
X100748574Y-87520147D01*
X100471335Y-87465000D01*
X100188665Y-87465000D01*
X99911426Y-87520147D01*
X99650273Y-87628320D01*
X99415241Y-87785363D01*
X99215363Y-87985241D01*
X99060000Y-88217759D01*
X98904637Y-87985241D01*
X98704759Y-87785363D01*
X98469727Y-87628320D01*
X98208574Y-87520147D01*
X97931335Y-87465000D01*
X97648665Y-87465000D01*
X97371426Y-87520147D01*
X97110273Y-87628320D01*
X96875241Y-87785363D01*
X96675363Y-87985241D01*
X96520000Y-88217759D01*
X96364637Y-87985241D01*
X96164759Y-87785363D01*
X95929727Y-87628320D01*
X95668574Y-87520147D01*
X95391335Y-87465000D01*
X95108665Y-87465000D01*
X94831426Y-87520147D01*
X94570273Y-87628320D01*
X94335241Y-87785363D01*
X94135363Y-87985241D01*
X93980000Y-88217759D01*
X93824637Y-87985241D01*
X93624759Y-87785363D01*
X93389727Y-87628320D01*
X93128574Y-87520147D01*
X92851335Y-87465000D01*
X92568665Y-87465000D01*
X92291426Y-87520147D01*
X92030273Y-87628320D01*
X91795241Y-87785363D01*
X91595363Y-87985241D01*
X91440000Y-88217759D01*
X91284637Y-87985241D01*
X91084759Y-87785363D01*
X90930000Y-87681957D01*
X90930000Y-86674801D01*
X93024803Y-84580000D01*
X112326289Y-84580000D01*
X112370226Y-84623937D01*
X112539744Y-84737205D01*
X112728102Y-84815226D01*
X112928061Y-84855000D01*
X113131939Y-84855000D01*
X113331898Y-84815226D01*
X113520256Y-84737205D01*
X113689774Y-84623937D01*
X113833937Y-84479774D01*
X113947205Y-84310256D01*
X114025226Y-84121898D01*
X114065000Y-83921939D01*
X114065000Y-83718061D01*
X114025226Y-83518102D01*
X113947205Y-83329744D01*
X113833937Y-83160226D01*
X113689774Y-83016063D01*
X113520256Y-82902795D01*
X113331898Y-82824774D01*
X113131939Y-82785000D01*
X112928061Y-82785000D01*
X112728102Y-82824774D01*
X112539744Y-82902795D01*
X112370226Y-83016063D01*
X112326289Y-83060000D01*
X92747322Y-83060000D01*
X92709999Y-83056324D01*
X92672676Y-83060000D01*
X92672667Y-83060000D01*
X92561014Y-83070997D01*
X92417753Y-83114454D01*
X92285724Y-83185026D01*
X92285722Y-83185027D01*
X92285723Y-83185027D01*
X92198996Y-83256201D01*
X92198992Y-83256205D01*
X92169999Y-83279999D01*
X92146205Y-83308992D01*
X89659003Y-85796196D01*
X89629999Y-85819999D01*
X89589175Y-85869744D01*
X89535026Y-85935724D01*
X89469613Y-86058102D01*
X89464454Y-86067754D01*
X89420997Y-86211015D01*
X89410000Y-86322668D01*
X89410000Y-86322678D01*
X89406324Y-86360000D01*
X89410000Y-86397323D01*
X89410001Y-87681956D01*
X89255241Y-87785363D01*
X89055363Y-87985241D01*
X88900000Y-88217759D01*
X88744637Y-87985241D01*
X88544759Y-87785363D01*
X88309727Y-87628320D01*
X88048574Y-87520147D01*
X87771335Y-87465000D01*
X87488665Y-87465000D01*
X87211426Y-87520147D01*
X86950273Y-87628320D01*
X86715241Y-87785363D01*
X86515363Y-87985241D01*
X86360000Y-88217759D01*
X86204637Y-87985241D01*
X86004759Y-87785363D01*
X85769727Y-87628320D01*
X85508574Y-87520147D01*
X85231335Y-87465000D01*
X84948665Y-87465000D01*
X84671426Y-87520147D01*
X84410273Y-87628320D01*
X84175241Y-87785363D01*
X83975363Y-87985241D01*
X83820000Y-88217759D01*
X83664637Y-87985241D01*
X83464759Y-87785363D01*
X83229727Y-87628320D01*
X82968574Y-87520147D01*
X82691335Y-87465000D01*
X82408665Y-87465000D01*
X82131426Y-87520147D01*
X81870273Y-87628320D01*
X81635241Y-87785363D01*
X81435363Y-87985241D01*
X81278320Y-88220273D01*
X81170147Y-88481426D01*
X81115000Y-88758665D01*
X77070000Y-88758665D01*
X77070000Y-81178061D01*
X94215000Y-81178061D01*
X94215000Y-81381939D01*
X94254774Y-81581898D01*
X94332795Y-81770256D01*
X94446063Y-81939774D01*
X94590226Y-82083937D01*
X94759744Y-82197205D01*
X94948102Y-82275226D01*
X95148061Y-82315000D01*
X95351939Y-82315000D01*
X95551898Y-82275226D01*
X95740256Y-82197205D01*
X95909774Y-82083937D01*
X95953711Y-82040000D01*
X107246289Y-82040000D01*
X107290226Y-82083937D01*
X107459744Y-82197205D01*
X107648102Y-82275226D01*
X107848061Y-82315000D01*
X108051939Y-82315000D01*
X108251898Y-82275226D01*
X108440256Y-82197205D01*
X108609774Y-82083937D01*
X108753937Y-81939774D01*
X108867205Y-81770256D01*
X108945226Y-81581898D01*
X108985000Y-81381939D01*
X108985000Y-81178061D01*
X108945226Y-80978102D01*
X108867205Y-80789744D01*
X108753937Y-80620226D01*
X108609774Y-80476063D01*
X108440256Y-80362795D01*
X108251898Y-80284774D01*
X108051939Y-80245000D01*
X107848061Y-80245000D01*
X107648102Y-80284774D01*
X107459744Y-80362795D01*
X107290226Y-80476063D01*
X107246289Y-80520000D01*
X95953711Y-80520000D01*
X95909774Y-80476063D01*
X95740256Y-80362795D01*
X95551898Y-80284774D01*
X95351939Y-80245000D01*
X95148061Y-80245000D01*
X94948102Y-80284774D01*
X94759744Y-80362795D01*
X94590226Y-80476063D01*
X94446063Y-80620226D01*
X94332795Y-80789744D01*
X94254774Y-80978102D01*
X94215000Y-81178061D01*
X77070000Y-81178061D01*
X77070000Y-78740000D01*
X117346324Y-78740000D01*
X117360998Y-78888985D01*
X117404454Y-79032246D01*
X117475026Y-79164276D01*
X117546201Y-79251002D01*
X121160001Y-82864803D01*
X121160000Y-99022678D01*
X121156324Y-99060000D01*
X121160000Y-99097322D01*
X121160000Y-99097332D01*
X121170997Y-99208985D01*
X121191424Y-99276324D01*
X121214454Y-99352246D01*
X121285026Y-99484276D01*
X121302130Y-99505117D01*
X121379999Y-99600001D01*
X121409003Y-99623804D01*
X125166200Y-103381002D01*
X125189999Y-103410001D01*
X125305724Y-103504974D01*
X125437753Y-103575546D01*
X125581014Y-103619003D01*
X125692667Y-103630000D01*
X125692675Y-103630000D01*
X125730000Y-103633676D01*
X125767325Y-103630000D01*
X129225199Y-103630000D01*
X132590001Y-106994803D01*
X132590000Y-108001956D01*
X132435241Y-108105363D01*
X132235363Y-108305241D01*
X132078320Y-108540273D01*
X131970147Y-108801426D01*
X131915000Y-109078665D01*
X131915000Y-109361335D01*
X131970147Y-109638574D01*
X132078320Y-109899727D01*
X132235363Y-110134759D01*
X132435241Y-110334637D01*
X132670273Y-110491680D01*
X132931426Y-110599853D01*
X133208665Y-110655000D01*
X133491335Y-110655000D01*
X133768574Y-110599853D01*
X134029727Y-110491680D01*
X134264759Y-110334637D01*
X134464637Y-110134759D01*
X134621680Y-109899727D01*
X134729853Y-109638574D01*
X134785000Y-109361335D01*
X134785000Y-109078665D01*
X134729853Y-108801426D01*
X134621680Y-108540273D01*
X134464637Y-108305241D01*
X134264759Y-108105363D01*
X134110000Y-108001957D01*
X134110000Y-106717325D01*
X134113676Y-106680000D01*
X134110000Y-106642675D01*
X134110000Y-106642667D01*
X134099003Y-106531014D01*
X134055546Y-106387753D01*
X133984974Y-106255724D01*
X133890001Y-106139999D01*
X133861003Y-106116201D01*
X130103804Y-102359003D01*
X130080001Y-102329999D01*
X129964276Y-102235026D01*
X129832247Y-102164454D01*
X129688986Y-102120997D01*
X129577333Y-102110000D01*
X129577322Y-102110000D01*
X129540000Y-102106324D01*
X129502678Y-102110000D01*
X126044802Y-102110000D01*
X122680000Y-98745199D01*
X122680000Y-97648665D01*
X129375000Y-97648665D01*
X129375000Y-97931335D01*
X129430147Y-98208574D01*
X129538320Y-98469727D01*
X129695363Y-98704759D01*
X129895241Y-98904637D01*
X130130273Y-99061680D01*
X130391426Y-99169853D01*
X130668665Y-99225000D01*
X130951335Y-99225000D01*
X131228574Y-99169853D01*
X131489727Y-99061680D01*
X131724759Y-98904637D01*
X131924637Y-98704759D01*
X132081680Y-98469727D01*
X132189853Y-98208574D01*
X132245000Y-97931335D01*
X132245000Y-97660937D01*
X137931928Y-97660937D01*
X137931928Y-99260937D01*
X137944188Y-99385419D01*
X137980498Y-99505117D01*
X138039463Y-99615431D01*
X138118815Y-99712122D01*
X138215506Y-99791474D01*
X138325820Y-99850439D01*
X138445518Y-99886749D01*
X138570000Y-99899009D01*
X140170000Y-99899009D01*
X140294482Y-99886749D01*
X140384283Y-99859508D01*
X149695000Y-99859508D01*
X149695000Y-100800491D01*
X149715764Y-101011308D01*
X149797818Y-101281807D01*
X149931068Y-101531100D01*
X149995001Y-101609002D01*
X149995000Y-109164248D01*
X149989509Y-109220000D01*
X149995000Y-109275751D01*
X150011423Y-109442498D01*
X150076324Y-109656446D01*
X150181716Y-109853623D01*
X150323551Y-110026449D01*
X150366865Y-110061996D01*
X156638009Y-116333141D01*
X156673551Y-116376449D01*
X156846377Y-116518284D01*
X157043553Y-116623676D01*
X157177076Y-116664180D01*
X157257500Y-116688577D01*
X157479999Y-116710491D01*
X157535751Y-116705000D01*
X181462317Y-116705000D01*
X181499463Y-116774494D01*
X181578815Y-116871185D01*
X181675506Y-116950537D01*
X181785820Y-117009502D01*
X181905518Y-117045812D01*
X182030000Y-117058072D01*
X183730000Y-117058072D01*
X183854482Y-117045812D01*
X183974180Y-117009502D01*
X184084494Y-116950537D01*
X184181185Y-116871185D01*
X184260537Y-116774494D01*
X184319502Y-116664180D01*
X184355812Y-116544482D01*
X184368072Y-116420000D01*
X184368072Y-114720000D01*
X184355812Y-114595518D01*
X184319502Y-114475820D01*
X184260537Y-114365506D01*
X184181185Y-114268815D01*
X184084494Y-114189463D01*
X183974180Y-114130498D01*
X183893534Y-114106034D01*
X183977588Y-114030269D01*
X184151641Y-113796920D01*
X184276825Y-113534099D01*
X184321476Y-113386890D01*
X184200155Y-113157000D01*
X183007000Y-113157000D01*
X183007000Y-113177000D01*
X182753000Y-113177000D01*
X182753000Y-113157000D01*
X181559845Y-113157000D01*
X181438524Y-113386890D01*
X181483175Y-113534099D01*
X181608359Y-113796920D01*
X181782412Y-114030269D01*
X181866466Y-114106034D01*
X181785820Y-114130498D01*
X181675506Y-114189463D01*
X181578815Y-114268815D01*
X181499463Y-114365506D01*
X181462317Y-114435000D01*
X157950132Y-114435000D01*
X153858872Y-110343740D01*
X181395000Y-110343740D01*
X181395000Y-110636260D01*
X181452068Y-110923158D01*
X181564010Y-111193411D01*
X181726525Y-111436632D01*
X181933368Y-111643475D01*
X182115534Y-111765195D01*
X181998645Y-111834822D01*
X181782412Y-112029731D01*
X181608359Y-112263080D01*
X181483175Y-112525901D01*
X181438524Y-112673110D01*
X181559845Y-112903000D01*
X182753000Y-112903000D01*
X182753000Y-112883000D01*
X183007000Y-112883000D01*
X183007000Y-112903000D01*
X184200155Y-112903000D01*
X184321476Y-112673110D01*
X184276825Y-112525901D01*
X184151641Y-112263080D01*
X183977588Y-112029731D01*
X183761355Y-111834822D01*
X183644466Y-111765195D01*
X183826632Y-111643475D01*
X184033475Y-111436632D01*
X184195990Y-111193411D01*
X184307932Y-110923158D01*
X184365000Y-110636260D01*
X184365000Y-110343740D01*
X184307932Y-110056842D01*
X184195990Y-109786589D01*
X184033475Y-109543368D01*
X183826632Y-109336525D01*
X183583411Y-109174010D01*
X183313158Y-109062068D01*
X183026260Y-109005000D01*
X182733740Y-109005000D01*
X182446842Y-109062068D01*
X182176589Y-109174010D01*
X181933368Y-109336525D01*
X181726525Y-109543368D01*
X181564010Y-109786589D01*
X181452068Y-110056842D01*
X181395000Y-110343740D01*
X153858872Y-110343740D01*
X152265000Y-108749869D01*
X152265000Y-101609002D01*
X152328932Y-101531101D01*
X152400000Y-101398142D01*
X152471068Y-101531100D01*
X152650392Y-101749607D01*
X152868899Y-101928932D01*
X153118192Y-102062182D01*
X153388691Y-102144236D01*
X153670000Y-102171943D01*
X153951308Y-102144236D01*
X154221807Y-102062182D01*
X154471100Y-101928932D01*
X154689607Y-101749608D01*
X154868932Y-101531101D01*
X154940000Y-101398142D01*
X155011068Y-101531100D01*
X155190392Y-101749607D01*
X155408899Y-101928932D01*
X155658192Y-102062182D01*
X155928691Y-102144236D01*
X156210000Y-102171943D01*
X156491308Y-102144236D01*
X156761807Y-102062182D01*
X157011100Y-101928932D01*
X157229607Y-101749608D01*
X157408932Y-101531101D01*
X157480000Y-101398142D01*
X157551068Y-101531100D01*
X157730392Y-101749607D01*
X157948899Y-101928932D01*
X158198192Y-102062182D01*
X158468691Y-102144236D01*
X158750000Y-102171943D01*
X159031308Y-102144236D01*
X159301807Y-102062182D01*
X159551100Y-101928932D01*
X159769607Y-101749608D01*
X159948932Y-101531101D01*
X160020000Y-101398142D01*
X160091068Y-101531100D01*
X160270392Y-101749607D01*
X160488899Y-101928932D01*
X160738192Y-102062182D01*
X161008691Y-102144236D01*
X161290000Y-102171943D01*
X161571308Y-102144236D01*
X161841807Y-102062182D01*
X162091100Y-101928932D01*
X162309607Y-101749608D01*
X162488932Y-101531101D01*
X162560000Y-101398142D01*
X162631068Y-101531100D01*
X162810392Y-101749607D01*
X163028899Y-101928932D01*
X163278192Y-102062182D01*
X163548691Y-102144236D01*
X163830000Y-102171943D01*
X164111308Y-102144236D01*
X164381807Y-102062182D01*
X164631100Y-101928932D01*
X164849607Y-101749608D01*
X165028932Y-101531101D01*
X165100000Y-101398142D01*
X165171068Y-101531100D01*
X165350392Y-101749607D01*
X165568899Y-101928932D01*
X165818192Y-102062182D01*
X166088691Y-102144236D01*
X166370000Y-102171943D01*
X166651308Y-102144236D01*
X166921807Y-102062182D01*
X167171100Y-101928932D01*
X167389607Y-101749608D01*
X167568932Y-101531101D01*
X167640000Y-101398142D01*
X167711068Y-101531100D01*
X167890392Y-101749607D01*
X168108899Y-101928932D01*
X168358192Y-102062182D01*
X168628691Y-102144236D01*
X168910000Y-102171943D01*
X169191308Y-102144236D01*
X169461807Y-102062182D01*
X169711100Y-101928932D01*
X169929607Y-101749608D01*
X170108932Y-101531101D01*
X170180000Y-101398142D01*
X170251068Y-101531100D01*
X170430392Y-101749607D01*
X170648899Y-101928932D01*
X170898192Y-102062182D01*
X171168691Y-102144236D01*
X171450000Y-102171943D01*
X171731308Y-102144236D01*
X172001807Y-102062182D01*
X172251100Y-101928932D01*
X172469607Y-101749608D01*
X172648932Y-101531101D01*
X172782182Y-101281808D01*
X172864236Y-101011309D01*
X172885000Y-100800492D01*
X172885000Y-100400000D01*
X178501928Y-100400000D01*
X178501928Y-102800000D01*
X178514188Y-102924482D01*
X178550498Y-103044180D01*
X178609463Y-103154494D01*
X178688815Y-103251185D01*
X178785506Y-103330537D01*
X178895820Y-103389502D01*
X179015518Y-103425812D01*
X179140000Y-103438072D01*
X181540000Y-103438072D01*
X181664482Y-103425812D01*
X181784180Y-103389502D01*
X181894494Y-103330537D01*
X181991185Y-103251185D01*
X182070537Y-103154494D01*
X182129502Y-103044180D01*
X182165812Y-102924482D01*
X182178072Y-102800000D01*
X182178072Y-100534916D01*
X191790000Y-100534916D01*
X191790000Y-100785084D01*
X191838805Y-101030445D01*
X191934541Y-101261571D01*
X192073527Y-101469578D01*
X192250422Y-101646473D01*
X192458429Y-101785459D01*
X192689555Y-101881195D01*
X192934916Y-101930000D01*
X193185084Y-101930000D01*
X193430445Y-101881195D01*
X193661571Y-101785459D01*
X193869578Y-101646473D01*
X194046473Y-101469578D01*
X194185459Y-101261571D01*
X194281195Y-101030445D01*
X194330000Y-100785084D01*
X194330000Y-100534916D01*
X194281195Y-100289555D01*
X194264811Y-100250000D01*
X201847138Y-100250000D01*
X201878513Y-100568556D01*
X201971432Y-100874869D01*
X202122325Y-101157170D01*
X202325392Y-101404608D01*
X202572830Y-101607675D01*
X202855131Y-101758568D01*
X203161444Y-101851487D01*
X203400176Y-101875000D01*
X205539824Y-101875000D01*
X205778556Y-101851487D01*
X206084869Y-101758568D01*
X206367170Y-101607675D01*
X206614608Y-101404608D01*
X206817675Y-101157170D01*
X206968568Y-100874869D01*
X207061487Y-100568556D01*
X207092862Y-100250000D01*
X207061487Y-99931444D01*
X206968568Y-99625131D01*
X206817675Y-99342830D01*
X206614608Y-99095392D01*
X206367170Y-98892325D01*
X206084869Y-98741432D01*
X205778556Y-98648513D01*
X205539824Y-98625000D01*
X203400176Y-98625000D01*
X203161444Y-98648513D01*
X202855131Y-98741432D01*
X202572830Y-98892325D01*
X202325392Y-99095392D01*
X202122325Y-99342830D01*
X201971432Y-99625131D01*
X201878513Y-99931444D01*
X201847138Y-100250000D01*
X194264811Y-100250000D01*
X194185459Y-100058429D01*
X194046473Y-99850422D01*
X193869578Y-99673527D01*
X193661571Y-99534541D01*
X193430445Y-99438805D01*
X193185084Y-99390000D01*
X192934916Y-99390000D01*
X192689555Y-99438805D01*
X192458429Y-99534541D01*
X192250422Y-99673527D01*
X192073527Y-99850422D01*
X191934541Y-100058429D01*
X191838805Y-100289555D01*
X191790000Y-100534916D01*
X182178072Y-100534916D01*
X182178072Y-100400000D01*
X182165812Y-100275518D01*
X182129502Y-100155820D01*
X182070537Y-100045506D01*
X181991185Y-99948815D01*
X181894494Y-99869463D01*
X181784180Y-99810498D01*
X181664482Y-99774188D01*
X181540000Y-99761928D01*
X179140000Y-99761928D01*
X179015518Y-99774188D01*
X178895820Y-99810498D01*
X178785506Y-99869463D01*
X178688815Y-99948815D01*
X178609463Y-100045506D01*
X178550498Y-100155820D01*
X178514188Y-100275518D01*
X178501928Y-100400000D01*
X172885000Y-100400000D01*
X172885000Y-99859509D01*
X172864236Y-99648691D01*
X172782182Y-99378192D01*
X172648932Y-99128899D01*
X172489735Y-98934916D01*
X186690000Y-98934916D01*
X186690000Y-99185084D01*
X186738805Y-99430445D01*
X186834541Y-99661571D01*
X186973527Y-99869578D01*
X187150422Y-100046473D01*
X187358429Y-100185459D01*
X187589555Y-100281195D01*
X187834916Y-100330000D01*
X188085084Y-100330000D01*
X188330445Y-100281195D01*
X188561571Y-100185459D01*
X188769578Y-100046473D01*
X188946473Y-99869578D01*
X189085459Y-99661571D01*
X189181195Y-99430445D01*
X189230000Y-99185084D01*
X189230000Y-98934916D01*
X189181195Y-98689555D01*
X189085459Y-98458429D01*
X188946473Y-98250422D01*
X188769578Y-98073527D01*
X188561571Y-97934541D01*
X188330445Y-97838805D01*
X188085084Y-97790000D01*
X187834916Y-97790000D01*
X187589555Y-97838805D01*
X187358429Y-97934541D01*
X187150422Y-98073527D01*
X186973527Y-98250422D01*
X186834541Y-98458429D01*
X186738805Y-98689555D01*
X186690000Y-98934916D01*
X172489735Y-98934916D01*
X172469608Y-98910392D01*
X172251101Y-98731068D01*
X172001808Y-98597818D01*
X171731309Y-98515764D01*
X171450000Y-98488057D01*
X171168692Y-98515764D01*
X170898193Y-98597818D01*
X170648900Y-98731068D01*
X170430393Y-98910392D01*
X170251068Y-99128899D01*
X170180000Y-99261858D01*
X170108932Y-99128899D01*
X169929608Y-98910392D01*
X169711101Y-98731068D01*
X169461808Y-98597818D01*
X169191309Y-98515764D01*
X168910000Y-98488057D01*
X168628692Y-98515764D01*
X168358193Y-98597818D01*
X168108900Y-98731068D01*
X167890393Y-98910392D01*
X167711068Y-99128899D01*
X167640000Y-99261858D01*
X167568932Y-99128899D01*
X167389608Y-98910392D01*
X167171101Y-98731068D01*
X166921808Y-98597818D01*
X166651309Y-98515764D01*
X166370000Y-98488057D01*
X166088692Y-98515764D01*
X165818193Y-98597818D01*
X165568900Y-98731068D01*
X165350393Y-98910392D01*
X165171068Y-99128899D01*
X165100000Y-99261858D01*
X165028932Y-99128899D01*
X164849608Y-98910392D01*
X164631101Y-98731068D01*
X164381808Y-98597818D01*
X164111309Y-98515764D01*
X163830000Y-98488057D01*
X163548692Y-98515764D01*
X163278193Y-98597818D01*
X163028900Y-98731068D01*
X162810393Y-98910392D01*
X162631068Y-99128899D01*
X162560000Y-99261858D01*
X162488932Y-99128899D01*
X162309608Y-98910392D01*
X162091101Y-98731068D01*
X161841808Y-98597818D01*
X161571309Y-98515764D01*
X161290000Y-98488057D01*
X161008692Y-98515764D01*
X160738193Y-98597818D01*
X160488900Y-98731068D01*
X160270393Y-98910392D01*
X160091068Y-99128899D01*
X160020000Y-99261858D01*
X159948932Y-99128899D01*
X159769608Y-98910392D01*
X159551101Y-98731068D01*
X159301808Y-98597818D01*
X159031309Y-98515764D01*
X158750000Y-98488057D01*
X158468692Y-98515764D01*
X158198193Y-98597818D01*
X157948900Y-98731068D01*
X157730393Y-98910392D01*
X157551068Y-99128899D01*
X157480000Y-99261858D01*
X157408932Y-99128899D01*
X157229608Y-98910392D01*
X157011101Y-98731068D01*
X156761808Y-98597818D01*
X156491309Y-98515764D01*
X156210000Y-98488057D01*
X155928692Y-98515764D01*
X155658193Y-98597818D01*
X155408900Y-98731068D01*
X155190393Y-98910392D01*
X155011068Y-99128899D01*
X154940000Y-99261858D01*
X154868932Y-99128899D01*
X154689608Y-98910392D01*
X154471101Y-98731068D01*
X154221808Y-98597818D01*
X153951309Y-98515764D01*
X153670000Y-98488057D01*
X153388692Y-98515764D01*
X153118193Y-98597818D01*
X152868900Y-98731068D01*
X152650393Y-98910392D01*
X152471068Y-99128899D01*
X152400000Y-99261858D01*
X152328932Y-99128899D01*
X152149608Y-98910392D01*
X151931101Y-98731068D01*
X151681808Y-98597818D01*
X151411309Y-98515764D01*
X151130000Y-98488057D01*
X150848692Y-98515764D01*
X150578193Y-98597818D01*
X150328900Y-98731068D01*
X150110393Y-98910392D01*
X149931068Y-99128899D01*
X149797818Y-99378192D01*
X149715764Y-99648691D01*
X149695000Y-99859508D01*
X140384283Y-99859508D01*
X140414180Y-99850439D01*
X140524494Y-99791474D01*
X140621185Y-99712122D01*
X140700537Y-99615431D01*
X140759502Y-99505117D01*
X140795812Y-99385419D01*
X140808072Y-99260937D01*
X140808072Y-99228072D01*
X141770000Y-99228072D01*
X141894482Y-99215812D01*
X142014180Y-99179502D01*
X142124494Y-99120537D01*
X142221185Y-99041185D01*
X142300537Y-98944494D01*
X142359502Y-98834180D01*
X142395812Y-98714482D01*
X142408072Y-98590000D01*
X142408072Y-96990000D01*
X142395812Y-96865518D01*
X142359502Y-96745820D01*
X142300537Y-96635506D01*
X142221185Y-96538815D01*
X142124494Y-96459463D01*
X142014180Y-96400498D01*
X141894482Y-96364188D01*
X141770000Y-96351928D01*
X141762785Y-96351928D01*
X141783097Y-96282702D01*
X141740395Y-96240000D01*
X201851928Y-96240000D01*
X201864188Y-96364482D01*
X201900498Y-96484180D01*
X201959463Y-96594494D01*
X202038815Y-96691185D01*
X202135506Y-96770537D01*
X202245820Y-96829502D01*
X202365518Y-96865812D01*
X202490000Y-96878072D01*
X204184250Y-96875000D01*
X204343000Y-96716250D01*
X204343000Y-95377000D01*
X204597000Y-95377000D01*
X204597000Y-96716250D01*
X204755750Y-96875000D01*
X206450000Y-96878072D01*
X206574482Y-96865812D01*
X206694180Y-96829502D01*
X206804494Y-96770537D01*
X206901185Y-96691185D01*
X206980537Y-96594494D01*
X207039502Y-96484180D01*
X207075812Y-96364482D01*
X207088072Y-96240000D01*
X207085000Y-95535750D01*
X206926250Y-95377000D01*
X204597000Y-95377000D01*
X204343000Y-95377000D01*
X202013750Y-95377000D01*
X201855000Y-95535750D01*
X201851928Y-96240000D01*
X141740395Y-96240000D01*
X140970000Y-95469605D01*
X140156903Y-96282702D01*
X140177215Y-96351928D01*
X140170000Y-96351928D01*
X140045518Y-96364188D01*
X139925820Y-96400498D01*
X139815506Y-96459463D01*
X139718815Y-96538815D01*
X139639463Y-96635506D01*
X139580498Y-96745820D01*
X139544188Y-96865518D01*
X139531928Y-96990000D01*
X139531928Y-97022865D01*
X138570000Y-97022865D01*
X138445518Y-97035125D01*
X138325820Y-97071435D01*
X138215506Y-97130400D01*
X138118815Y-97209752D01*
X138039463Y-97306443D01*
X137980498Y-97416757D01*
X137944188Y-97536455D01*
X137931928Y-97660937D01*
X132245000Y-97660937D01*
X132245000Y-97648665D01*
X132189853Y-97371426D01*
X132081680Y-97110273D01*
X131924637Y-96875241D01*
X131724759Y-96675363D01*
X131524131Y-96541308D01*
X131551514Y-96526671D01*
X131623097Y-96282702D01*
X130810000Y-95469605D01*
X129996903Y-96282702D01*
X130068486Y-96526671D01*
X130097341Y-96540324D01*
X129895241Y-96675363D01*
X129695363Y-96875241D01*
X129538320Y-97110273D01*
X129430147Y-97371426D01*
X129375000Y-97648665D01*
X122680000Y-97648665D01*
X122680000Y-95360512D01*
X129369783Y-95360512D01*
X129411213Y-95640130D01*
X129506397Y-95906292D01*
X129573329Y-96031514D01*
X129817298Y-96103097D01*
X130630395Y-95290000D01*
X130989605Y-95290000D01*
X131802702Y-96103097D01*
X132046671Y-96031514D01*
X132167571Y-95776004D01*
X132236300Y-95501816D01*
X132243265Y-95360512D01*
X139529783Y-95360512D01*
X139571213Y-95640130D01*
X139666397Y-95906292D01*
X139733329Y-96031514D01*
X139977298Y-96103097D01*
X140790395Y-95290000D01*
X139977298Y-94476903D01*
X139733329Y-94548486D01*
X139612429Y-94803996D01*
X139543700Y-95078184D01*
X139529783Y-95360512D01*
X132243265Y-95360512D01*
X132250217Y-95219488D01*
X132208787Y-94939870D01*
X132113603Y-94673708D01*
X132046671Y-94548486D01*
X131802702Y-94476903D01*
X130989605Y-95290000D01*
X130630395Y-95290000D01*
X129817298Y-94476903D01*
X129573329Y-94548486D01*
X129452429Y-94803996D01*
X129383700Y-95078184D01*
X129369783Y-95360512D01*
X122680000Y-95360512D01*
X122680000Y-94297298D01*
X129996903Y-94297298D01*
X130810000Y-95110395D01*
X131623097Y-94297298D01*
X140156903Y-94297298D01*
X140970000Y-95110395D01*
X140984143Y-95096253D01*
X141163748Y-95275858D01*
X141149605Y-95290000D01*
X141962702Y-96103097D01*
X142206671Y-96031514D01*
X142216878Y-96009943D01*
X142358184Y-96045363D01*
X142640512Y-96059280D01*
X142920130Y-96017850D01*
X143186292Y-95922666D01*
X143311514Y-95855734D01*
X143383097Y-95611765D01*
X142570000Y-94798668D01*
X142555858Y-94812811D01*
X142376253Y-94633206D01*
X142390395Y-94619063D01*
X142749605Y-94619063D01*
X143562702Y-95432160D01*
X143806671Y-95360577D01*
X143927571Y-95105067D01*
X143996300Y-94830879D01*
X144010217Y-94548551D01*
X143968787Y-94268933D01*
X143873603Y-94002771D01*
X143806671Y-93877549D01*
X143562702Y-93805966D01*
X142749605Y-94619063D01*
X142390395Y-94619063D01*
X141577298Y-93805966D01*
X141333329Y-93877549D01*
X141323122Y-93899120D01*
X141181816Y-93863700D01*
X140899488Y-93849783D01*
X140619870Y-93891213D01*
X140353708Y-93986397D01*
X140228486Y-94053329D01*
X140156903Y-94297298D01*
X131623097Y-94297298D01*
X131551514Y-94053329D01*
X131296004Y-93932429D01*
X131021816Y-93863700D01*
X130739488Y-93849783D01*
X130459870Y-93891213D01*
X130193708Y-93986397D01*
X130068486Y-94053329D01*
X129996903Y-94297298D01*
X122680000Y-94297298D01*
X122680000Y-93626361D01*
X141756903Y-93626361D01*
X142570000Y-94439458D01*
X143383097Y-93626361D01*
X143311514Y-93382392D01*
X143056004Y-93261492D01*
X142781816Y-93192763D01*
X142499488Y-93178846D01*
X142219870Y-93220276D01*
X141953708Y-93315460D01*
X141828486Y-93382392D01*
X141756903Y-93626361D01*
X122680000Y-93626361D01*
X122680000Y-92837000D01*
X149695000Y-92837000D01*
X149695000Y-93237000D01*
X149747350Y-93514514D01*
X149852834Y-93776483D01*
X150007399Y-94012839D01*
X150205105Y-94214500D01*
X150438354Y-94373715D01*
X150698182Y-94484367D01*
X150780961Y-94501904D01*
X151003000Y-94379915D01*
X151003000Y-92837000D01*
X151257000Y-92837000D01*
X151257000Y-94379915D01*
X151479039Y-94501904D01*
X151561818Y-94484367D01*
X151821646Y-94373715D01*
X152054895Y-94214500D01*
X152252601Y-94012839D01*
X152400000Y-93787441D01*
X152547399Y-94012839D01*
X152745105Y-94214500D01*
X152978354Y-94373715D01*
X153238182Y-94484367D01*
X153320961Y-94501904D01*
X153543000Y-94379915D01*
X153543000Y-92837000D01*
X153797000Y-92837000D01*
X153797000Y-94379915D01*
X154019039Y-94501904D01*
X154101818Y-94484367D01*
X154361646Y-94373715D01*
X154594895Y-94214500D01*
X154792601Y-94012839D01*
X154940000Y-93787441D01*
X155087399Y-94012839D01*
X155285105Y-94214500D01*
X155518354Y-94373715D01*
X155778182Y-94484367D01*
X155860961Y-94501904D01*
X156083000Y-94379915D01*
X156083000Y-92837000D01*
X156337000Y-92837000D01*
X156337000Y-94379915D01*
X156559039Y-94501904D01*
X156641818Y-94484367D01*
X156901646Y-94373715D01*
X157134895Y-94214500D01*
X157332601Y-94012839D01*
X157480000Y-93787441D01*
X157627399Y-94012839D01*
X157825105Y-94214500D01*
X158058354Y-94373715D01*
X158318182Y-94484367D01*
X158400961Y-94501904D01*
X158623000Y-94379915D01*
X158623000Y-92837000D01*
X158877000Y-92837000D01*
X158877000Y-94379915D01*
X159099039Y-94501904D01*
X159181818Y-94484367D01*
X159441646Y-94373715D01*
X159674895Y-94214500D01*
X159872601Y-94012839D01*
X160020000Y-93787441D01*
X160167399Y-94012839D01*
X160365105Y-94214500D01*
X160598354Y-94373715D01*
X160858182Y-94484367D01*
X160940961Y-94501904D01*
X161163000Y-94379915D01*
X161163000Y-92837000D01*
X158877000Y-92837000D01*
X158623000Y-92837000D01*
X156337000Y-92837000D01*
X156083000Y-92837000D01*
X153797000Y-92837000D01*
X153543000Y-92837000D01*
X151257000Y-92837000D01*
X151003000Y-92837000D01*
X149695000Y-92837000D01*
X122680000Y-92837000D01*
X122680000Y-92183000D01*
X149695000Y-92183000D01*
X149695000Y-92583000D01*
X151003000Y-92583000D01*
X151003000Y-91040085D01*
X151257000Y-91040085D01*
X151257000Y-92583000D01*
X153543000Y-92583000D01*
X153543000Y-91040085D01*
X153797000Y-91040085D01*
X153797000Y-92583000D01*
X156083000Y-92583000D01*
X156083000Y-91040085D01*
X156337000Y-91040085D01*
X156337000Y-92583000D01*
X158623000Y-92583000D01*
X158623000Y-91040085D01*
X158877000Y-91040085D01*
X158877000Y-92583000D01*
X161163000Y-92583000D01*
X161163000Y-91040085D01*
X160940961Y-90918096D01*
X160858182Y-90935633D01*
X160598354Y-91046285D01*
X160365105Y-91205500D01*
X160167399Y-91407161D01*
X160020000Y-91632559D01*
X159872601Y-91407161D01*
X159674895Y-91205500D01*
X159441646Y-91046285D01*
X159181818Y-90935633D01*
X159099039Y-90918096D01*
X158877000Y-91040085D01*
X158623000Y-91040085D01*
X158400961Y-90918096D01*
X158318182Y-90935633D01*
X158058354Y-91046285D01*
X157825105Y-91205500D01*
X157627399Y-91407161D01*
X157480000Y-91632559D01*
X157332601Y-91407161D01*
X157134895Y-91205500D01*
X156901646Y-91046285D01*
X156641818Y-90935633D01*
X156559039Y-90918096D01*
X156337000Y-91040085D01*
X156083000Y-91040085D01*
X155860961Y-90918096D01*
X155778182Y-90935633D01*
X155518354Y-91046285D01*
X155285105Y-91205500D01*
X155087399Y-91407161D01*
X154940000Y-91632559D01*
X154792601Y-91407161D01*
X154594895Y-91205500D01*
X154361646Y-91046285D01*
X154101818Y-90935633D01*
X154019039Y-90918096D01*
X153797000Y-91040085D01*
X153543000Y-91040085D01*
X153320961Y-90918096D01*
X153238182Y-90935633D01*
X152978354Y-91046285D01*
X152745105Y-91205500D01*
X152547399Y-91407161D01*
X152400000Y-91632559D01*
X152252601Y-91407161D01*
X152054895Y-91205500D01*
X151821646Y-91046285D01*
X151561818Y-90935633D01*
X151479039Y-90918096D01*
X151257000Y-91040085D01*
X151003000Y-91040085D01*
X150780961Y-90918096D01*
X150698182Y-90935633D01*
X150438354Y-91046285D01*
X150205105Y-91205500D01*
X150007399Y-91407161D01*
X149852834Y-91643517D01*
X149747350Y-91905486D01*
X149695000Y-92183000D01*
X122680000Y-92183000D01*
X122680000Y-82587325D01*
X122683676Y-82550000D01*
X122680000Y-82512675D01*
X122680000Y-82512667D01*
X122669003Y-82401014D01*
X122625546Y-82257753D01*
X122554974Y-82125724D01*
X122460001Y-82009999D01*
X122431003Y-81986201D01*
X118621002Y-78176201D01*
X118534276Y-78105026D01*
X118402246Y-78034454D01*
X118258985Y-77990998D01*
X118110000Y-77976324D01*
X117961015Y-77990998D01*
X117817754Y-78034454D01*
X117685724Y-78105026D01*
X117569999Y-78199999D01*
X117475026Y-78315724D01*
X117404454Y-78447754D01*
X117360998Y-78591015D01*
X117346324Y-78740000D01*
X77070000Y-78740000D01*
X77070000Y-73599392D01*
X77097103Y-73295701D01*
X78625000Y-73295701D01*
X78625000Y-73844299D01*
X78732026Y-74382354D01*
X78941965Y-74889192D01*
X79246750Y-75345334D01*
X79634666Y-75733250D01*
X80090808Y-76038035D01*
X80597646Y-76247974D01*
X81135701Y-76355000D01*
X81684299Y-76355000D01*
X82222354Y-76247974D01*
X82729192Y-76038035D01*
X82816047Y-75980000D01*
X88481928Y-75980000D01*
X88494188Y-76104482D01*
X88530498Y-76224180D01*
X88589463Y-76334494D01*
X88668815Y-76431185D01*
X88765506Y-76510537D01*
X88875820Y-76569502D01*
X88995518Y-76605812D01*
X89120000Y-76618072D01*
X89884250Y-76615000D01*
X90043000Y-76456250D01*
X90043000Y-75057000D01*
X88643750Y-75057000D01*
X88485000Y-75215750D01*
X88481928Y-75980000D01*
X82816047Y-75980000D01*
X83185334Y-75733250D01*
X83573250Y-75345334D01*
X83878035Y-74889192D01*
X84087974Y-74382354D01*
X84187898Y-73880000D01*
X88481928Y-73880000D01*
X88485000Y-74644250D01*
X88643750Y-74803000D01*
X90043000Y-74803000D01*
X90043000Y-73403750D01*
X90297000Y-73403750D01*
X90297000Y-74803000D01*
X90317000Y-74803000D01*
X90317000Y-75057000D01*
X90297000Y-75057000D01*
X90297000Y-76456250D01*
X90455750Y-76615000D01*
X91220000Y-76618072D01*
X91344482Y-76605812D01*
X91464180Y-76569502D01*
X91574494Y-76510537D01*
X91671185Y-76431185D01*
X91750537Y-76334494D01*
X91758042Y-76320454D01*
X91911853Y-76423228D01*
X92218504Y-76550246D01*
X92544042Y-76615000D01*
X92875958Y-76615000D01*
X93201496Y-76550246D01*
X93508147Y-76423228D01*
X93784125Y-76238825D01*
X93980000Y-76042950D01*
X94175875Y-76238825D01*
X94451853Y-76423228D01*
X94758504Y-76550246D01*
X95084042Y-76615000D01*
X95415958Y-76615000D01*
X95741496Y-76550246D01*
X96048147Y-76423228D01*
X96324125Y-76238825D01*
X96520000Y-76042950D01*
X96715875Y-76238825D01*
X96991853Y-76423228D01*
X97298504Y-76550246D01*
X97624042Y-76615000D01*
X97955958Y-76615000D01*
X98281496Y-76550246D01*
X98588147Y-76423228D01*
X98864125Y-76238825D01*
X99060000Y-76042950D01*
X99255875Y-76238825D01*
X99531853Y-76423228D01*
X99838504Y-76550246D01*
X100164042Y-76615000D01*
X100495958Y-76615000D01*
X100821496Y-76550246D01*
X101128147Y-76423228D01*
X101404125Y-76238825D01*
X101600000Y-76042950D01*
X101795875Y-76238825D01*
X102071853Y-76423228D01*
X102378504Y-76550246D01*
X102704042Y-76615000D01*
X103035958Y-76615000D01*
X103361496Y-76550246D01*
X103668147Y-76423228D01*
X103944125Y-76238825D01*
X104140000Y-76042950D01*
X104335875Y-76238825D01*
X104611853Y-76423228D01*
X104918504Y-76550246D01*
X105244042Y-76615000D01*
X105575958Y-76615000D01*
X105901496Y-76550246D01*
X106208147Y-76423228D01*
X106484125Y-76238825D01*
X106680000Y-76042950D01*
X106875875Y-76238825D01*
X107151853Y-76423228D01*
X107458504Y-76550246D01*
X107784042Y-76615000D01*
X108115958Y-76615000D01*
X108441496Y-76550246D01*
X108748147Y-76423228D01*
X109024125Y-76238825D01*
X109258825Y-76004125D01*
X109443228Y-75728147D01*
X109570246Y-75421496D01*
X109635000Y-75095958D01*
X109635000Y-74764042D01*
X109570246Y-74438504D01*
X109443228Y-74131853D01*
X109274945Y-73880000D01*
X122771928Y-73880000D01*
X122771928Y-75980000D01*
X122784188Y-76104482D01*
X122820498Y-76224180D01*
X122879463Y-76334494D01*
X122958815Y-76431185D01*
X123055506Y-76510537D01*
X123165820Y-76569502D01*
X123285518Y-76605812D01*
X123410000Y-76618072D01*
X125510000Y-76618072D01*
X125634482Y-76605812D01*
X125754180Y-76569502D01*
X125864494Y-76510537D01*
X125961185Y-76431185D01*
X126040537Y-76334494D01*
X126048042Y-76320454D01*
X126201853Y-76423228D01*
X126240001Y-76439029D01*
X126240000Y-85052678D01*
X126236324Y-85090000D01*
X126240000Y-85127322D01*
X126240000Y-85127332D01*
X126250997Y-85238985D01*
X126277089Y-85325000D01*
X126294454Y-85382246D01*
X126365026Y-85514276D01*
X126399320Y-85556063D01*
X126459999Y-85630001D01*
X126489003Y-85653804D01*
X127706201Y-86871003D01*
X127729999Y-86900001D01*
X127845724Y-86994974D01*
X127977753Y-87065546D01*
X128121014Y-87109003D01*
X128232667Y-87120000D01*
X128232676Y-87120000D01*
X128269999Y-87123676D01*
X128307322Y-87120000D01*
X128836289Y-87120000D01*
X128880226Y-87163937D01*
X129049744Y-87277205D01*
X129238102Y-87355226D01*
X129438061Y-87395000D01*
X129641939Y-87395000D01*
X129841898Y-87355226D01*
X130030256Y-87277205D01*
X130199774Y-87163937D01*
X130343937Y-87019774D01*
X130457205Y-86850256D01*
X130535226Y-86661898D01*
X130575000Y-86461939D01*
X130575000Y-86258061D01*
X130535226Y-86058102D01*
X130457205Y-85869744D01*
X130343937Y-85700226D01*
X130199774Y-85556063D01*
X130030256Y-85442795D01*
X129841898Y-85364774D01*
X129641939Y-85325000D01*
X129438061Y-85325000D01*
X129238102Y-85364774D01*
X129049744Y-85442795D01*
X128880226Y-85556063D01*
X128836289Y-85600000D01*
X128584802Y-85600000D01*
X127760000Y-84775199D01*
X127760000Y-76439029D01*
X127798147Y-76423228D01*
X128074125Y-76238825D01*
X128270000Y-76042950D01*
X128465875Y-76238825D01*
X128741853Y-76423228D01*
X129048504Y-76550246D01*
X129374042Y-76615000D01*
X129705958Y-76615000D01*
X130031496Y-76550246D01*
X130338147Y-76423228D01*
X130614125Y-76238825D01*
X130810000Y-76042950D01*
X131005875Y-76238825D01*
X131281853Y-76423228D01*
X131588504Y-76550246D01*
X131914042Y-76615000D01*
X132245958Y-76615000D01*
X132571496Y-76550246D01*
X132609644Y-76534445D01*
X139935000Y-83859802D01*
X139935000Y-83921939D01*
X139974774Y-84121898D01*
X140052795Y-84310256D01*
X140166063Y-84479774D01*
X140310226Y-84623937D01*
X140479744Y-84737205D01*
X140668102Y-84815226D01*
X140868061Y-84855000D01*
X141071939Y-84855000D01*
X141271898Y-84815226D01*
X141460256Y-84737205D01*
X141629774Y-84623937D01*
X141773937Y-84479774D01*
X141887205Y-84310256D01*
X141965226Y-84121898D01*
X142005000Y-83921939D01*
X142005000Y-83718061D01*
X141965226Y-83518102D01*
X141887205Y-83329744D01*
X141773937Y-83160226D01*
X141629774Y-83016063D01*
X141460256Y-82902795D01*
X141271898Y-82824774D01*
X141071939Y-82785000D01*
X141009802Y-82785000D01*
X138132863Y-79908061D01*
X142475000Y-79908061D01*
X142475000Y-80111939D01*
X142514774Y-80311898D01*
X142592795Y-80500256D01*
X142706063Y-80669774D01*
X142850226Y-80813937D01*
X143019744Y-80927205D01*
X143208102Y-81005226D01*
X143408061Y-81045000D01*
X143611939Y-81045000D01*
X143811898Y-81005226D01*
X144000256Y-80927205D01*
X144169774Y-80813937D01*
X144213711Y-80770000D01*
X158435199Y-80770000D01*
X163070000Y-85404802D01*
X163070001Y-91089099D01*
X163028900Y-91111068D01*
X162810393Y-91290392D01*
X162631068Y-91508899D01*
X162562735Y-91636741D01*
X162412601Y-91407161D01*
X162214895Y-91205500D01*
X161981646Y-91046285D01*
X161721818Y-90935633D01*
X161639039Y-90918096D01*
X161417000Y-91040085D01*
X161417000Y-92583000D01*
X161437000Y-92583000D01*
X161437000Y-92837000D01*
X161417000Y-92837000D01*
X161417000Y-94379915D01*
X161639039Y-94501904D01*
X161721818Y-94484367D01*
X161981646Y-94373715D01*
X162214895Y-94214500D01*
X162412601Y-94012839D01*
X162562735Y-93783258D01*
X162631068Y-93911100D01*
X162810392Y-94129607D01*
X163028899Y-94308932D01*
X163278192Y-94442182D01*
X163548691Y-94524236D01*
X163830000Y-94551943D01*
X164111308Y-94524236D01*
X164381807Y-94442182D01*
X164631100Y-94308932D01*
X164849607Y-94129608D01*
X165028932Y-93911101D01*
X165100000Y-93778142D01*
X165171068Y-93911100D01*
X165350392Y-94129607D01*
X165568899Y-94308932D01*
X165818192Y-94442182D01*
X166088691Y-94524236D01*
X166370000Y-94551943D01*
X166651308Y-94524236D01*
X166921807Y-94442182D01*
X167171100Y-94308932D01*
X167389607Y-94129608D01*
X167568932Y-93911101D01*
X167640000Y-93778142D01*
X167711068Y-93911100D01*
X167890392Y-94129607D01*
X168108899Y-94308932D01*
X168358192Y-94442182D01*
X168628691Y-94524236D01*
X168910000Y-94551943D01*
X169191308Y-94524236D01*
X169461807Y-94442182D01*
X169711100Y-94308932D01*
X169929607Y-94129608D01*
X170022419Y-94016517D01*
X170024188Y-94034482D01*
X170060498Y-94154180D01*
X170119463Y-94264494D01*
X170198815Y-94361185D01*
X170295506Y-94440537D01*
X170405820Y-94499502D01*
X170525518Y-94535812D01*
X170650000Y-94548072D01*
X172250000Y-94548072D01*
X172374482Y-94535812D01*
X172494180Y-94499502D01*
X172604494Y-94440537D01*
X172701185Y-94361185D01*
X172780537Y-94264494D01*
X172782939Y-94260000D01*
X201851928Y-94260000D01*
X201855000Y-94964250D01*
X202013750Y-95123000D01*
X204343000Y-95123000D01*
X204343000Y-93783750D01*
X204597000Y-93783750D01*
X204597000Y-95123000D01*
X206926250Y-95123000D01*
X207085000Y-94964250D01*
X207088072Y-94260000D01*
X207075812Y-94135518D01*
X207039502Y-94015820D01*
X206980537Y-93905506D01*
X206901185Y-93808815D01*
X206804494Y-93729463D01*
X206694180Y-93670498D01*
X206574482Y-93634188D01*
X206450000Y-93621928D01*
X204755750Y-93625000D01*
X204597000Y-93783750D01*
X204343000Y-93783750D01*
X204184250Y-93625000D01*
X202490000Y-93621928D01*
X202365518Y-93634188D01*
X202245820Y-93670498D01*
X202135506Y-93729463D01*
X202038815Y-93808815D01*
X201959463Y-93905506D01*
X201900498Y-94015820D01*
X201864188Y-94135518D01*
X201851928Y-94260000D01*
X172782939Y-94260000D01*
X172839502Y-94154180D01*
X172875812Y-94034482D01*
X172888072Y-93910000D01*
X172888072Y-91851806D01*
X178551801Y-91851806D01*
X178666500Y-92192754D01*
X178845511Y-92504774D01*
X179081954Y-92775875D01*
X179366743Y-92995639D01*
X179688934Y-93155621D01*
X179928195Y-93228195D01*
X180213000Y-93111432D01*
X180213000Y-91567000D01*
X180467000Y-91567000D01*
X180467000Y-93111432D01*
X180751805Y-93228195D01*
X180991066Y-93155621D01*
X181313257Y-92995639D01*
X181598046Y-92775875D01*
X181834489Y-92504774D01*
X182013500Y-92192754D01*
X182128199Y-91851806D01*
X182011854Y-91567000D01*
X180467000Y-91567000D01*
X180213000Y-91567000D01*
X178668146Y-91567000D01*
X178551801Y-91851806D01*
X172888072Y-91851806D01*
X172888072Y-91510000D01*
X172875812Y-91385518D01*
X172839502Y-91265820D01*
X172780537Y-91155506D01*
X172701185Y-91058815D01*
X172663874Y-91028194D01*
X178551801Y-91028194D01*
X178668146Y-91313000D01*
X180213000Y-91313000D01*
X180213000Y-89768568D01*
X180467000Y-89768568D01*
X180467000Y-91313000D01*
X182011854Y-91313000D01*
X182012696Y-91310937D01*
X187461928Y-91310937D01*
X187461928Y-92910937D01*
X187474188Y-93035419D01*
X187510498Y-93155117D01*
X187569463Y-93265431D01*
X187648815Y-93362122D01*
X187745506Y-93441474D01*
X187855820Y-93500439D01*
X187975518Y-93536749D01*
X188100000Y-93549009D01*
X189700000Y-93549009D01*
X189824482Y-93536749D01*
X189944180Y-93500439D01*
X190054494Y-93441474D01*
X190151185Y-93362122D01*
X190230537Y-93265431D01*
X190289502Y-93155117D01*
X190325812Y-93035419D01*
X190338072Y-92910937D01*
X190338072Y-92878072D01*
X191300000Y-92878072D01*
X191424482Y-92865812D01*
X191544180Y-92829502D01*
X191654494Y-92770537D01*
X191751185Y-92691185D01*
X191830537Y-92594494D01*
X191889502Y-92484180D01*
X191925812Y-92364482D01*
X191938072Y-92240000D01*
X191938072Y-90640000D01*
X191925812Y-90515518D01*
X191889502Y-90395820D01*
X191830537Y-90285506D01*
X191751185Y-90188815D01*
X191654494Y-90109463D01*
X191544180Y-90050498D01*
X191424482Y-90014188D01*
X191300000Y-90001928D01*
X191292785Y-90001928D01*
X191313097Y-89932702D01*
X190500000Y-89119605D01*
X189686903Y-89932702D01*
X189707215Y-90001928D01*
X189700000Y-90001928D01*
X189575518Y-90014188D01*
X189455820Y-90050498D01*
X189345506Y-90109463D01*
X189248815Y-90188815D01*
X189169463Y-90285506D01*
X189110498Y-90395820D01*
X189074188Y-90515518D01*
X189061928Y-90640000D01*
X189061928Y-90672865D01*
X188100000Y-90672865D01*
X187975518Y-90685125D01*
X187855820Y-90721435D01*
X187745506Y-90780400D01*
X187648815Y-90859752D01*
X187569463Y-90956443D01*
X187510498Y-91066757D01*
X187474188Y-91186455D01*
X187461928Y-91310937D01*
X182012696Y-91310937D01*
X182128199Y-91028194D01*
X182013500Y-90687246D01*
X181834489Y-90375226D01*
X181598046Y-90104125D01*
X181313257Y-89884361D01*
X180991066Y-89724379D01*
X180751805Y-89651805D01*
X180467000Y-89768568D01*
X180213000Y-89768568D01*
X179928195Y-89651805D01*
X179688934Y-89724379D01*
X179366743Y-89884361D01*
X179081954Y-90104125D01*
X178845511Y-90375226D01*
X178666500Y-90687246D01*
X178551801Y-91028194D01*
X172663874Y-91028194D01*
X172604494Y-90979463D01*
X172494180Y-90920498D01*
X172374482Y-90884188D01*
X172250000Y-90871928D01*
X170650000Y-90871928D01*
X170525518Y-90884188D01*
X170405820Y-90920498D01*
X170295506Y-90979463D01*
X170198815Y-91058815D01*
X170119463Y-91155506D01*
X170060498Y-91265820D01*
X170024188Y-91385518D01*
X170022419Y-91403482D01*
X169929608Y-91290392D01*
X169711101Y-91111068D01*
X169461808Y-90977818D01*
X169191309Y-90895764D01*
X168910000Y-90868057D01*
X168628692Y-90895764D01*
X168358193Y-90977818D01*
X168108900Y-91111068D01*
X167890393Y-91290392D01*
X167711068Y-91508899D01*
X167640000Y-91641858D01*
X167568932Y-91508899D01*
X167389608Y-91290392D01*
X167171101Y-91111068D01*
X166921808Y-90977818D01*
X166651309Y-90895764D01*
X166370000Y-90868057D01*
X166088692Y-90895764D01*
X165818193Y-90977818D01*
X165568900Y-91111068D01*
X165350393Y-91290392D01*
X165171068Y-91508899D01*
X165100000Y-91641858D01*
X165028932Y-91508899D01*
X164849608Y-91290392D01*
X164631101Y-91111068D01*
X164590000Y-91089099D01*
X164590000Y-89010512D01*
X189059783Y-89010512D01*
X189101213Y-89290130D01*
X189196397Y-89556292D01*
X189263329Y-89681514D01*
X189507298Y-89753097D01*
X190320395Y-88940000D01*
X189507298Y-88126903D01*
X189263329Y-88198486D01*
X189142429Y-88453996D01*
X189073700Y-88728184D01*
X189059783Y-89010512D01*
X164590000Y-89010512D01*
X164590000Y-87947298D01*
X189686903Y-87947298D01*
X190500000Y-88760395D01*
X190514143Y-88746253D01*
X190693748Y-88925858D01*
X190679605Y-88940000D01*
X191492702Y-89753097D01*
X191736671Y-89681514D01*
X191746878Y-89659943D01*
X191888184Y-89695363D01*
X192170512Y-89709280D01*
X192450130Y-89667850D01*
X192716292Y-89572666D01*
X192841514Y-89505734D01*
X192913097Y-89261765D01*
X192100000Y-88448668D01*
X192085858Y-88462811D01*
X191906253Y-88283206D01*
X191920395Y-88269063D01*
X192279605Y-88269063D01*
X193092702Y-89082160D01*
X193336671Y-89010577D01*
X193457571Y-88755067D01*
X193526300Y-88480879D01*
X193540217Y-88198551D01*
X193498787Y-87918933D01*
X193403603Y-87652771D01*
X193336671Y-87527549D01*
X193092702Y-87455966D01*
X192279605Y-88269063D01*
X191920395Y-88269063D01*
X191107298Y-87455966D01*
X190863329Y-87527549D01*
X190853122Y-87549120D01*
X190711816Y-87513700D01*
X190429488Y-87499783D01*
X190149870Y-87541213D01*
X189883708Y-87636397D01*
X189758486Y-87703329D01*
X189686903Y-87947298D01*
X164590000Y-87947298D01*
X164590000Y-87276361D01*
X191286903Y-87276361D01*
X192100000Y-88089458D01*
X192913097Y-87276361D01*
X192841514Y-87032392D01*
X192586004Y-86911492D01*
X192311816Y-86842763D01*
X192029488Y-86828846D01*
X191749870Y-86870276D01*
X191483708Y-86965460D01*
X191358486Y-87032392D01*
X191286903Y-87276361D01*
X164590000Y-87276361D01*
X164590000Y-85127323D01*
X164593676Y-85090000D01*
X164590000Y-85052677D01*
X164590000Y-85052667D01*
X164579003Y-84941014D01*
X164535546Y-84797753D01*
X164464975Y-84665725D01*
X164464974Y-84665723D01*
X164393799Y-84578997D01*
X164370001Y-84549999D01*
X164341003Y-84526201D01*
X159695739Y-79880937D01*
X178571928Y-79880937D01*
X178571928Y-81480937D01*
X178584188Y-81605419D01*
X178620498Y-81725117D01*
X178679463Y-81835431D01*
X178758815Y-81932122D01*
X178855506Y-82011474D01*
X178965820Y-82070439D01*
X179085518Y-82106749D01*
X179210000Y-82119009D01*
X180810000Y-82119009D01*
X180934482Y-82106749D01*
X181054180Y-82070439D01*
X181164494Y-82011474D01*
X181261185Y-81932122D01*
X181340537Y-81835431D01*
X181399502Y-81725117D01*
X181435812Y-81605419D01*
X181448072Y-81480937D01*
X181448072Y-81448072D01*
X182410000Y-81448072D01*
X182534482Y-81435812D01*
X182654180Y-81399502D01*
X182764494Y-81340537D01*
X182861185Y-81261185D01*
X182940537Y-81164494D01*
X182999502Y-81054180D01*
X183035812Y-80934482D01*
X183048072Y-80810000D01*
X183048072Y-79868665D01*
X189065000Y-79868665D01*
X189065000Y-80151335D01*
X189120147Y-80428574D01*
X189228320Y-80689727D01*
X189385363Y-80924759D01*
X189585241Y-81124637D01*
X189820273Y-81281680D01*
X190081426Y-81389853D01*
X190358665Y-81445000D01*
X190641335Y-81445000D01*
X190918574Y-81389853D01*
X191179727Y-81281680D01*
X191414759Y-81124637D01*
X191614637Y-80924759D01*
X191771680Y-80689727D01*
X191879853Y-80428574D01*
X191935000Y-80151335D01*
X191935000Y-79868665D01*
X191879853Y-79591426D01*
X191821273Y-79450000D01*
X196491928Y-79450000D01*
X196504188Y-79574482D01*
X196540498Y-79694180D01*
X196599463Y-79804494D01*
X196678815Y-79901185D01*
X196775506Y-79980537D01*
X196885820Y-80039502D01*
X197005518Y-80075812D01*
X197130000Y-80088072D01*
X197834250Y-80085000D01*
X197993000Y-79926250D01*
X197993000Y-77597000D01*
X198247000Y-77597000D01*
X198247000Y-79926250D01*
X198405750Y-80085000D01*
X199110000Y-80088072D01*
X199234482Y-80075812D01*
X199354180Y-80039502D01*
X199464494Y-79980537D01*
X199561185Y-79901185D01*
X199640537Y-79804494D01*
X199699502Y-79694180D01*
X199735812Y-79574482D01*
X199748072Y-79450000D01*
X199745000Y-77755750D01*
X199586250Y-77597000D01*
X198247000Y-77597000D01*
X197993000Y-77597000D01*
X196653750Y-77597000D01*
X196495000Y-77755750D01*
X196491928Y-79450000D01*
X191821273Y-79450000D01*
X191771680Y-79330273D01*
X191614637Y-79095241D01*
X191414759Y-78895363D01*
X191214131Y-78761308D01*
X191241514Y-78746671D01*
X191313097Y-78502702D01*
X190500000Y-77689605D01*
X189686903Y-78502702D01*
X189758486Y-78746671D01*
X189787341Y-78760324D01*
X189585241Y-78895363D01*
X189385363Y-79095241D01*
X189228320Y-79330273D01*
X189120147Y-79591426D01*
X189065000Y-79868665D01*
X183048072Y-79868665D01*
X183048072Y-79210000D01*
X183035812Y-79085518D01*
X182999502Y-78965820D01*
X182940537Y-78855506D01*
X182861185Y-78758815D01*
X182764494Y-78679463D01*
X182654180Y-78620498D01*
X182534482Y-78584188D01*
X182410000Y-78571928D01*
X182402785Y-78571928D01*
X182423097Y-78502702D01*
X181610000Y-77689605D01*
X180796903Y-78502702D01*
X180817215Y-78571928D01*
X180810000Y-78571928D01*
X180685518Y-78584188D01*
X180565820Y-78620498D01*
X180455506Y-78679463D01*
X180358815Y-78758815D01*
X180279463Y-78855506D01*
X180220498Y-78965820D01*
X180184188Y-79085518D01*
X180171928Y-79210000D01*
X180171928Y-79242865D01*
X179210000Y-79242865D01*
X179085518Y-79255125D01*
X178965820Y-79291435D01*
X178855506Y-79350400D01*
X178758815Y-79429752D01*
X178679463Y-79526443D01*
X178620498Y-79636757D01*
X178584188Y-79756455D01*
X178571928Y-79880937D01*
X159695739Y-79880937D01*
X159313804Y-79499003D01*
X159290001Y-79469999D01*
X159174276Y-79375026D01*
X159042247Y-79304454D01*
X158898986Y-79260997D01*
X158787333Y-79250000D01*
X158787322Y-79250000D01*
X158750000Y-79246324D01*
X158712678Y-79250000D01*
X144213711Y-79250000D01*
X144169774Y-79206063D01*
X144000256Y-79092795D01*
X143811898Y-79014774D01*
X143611939Y-78975000D01*
X143408061Y-78975000D01*
X143208102Y-79014774D01*
X143019744Y-79092795D01*
X142850226Y-79206063D01*
X142706063Y-79350226D01*
X142592795Y-79519744D01*
X142514774Y-79708102D01*
X142475000Y-79908061D01*
X138132863Y-79908061D01*
X135805314Y-77580512D01*
X180169783Y-77580512D01*
X180211213Y-77860130D01*
X180306397Y-78126292D01*
X180373329Y-78251514D01*
X180617298Y-78323097D01*
X181430395Y-77510000D01*
X180617298Y-76696903D01*
X180373329Y-76768486D01*
X180252429Y-77023996D01*
X180183700Y-77298184D01*
X180169783Y-77580512D01*
X135805314Y-77580512D01*
X134204802Y-75980000D01*
X139281928Y-75980000D01*
X139294188Y-76104482D01*
X139330498Y-76224180D01*
X139389463Y-76334494D01*
X139468815Y-76431185D01*
X139565506Y-76510537D01*
X139675820Y-76569502D01*
X139795518Y-76605812D01*
X139920000Y-76618072D01*
X140684250Y-76615000D01*
X140843000Y-76456250D01*
X140843000Y-75057000D01*
X139443750Y-75057000D01*
X139285000Y-75215750D01*
X139281928Y-75980000D01*
X134204802Y-75980000D01*
X133684445Y-75459644D01*
X133700246Y-75421496D01*
X133765000Y-75095958D01*
X133765000Y-74764042D01*
X133700246Y-74438504D01*
X133573228Y-74131853D01*
X133404945Y-73880000D01*
X139281928Y-73880000D01*
X139285000Y-74644250D01*
X139443750Y-74803000D01*
X140843000Y-74803000D01*
X140843000Y-73403750D01*
X141097000Y-73403750D01*
X141097000Y-74803000D01*
X141117000Y-74803000D01*
X141117000Y-75057000D01*
X141097000Y-75057000D01*
X141097000Y-76456250D01*
X141255750Y-76615000D01*
X142020000Y-76618072D01*
X142144482Y-76605812D01*
X142264180Y-76569502D01*
X142374494Y-76510537D01*
X142471185Y-76431185D01*
X142550537Y-76334494D01*
X142558042Y-76320454D01*
X142711853Y-76423228D01*
X143018504Y-76550246D01*
X143344042Y-76615000D01*
X143675958Y-76615000D01*
X144001496Y-76550246D01*
X144308147Y-76423228D01*
X144584125Y-76238825D01*
X144780000Y-76042950D01*
X144975875Y-76238825D01*
X145251853Y-76423228D01*
X145558504Y-76550246D01*
X145884042Y-76615000D01*
X146215958Y-76615000D01*
X146541496Y-76550246D01*
X146621040Y-76517298D01*
X180796903Y-76517298D01*
X181610000Y-77330395D01*
X181624143Y-77316253D01*
X181803748Y-77495858D01*
X181789605Y-77510000D01*
X182602702Y-78323097D01*
X182846671Y-78251514D01*
X182856878Y-78229943D01*
X182998184Y-78265363D01*
X183280512Y-78279280D01*
X183560130Y-78237850D01*
X183826292Y-78142666D01*
X183951514Y-78075734D01*
X184023097Y-77831765D01*
X183210000Y-77018668D01*
X183195858Y-77032811D01*
X183016253Y-76853206D01*
X183030395Y-76839063D01*
X183389605Y-76839063D01*
X184202702Y-77652160D01*
X184446671Y-77580577D01*
X184446701Y-77580512D01*
X189059783Y-77580512D01*
X189101213Y-77860130D01*
X189196397Y-78126292D01*
X189263329Y-78251514D01*
X189507298Y-78323097D01*
X190320395Y-77510000D01*
X190679605Y-77510000D01*
X191492702Y-78323097D01*
X191736671Y-78251514D01*
X191857571Y-77996004D01*
X191926300Y-77721816D01*
X191940217Y-77439488D01*
X191898787Y-77159870D01*
X191803603Y-76893708D01*
X191736671Y-76768486D01*
X191492702Y-76696903D01*
X190679605Y-77510000D01*
X190320395Y-77510000D01*
X189507298Y-76696903D01*
X189263329Y-76768486D01*
X189142429Y-77023996D01*
X189073700Y-77298184D01*
X189059783Y-77580512D01*
X184446701Y-77580512D01*
X184567571Y-77325067D01*
X184636300Y-77050879D01*
X184650217Y-76768551D01*
X184612990Y-76517298D01*
X189686903Y-76517298D01*
X190500000Y-77330395D01*
X191313097Y-76517298D01*
X191241514Y-76273329D01*
X190986004Y-76152429D01*
X190711816Y-76083700D01*
X190429488Y-76069783D01*
X190149870Y-76111213D01*
X189883708Y-76206397D01*
X189758486Y-76273329D01*
X189686903Y-76517298D01*
X184612990Y-76517298D01*
X184608787Y-76488933D01*
X184513603Y-76222771D01*
X184446671Y-76097549D01*
X184202702Y-76025966D01*
X183389605Y-76839063D01*
X183030395Y-76839063D01*
X182217298Y-76025966D01*
X181973329Y-76097549D01*
X181963122Y-76119120D01*
X181821816Y-76083700D01*
X181539488Y-76069783D01*
X181259870Y-76111213D01*
X180993708Y-76206397D01*
X180868486Y-76273329D01*
X180796903Y-76517298D01*
X146621040Y-76517298D01*
X146848147Y-76423228D01*
X147124125Y-76238825D01*
X147358825Y-76004125D01*
X147464239Y-75846361D01*
X182396903Y-75846361D01*
X183210000Y-76659458D01*
X184023097Y-75846361D01*
X183951514Y-75602392D01*
X183713985Y-75490000D01*
X196491928Y-75490000D01*
X196495000Y-77184250D01*
X196653750Y-77343000D01*
X197993000Y-77343000D01*
X197993000Y-75013750D01*
X198247000Y-75013750D01*
X198247000Y-77343000D01*
X199586250Y-77343000D01*
X199745000Y-77184250D01*
X199746421Y-76400177D01*
X201495000Y-76400177D01*
X201495001Y-78539824D01*
X201518514Y-78778556D01*
X201611433Y-79084869D01*
X201762326Y-79367170D01*
X201965393Y-79614608D01*
X202212831Y-79817675D01*
X202495132Y-79968568D01*
X202801445Y-80061487D01*
X203120000Y-80092862D01*
X203438556Y-80061487D01*
X203744869Y-79968568D01*
X204027170Y-79817675D01*
X204274608Y-79614608D01*
X204477675Y-79367170D01*
X204628568Y-79084869D01*
X204721487Y-78778556D01*
X204745000Y-78539824D01*
X204745000Y-76400177D01*
X206495000Y-76400177D01*
X206495001Y-78539824D01*
X206518514Y-78778556D01*
X206611433Y-79084869D01*
X206762326Y-79367170D01*
X206965393Y-79614608D01*
X207212831Y-79817675D01*
X207495132Y-79968568D01*
X207801445Y-80061487D01*
X208120000Y-80092862D01*
X208438556Y-80061487D01*
X208744869Y-79968568D01*
X209027170Y-79817675D01*
X209274608Y-79614608D01*
X209477675Y-79367170D01*
X209628568Y-79084869D01*
X209721487Y-78778556D01*
X209745000Y-78539824D01*
X209745000Y-76400176D01*
X209721487Y-76161444D01*
X209628568Y-75855131D01*
X209477675Y-75572830D01*
X209274608Y-75325392D01*
X209027169Y-75122325D01*
X208744868Y-74971432D01*
X208438555Y-74878513D01*
X208120000Y-74847138D01*
X207801444Y-74878513D01*
X207495131Y-74971432D01*
X207212830Y-75122325D01*
X206965392Y-75325392D01*
X206762325Y-75572831D01*
X206611432Y-75855132D01*
X206518513Y-76161445D01*
X206495000Y-76400177D01*
X204745000Y-76400177D01*
X204745000Y-76400176D01*
X204721487Y-76161444D01*
X204628568Y-75855131D01*
X204477675Y-75572830D01*
X204274608Y-75325392D01*
X204027169Y-75122325D01*
X203744868Y-74971432D01*
X203438555Y-74878513D01*
X203120000Y-74847138D01*
X202801444Y-74878513D01*
X202495131Y-74971432D01*
X202212830Y-75122325D01*
X201965392Y-75325392D01*
X201762325Y-75572831D01*
X201611432Y-75855132D01*
X201518513Y-76161445D01*
X201495000Y-76400177D01*
X199746421Y-76400177D01*
X199748072Y-75490000D01*
X199735812Y-75365518D01*
X199699502Y-75245820D01*
X199640537Y-75135506D01*
X199561185Y-75038815D01*
X199464494Y-74959463D01*
X199354180Y-74900498D01*
X199234482Y-74864188D01*
X199110000Y-74851928D01*
X198405750Y-74855000D01*
X198247000Y-75013750D01*
X197993000Y-75013750D01*
X197834250Y-74855000D01*
X197130000Y-74851928D01*
X197005518Y-74864188D01*
X196885820Y-74900498D01*
X196775506Y-74959463D01*
X196678815Y-75038815D01*
X196599463Y-75135506D01*
X196540498Y-75245820D01*
X196504188Y-75365518D01*
X196491928Y-75490000D01*
X183713985Y-75490000D01*
X183696004Y-75481492D01*
X183421816Y-75412763D01*
X183139488Y-75398846D01*
X182859870Y-75440276D01*
X182593708Y-75535460D01*
X182468486Y-75602392D01*
X182396903Y-75846361D01*
X147464239Y-75846361D01*
X147543228Y-75728147D01*
X147670246Y-75421496D01*
X147735000Y-75095958D01*
X147735000Y-74764042D01*
X147670246Y-74438504D01*
X147543228Y-74131853D01*
X147358825Y-73855875D01*
X147124125Y-73621175D01*
X146848147Y-73436772D01*
X146541496Y-73309754D01*
X146470848Y-73295701D01*
X218625000Y-73295701D01*
X218625000Y-73844299D01*
X218732026Y-74382354D01*
X218941965Y-74889192D01*
X219246750Y-75345334D01*
X219634666Y-75733250D01*
X220090808Y-76038035D01*
X220597646Y-76247974D01*
X221135701Y-76355000D01*
X221684299Y-76355000D01*
X222222354Y-76247974D01*
X222729192Y-76038035D01*
X223185334Y-75733250D01*
X223573250Y-75345334D01*
X223878035Y-74889192D01*
X224087974Y-74382354D01*
X224195000Y-73844299D01*
X224195000Y-73295701D01*
X224087974Y-72757646D01*
X223878035Y-72250808D01*
X223573250Y-71794666D01*
X223185334Y-71406750D01*
X222729192Y-71101965D01*
X222222354Y-70892026D01*
X221684299Y-70785000D01*
X221135701Y-70785000D01*
X220597646Y-70892026D01*
X220090808Y-71101965D01*
X219634666Y-71406750D01*
X219246750Y-71794666D01*
X218941965Y-72250808D01*
X218732026Y-72757646D01*
X218625000Y-73295701D01*
X146470848Y-73295701D01*
X146215958Y-73245000D01*
X145884042Y-73245000D01*
X145558504Y-73309754D01*
X145251853Y-73436772D01*
X144975875Y-73621175D01*
X144780000Y-73817050D01*
X144584125Y-73621175D01*
X144308147Y-73436772D01*
X144001496Y-73309754D01*
X143675958Y-73245000D01*
X143344042Y-73245000D01*
X143018504Y-73309754D01*
X142711853Y-73436772D01*
X142558042Y-73539546D01*
X142550537Y-73525506D01*
X142471185Y-73428815D01*
X142374494Y-73349463D01*
X142264180Y-73290498D01*
X142144482Y-73254188D01*
X142020000Y-73241928D01*
X141255750Y-73245000D01*
X141097000Y-73403750D01*
X140843000Y-73403750D01*
X140684250Y-73245000D01*
X139920000Y-73241928D01*
X139795518Y-73254188D01*
X139675820Y-73290498D01*
X139565506Y-73349463D01*
X139468815Y-73428815D01*
X139389463Y-73525506D01*
X139330498Y-73635820D01*
X139294188Y-73755518D01*
X139281928Y-73880000D01*
X133404945Y-73880000D01*
X133388825Y-73855875D01*
X133154125Y-73621175D01*
X132878147Y-73436772D01*
X132571496Y-73309754D01*
X132245958Y-73245000D01*
X131914042Y-73245000D01*
X131588504Y-73309754D01*
X131281853Y-73436772D01*
X131005875Y-73621175D01*
X130810000Y-73817050D01*
X130614125Y-73621175D01*
X130338147Y-73436772D01*
X130031496Y-73309754D01*
X129705958Y-73245000D01*
X129374042Y-73245000D01*
X129048504Y-73309754D01*
X128741853Y-73436772D01*
X128465875Y-73621175D01*
X128270000Y-73817050D01*
X128074125Y-73621175D01*
X127798147Y-73436772D01*
X127491496Y-73309754D01*
X127165958Y-73245000D01*
X126834042Y-73245000D01*
X126508504Y-73309754D01*
X126201853Y-73436772D01*
X126048042Y-73539546D01*
X126040537Y-73525506D01*
X125961185Y-73428815D01*
X125864494Y-73349463D01*
X125754180Y-73290498D01*
X125634482Y-73254188D01*
X125510000Y-73241928D01*
X123410000Y-73241928D01*
X123285518Y-73254188D01*
X123165820Y-73290498D01*
X123055506Y-73349463D01*
X122958815Y-73428815D01*
X122879463Y-73525506D01*
X122820498Y-73635820D01*
X122784188Y-73755518D01*
X122771928Y-73880000D01*
X109274945Y-73880000D01*
X109258825Y-73855875D01*
X109024125Y-73621175D01*
X108748147Y-73436772D01*
X108441496Y-73309754D01*
X108115958Y-73245000D01*
X107784042Y-73245000D01*
X107458504Y-73309754D01*
X107151853Y-73436772D01*
X106875875Y-73621175D01*
X106680000Y-73817050D01*
X106484125Y-73621175D01*
X106208147Y-73436772D01*
X105901496Y-73309754D01*
X105575958Y-73245000D01*
X105244042Y-73245000D01*
X104918504Y-73309754D01*
X104611853Y-73436772D01*
X104335875Y-73621175D01*
X104140000Y-73817050D01*
X103944125Y-73621175D01*
X103668147Y-73436772D01*
X103361496Y-73309754D01*
X103035958Y-73245000D01*
X102704042Y-73245000D01*
X102378504Y-73309754D01*
X102071853Y-73436772D01*
X101795875Y-73621175D01*
X101600000Y-73817050D01*
X101404125Y-73621175D01*
X101128147Y-73436772D01*
X100821496Y-73309754D01*
X100495958Y-73245000D01*
X100164042Y-73245000D01*
X99838504Y-73309754D01*
X99531853Y-73436772D01*
X99255875Y-73621175D01*
X99060000Y-73817050D01*
X98864125Y-73621175D01*
X98588147Y-73436772D01*
X98281496Y-73309754D01*
X97955958Y-73245000D01*
X97624042Y-73245000D01*
X97298504Y-73309754D01*
X96991853Y-73436772D01*
X96715875Y-73621175D01*
X96520000Y-73817050D01*
X96324125Y-73621175D01*
X96048147Y-73436772D01*
X95741496Y-73309754D01*
X95415958Y-73245000D01*
X95084042Y-73245000D01*
X94758504Y-73309754D01*
X94451853Y-73436772D01*
X94175875Y-73621175D01*
X93980000Y-73817050D01*
X93784125Y-73621175D01*
X93508147Y-73436772D01*
X93201496Y-73309754D01*
X92875958Y-73245000D01*
X92544042Y-73245000D01*
X92218504Y-73309754D01*
X91911853Y-73436772D01*
X91758042Y-73539546D01*
X91750537Y-73525506D01*
X91671185Y-73428815D01*
X91574494Y-73349463D01*
X91464180Y-73290498D01*
X91344482Y-73254188D01*
X91220000Y-73241928D01*
X90455750Y-73245000D01*
X90297000Y-73403750D01*
X90043000Y-73403750D01*
X89884250Y-73245000D01*
X89120000Y-73241928D01*
X88995518Y-73254188D01*
X88875820Y-73290498D01*
X88765506Y-73349463D01*
X88668815Y-73428815D01*
X88589463Y-73525506D01*
X88530498Y-73635820D01*
X88494188Y-73755518D01*
X88481928Y-73880000D01*
X84187898Y-73880000D01*
X84195000Y-73844299D01*
X84195000Y-73295701D01*
X84087974Y-72757646D01*
X83878035Y-72250808D01*
X83573250Y-71794666D01*
X83185334Y-71406750D01*
X82729192Y-71101965D01*
X82222354Y-70892026D01*
X81684299Y-70785000D01*
X81135701Y-70785000D01*
X80597646Y-70892026D01*
X80090808Y-71101965D01*
X79634666Y-71406750D01*
X79246750Y-71794666D01*
X78941965Y-72250808D01*
X78732026Y-72757646D01*
X78625000Y-73295701D01*
X77097103Y-73295701D01*
X77141173Y-72801917D01*
X77344656Y-72058109D01*
X77676638Y-71362095D01*
X78126626Y-70735870D01*
X78680403Y-70199223D01*
X79320451Y-69769129D01*
X80026553Y-69459171D01*
X80781457Y-69277935D01*
X81434207Y-69230000D01*
X221380608Y-69230000D01*
X222178083Y-69301173D01*
G37*
%TD.AperFunction*%
%TD*%
M02*
